STARTFONT 2.3
FONT -FontForge-Monofett-Book-R-Normal--18-180-72-72-P-96-ISO10646-1
SIZE 18 72 72  4
FONTBOUNDINGBOX 12 21 0 -3
COMMENT "Generated by fontforge, http://fontforge.sourceforge.net"
COMMENT "Copyright (c) 2011 by vernon adams. All rights reserved."
STARTPROPERTIES 41
FOUNDRY "FontForge"
FAMILY_NAME "Monofett"
WEIGHT_NAME "Book"
SLANT "R"
SETWIDTH_NAME "Normal"
ADD_STYLE_NAME ""
PIXEL_SIZE 18
POINT_SIZE 180
RESOLUTION_X 72
RESOLUTION_Y 72
SPACING "P"
AVERAGE_WIDTH 96
CHARSET_REGISTRY "ISO10646"
CHARSET_ENCODING "1"
FONTNAME_REGISTRY ""
CHARSET_COLLECTIONS "ISO8859-2 ISO8859-9 ISO8859-4 ISO10646-1"
BITS_PER_PIXEL 4
FONT_NAME "Monofett"
FACE_NAME "Monofett"
COPYRIGHT "Copyright (c) 2011 by vernon adams. All rights reserved."
FONT_VERSION "1.000"
FONT_ASCENT 14
FONT_DESCENT 4
UNDERLINE_POSITION -2
UNDERLINE_THICKNESS 1
X_HEIGHT 12
CAP_HEIGHT 12
RAW_ASCENT 799
RAW_DESCENT 200
NORM_SPACE 3
RELATIVE_WEIGHT 40
RELATIVE_SETWIDTH 50
SUPERSCRIPT_X 0
SUPERSCRIPT_Y 8
SUPERSCRIPT_SIZE 11
SUBSCRIPT_X 0
SUBSCRIPT_Y 2
SUBSCRIPT_SIZE 11
FIGURE_WIDTH 10
AVG_LOWERCASE_WIDTH 100
AVG_UPPERCASE_WIDTH 100
ENDPROPERTIES
CHARS 409
STARTCHAR uni000D
ENCODING 13
SWIDTH 144 0
DWIDTH 3 0
BBX 1 1 0 0
BITMAP
00
ENDCHAR
STARTCHAR space
ENCODING 32
SWIDTH 144 0
DWIDTH 3 0
BBX 1 1 0 0
BITMAP
00
ENDCHAR
STARTCHAR exclam
ENCODING 33
SWIDTH 424 0
DWIDTH 8 0
BBX 8 12 0 0
BITMAP
05DCDA20
6FF58FE1
EFF69FF8
FFF7AFFA
FFF8BFFA
FFF8CFFA
FFFCEFFA
FFF8AFFA
FFFEEFFA
DFFFFFF8
6FFFFFE1
05CFEA20
ENDCHAR
STARTCHAR quotedbl
ENCODING 34
SWIDTH 424 0
DWIDTH 8 0
BBX 8 12 0 0
BITMAP
05CCBA20
6FD42EE1
EFD42EF8
FFFFFFFA
FFFFFFFA
FFFFFFFA
FFFFFFFA
FFFFFFFA
FFFFFFFA
DFFFFFF8
6FFFFFE1
05CFEA20
ENDCHAR
STARTCHAR numbersign
ENCODING 35
SWIDTH 482 0
DWIDTH 9 0
BBX 9 13 0 0
BITMAP
0000100000
05DFFFB200
6FFBD9FE20
EFE381DF90
FFB141BFB0
FFF1C4FFB0
FFB173EFB0
FF8243EFB0
FFD8ABFFB0
FFFFFFFFB0
DFFFFFFF90
5FFFFFFE20
05CFFEA200
ENDCHAR
STARTCHAR dollar
ENCODING 36
SWIDTH 578 0
DWIDTH 10 0
BBX 11 13 0 0
BITMAP
000011100000
05DFFCFE9100
6FFA728DFC00
EFD28374FF50
FFC4F5FDFF60
FFE2415BFF70
FFFEB494FF70
FFD8F5C3FF70
FFE31018FF70
FFFFE5FFFF60
DFFFFEFFFF40
5FFFFFFFFB00
05CFFFFD8100
ENDCHAR
STARTCHAR percent
ENCODING 37
SWIDTH 578 0
DWIDTH 10 0
BBX 11 13 0 0
BITMAP
000011100000
05DFFFFE9100
6E54CAAFFC00
E96775AFFF50
FB12A1EFFF60
FFEEC4EBEF70
FFFF78352F70
FFFF3D2A1F70
FFFF7FB59F70
FFFFFFFFFF60
DFFFFFFFFF40
5FFFFFFFFB00
05CFFFFD8100
ENDCHAR
STARTCHAR ampersand
ENCODING 38
SWIDTH 578 0
DWIDTH 10 0
BBX 11 13 0 0
BITMAP
000011100000
05DFCBCD9100
6FF6354EFC00
EFF4CFFFFF50
FFF59DD1EF60
FFFB2330CF70
FFF4CFF1FF70
FFF4CFF1FF70
FFF91116FF70
FFFFFFFFFF60
DFFFFFFFFF40
5FFFFFFFFB00
05CFFFFD8100
ENDCHAR
STARTCHAR quotesingle
ENCODING 39
SWIDTH 424 0
DWIDTH 8 0
BBX 8 12 0 0
BITMAP
05DDDA20
6FF7AFE1
EFF7AFF8
FFFFFFFA
FFFFFFFA
FFFFFFFA
FFFFFFFA
FFFFFFFA
FFFFFFFA
DFFFFFF8
6FFFFFE1
05CFEA20
ENDCHAR
STARTCHAR parenleft
ENCODING 40
SWIDTH 483 0
DWIDTH 9 0
BBX 9 13 0 0
BITMAP
0000100000
05DEBCB300
6FF259FE20
EFE2FFFF90
FFE3FFFFB0
FFE3FFFFB0
FFE3FFFFB0
FFE3FFFFB0
FFE2FFFFB0
FFF238FFB0
DFFFDEFF90
5FFFFFFE20
05CFFEA200
ENDCHAR
STARTCHAR parenright
ENCODING 41
SWIDTH 483 0
DWIDTH 9 0
BBX 9 13 0 0
BITMAP
0000100000
05DCCEB300
6FF736FE20
EFFFD3FF90
FFFFD3FFB0
FFFFD3FFB0
FFFFD3FFB0
FFFFD3FFB0
FFFFD3FFB0
FFF526FFB0
DFFDDFFF90
5FFFFFFE20
05CFFEA200
ENDCHAR
STARTCHAR asterisk
ENCODING 42
SWIDTH 428 0
DWIDTH 8 0
BBX 8 12 0 0
BITMAP
05DEEA30
6FD267E2
EF6105B9
FFB208DB
FFD5A8FB
FFFFFFFB
FFFFFFFB
FFFFFFFB
FFFFFFFB
DFFFFFF9
5FFFFFE2
05CFEA20
ENDCHAR
STARTCHAR plus
ENCODING 43
SWIDTH 428 0
DWIDTH 8 0
BBX 8 12 0 0
BITMAP
05DDDB30
6FF79FE2
ED7347E9
FE9469EB
FFF79FFB
FFFEEFFB
FFFFFFFB
FFFFFFFB
FFFFFFFB
DFFFFFF9
5FFFFFE2
05CFEA20
ENDCHAR
STARTCHAR comma
ENCODING 44
SWIDTH 428 0
DWIDTH 8 0
BBX 8 12 0 0
BITMAP
05DFFB30
6FFFFFE2
EFFFFFF9
FFFFFFFB
FFFFFFFB
FFFFFFFB
FFFEEFFB
FFF46FFB
FFFA9FFB
DFFFFFF9
5FFFFFE2
05CFEA20
ENDCHAR
STARTCHAR hyphen
ENCODING 45
SWIDTH 428 0
DWIDTH 8 0
BBX 8 12 0 0
BITMAP
05DFFB30
6FFFFFE2
EFFFFFF9
FF4118FB
FFFFFFFB
FFFFFFFB
FFFFFFFB
FFFFFFFB
FFFFFFFB
DFFFFFF9
5FFFFFE2
05CFEA20
ENDCHAR
STARTCHAR period
ENCODING 46
SWIDTH 428 0
DWIDTH 8 0
BBX 8 12 0 0
BITMAP
05DFFB30
6FFFFFE2
EFFFFFF9
FFFFFFFB
FFFFFFFB
FFFFFFFB
FFFEEFFB
FFF48FFB
FFFFFFFB
DFFFFFF9
5FFFFFE2
05CFEA20
ENDCHAR
STARTCHAR slash
ENCODING 47
SWIDTH 428 0
DWIDTH 8 0
BBX 8 12 0 0
BITMAP
05DFFB30
6FFE2FE2
EFFB5FF9
FFF87FFB
FFF6AFFB
FFF3CFFB
FFF1FFFB
FFD2FFFB
FFECFFFB
DFFFFFF9
5FFFFFE2
05CFEA20
ENDCHAR
STARTCHAR zero
ENCODING 48
SWIDTH 578 0
DWIDTH 10 0
BBX 11 13 0 0
BITMAP
000011100000
05DEBBBC9100
6FE24552DC00
EFC4FFF6AF50
FFC4FFF6AF60
FFC4FFF6AF70
FFC4FFF6AF70
FFC4FFF5BF70
FFE31112EF70
FFFFFFFFFF60
DFFFFFFFFF40
5FFFFFFFFB00
05CFFFFD8100
ENDCHAR
STARTCHAR one
ENCODING 49
SWIDTH 578 0
DWIDTH 10 0
BBX 11 13 0 0
BITMAP
000011100000
05DFEBFE9100
6FFD21FFFC00
EFFFF1FFFF50
FFFFF1FFFF60
FFFFF1FFFF70
FFFFF1FFFF70
FFFFF1FFFF70
FFFFF1FFFF70
FFFFFFFFFF60
DFFFFFFFFF40
5FFFFFFFFB00
05CFFFFD8100
ENDCHAR
STARTCHAR two
ENCODING 50
SWIDTH 578 0
DWIDTH 10 0
BBX 11 13 0 0
BITMAP
000011100000
05DEBBCD9100
6FE24542FC00
EFEAFFF2DF50
FFFFFFF2EF60
FFF52226FF70
FFD3FFFFFF70
FFC4FFFFFF70
FFE12224FF70
FFFFFFFFFF60
DFFFFFFFFF40
5FFFFFFFFB00
05CFFFFD8100
ENDCHAR
STARTCHAR three
ENCODING 51
SWIDTH 578 0
DWIDTH 10 0
BBX 11 13 0 0
BITMAP
000011100000
05DDCCCD9100
6FA24443FC00
EFCCFFF1FF50
FFFFEEE1FF60
FFFE3332FF70
FFFFFFF1FF70
FFBAFFF1FF70
FFC12215FF70
FFFFFFFFFF60
DFFFFFFFFF40
5FFFFFFFFB00
05CFFFFD8100
ENDCHAR
STARTCHAR four
ENCODING 52
SWIDTH 578 0
DWIDTH 10 0
BBX 11 13 0 0
BITMAP
000011100000
05DCFFCD9100
6FF3DF4CFC00
EFF3DF4CFF50
FFF3DF4CFF60
FFF3DF4CFF70
FFF54615AF70
FFFEBA38DF70
FFFFFF4CFF70
FFFFFFFFFF60
DFFFFFFFFF40
5FFFFFFFFB00
05CFFFFD8100
ENDCHAR
STARTCHAR five
ENCODING 53
SWIDTH 578 0
DWIDTH 10 0
BBX 11 13 0 0
BITMAP
000011100000
05DDBBBB9100
6FE15557FC00
EFE2FFFFFF50
FFE2999CFF60
FFE67772DF70
FFFFFFF4CF70
FFFAFFF4CF70
FFF41213EF70
FFFFFFFFFF60
DFFFFFFFFF40
5FFFFFFFFB00
05CFFFFD8100
ENDCHAR
STARTCHAR six
ENCODING 54
SWIDTH 578 0
DWIDTH 10 0
BBX 11 13 0 0
BITMAP
000011100000
05DECBBC9100
6FF23335FC00
EFE2FFFFFF50
FFE2988AFF60
FFE17873AF70
FFE2FFF78F70
FFE2FFF78F70
FFF41222CF70
FFFFFFFFFF60
DFFFFFFFFF40
5FFFFFFFFB00
05CFFFFD8100
ENDCHAR
STARTCHAR seven
ENCODING 55
SWIDTH 578 0
DWIDTH 10 0
BBX 11 13 0 0
BITMAP
000011100000
05DEBBBC9100
6FFC5528FC00
EFFFFF2DFF50
FFFFFB3FFF60
FFFFF69FFF70
FFFFF1EFFF70
FFFFA4FFFF70
FFFF59FFFF70
FFFFFFFFFF60
DFFFFFFFFF40
5FFFFFFFFB00
05CFFFFD8100
ENDCHAR
STARTCHAR eight
ENCODING 56
SWIDTH 578 0
DWIDTH 10 0
BBX 11 13 0 0
BITMAP
000011100000
05DEBBBC9100
6FE24552DC00
EFB5FFF5BF50
FFC3CDD3BF60
FFE13331DF70
FFB4FFF5BF70
FFB4FFF5BF70
FFE31112EF70
FFFFFFFFFF60
DFFFFFFFFF40
5FFFFFFFFB00
05CFFFFD8100
ENDCHAR
STARTCHAR nine
ENCODING 57
SWIDTH 578 0
DWIDTH 10 0
BBX 11 13 0 0
BITMAP
000011100000
05DDBBBD9100
6FC15551EC00
EFA6FFF3CF50
FFA6FFF3CF60
FFC14440CF70
FFFECCC3CF70
FFFEFFF3DF70
FFF50003FF70
FFFFFFFFFF60
DFFFFFFFFF40
5FFFFFFFFB00
05CFFFFD8100
ENDCHAR
STARTCHAR colon
ENCODING 58
SWIDTH 428 0
DWIDTH 8 0
BBX 8 12 0 0
BITMAP
05DFFB30
6FFFFFE2
EFFFFFF9
FFFFFFFB
FFF8BFFB
FFFACFFB
FFFEEFFB
FFF48FFB
FFFFFFFB
DFFFFFF9
5FFFFFE2
05CFEA20
ENDCHAR
STARTCHAR semicolon
ENCODING 59
SWIDTH 428 0
DWIDTH 8 0
BBX 8 12 0 0
BITMAP
05DFFB30
6FFFFFE2
EFFFFFF9
FFFFFFFB
FFF99FFB
FFFBBFFB
FFFEEFFB
FFF46FFB
FFFA9FFB
DFFFFFF9
5FFFFFE2
05CFEA20
ENDCHAR
STARTCHAR less
ENCODING 60
SWIDTH 482 0
DWIDTH 9 0
BBX 9 14 0 0
BITMAP
006AA94000
2DFFFFFA00
BFFFFFFF60
FFFFFCFFA0
FFFF7CFFB0
FFF9AFFFB0
FFA8FFFFB0
FFB8FFFFB0
FFF9AFFFB0
FFFF7BFFB0
DFFFFDFF90
5FFFFFFE20
05DFFFA200
0001200000
ENDCHAR
STARTCHAR equal
ENCODING 61
SWIDTH 482 0
DWIDTH 9 0
BBX 9 14 0 0
BITMAP
006AA94000
2DFFFFFA00
BFFFFFFF60
FFFFFFFFA0
FFFFFFFFB0
FFE888DFB0
FFFEEEFFB0
FFD666DFB0
FFFFFFFFB0
FFFFFFFFB0
DFFFFFFF90
6FFFFFFE20
05DFFFB300
0002210000
ENDCHAR
STARTCHAR greater
ENCODING 62
SWIDTH 482 0
DWIDTH 9 0
BBX 9 14 0 0
BITMAP
006AA94000
2DFFFFFA00
BFFFFFFF60
FFFCFFFFA0
FFF8BFFFB0
FFFF6CFFB0
FFFFF6EFB0
FFFFF6EFB0
FFFF6CFFB0
FFF8BFFFB0
DFFDFFFF90
6FFFFFFE20
05DFFFB300
0002210000
ENDCHAR
STARTCHAR question
ENCODING 63
SWIDTH 578 0
DWIDTH 10 0
BBX 11 13 0 0
BITMAP
000011100000
05DFDDDE9100
6FF84563FC00
EFFCEFF5DF50
FFFFFFF5DF60
FFFFF743FF70
FFFFF3EFFF70
FFFFF9FFFF70
FFFFF2FFFF70
FFFFFFFFFF60
DFFFFFFFFF40
5FFFFFFFFB00
05CFFFFD8100
ENDCHAR
STARTCHAR at
ENCODING 64
SWIDTH 578 0
DWIDTH 10 0
BBX 11 13 0 0
BITMAP
000011100000
05DEBABD9100
6F737883AC00
EB5E869E3F50
F99FCD5C6D60
F9AE874A7C70
F9978C5A7C70
FA9B353A6C70
FD4EFFE66F70
FFA346FFFF60
DFFFFFFFFF40
5FFFFFFFFB00
05CFFFFD8100
ENDCHAR
STARTCHAR A
ENCODING 65
SWIDTH 578 0
DWIDTH 10 0
BBX 11 13 0 0
BITMAP
000011100000
05DFCBDE9100
6FF63536FC00
EFF3DFC3FF50
FFF1EFE2FF60
FFF08870FF70
FFD2AAA1DF70
FFB4FFF3CF70
FFA5FFF5AF70
FFFFFFFFFF60
DFFFFFFFFF40
5FFFFFFFFB00
05CFFFFD8100
ENDCHAR
STARTCHAR B
ENCODING 66
SWIDTH 578 0
DWIDTH 10 0
BBX 11 13 0 0
BITMAP
000011100000
05BBBBCD9100
6FB25543FC00
EFB5FFE0FF50
FFB5DDC1FF60
FFB14435FF70
FFB5FFF1FF70
FFB5FFF1FF70
FFB01116FF70
FFFFFFFFFF60
DFFFFFFFFF40
5FFFFFFFFB00
05CFFFFD8100
ENDCHAR
STARTCHAR C
ENCODING 67
SWIDTH 578 0
DWIDTH 10 0
BBX 11 13 0 0
BITMAP
000011100000
05DDBBCD9100
6FD2555BFC00
EFB5FFFFFF50
FFB5FFFFFF60
FFB5FFFFFF70
FFB5FFFFFF70
FFB4FFFFFF70
FFE2111AFF70
FFFFFFFFFF60
DFFFFFFFFF40
5FFFFFFFFB00
05CFFFFD8100
ENDCHAR
STARTCHAR D
ENCODING 68
SWIDTH 578 0
DWIDTH 10 0
BBX 11 13 0 0
BITMAP
000011100000
05CBBBBC9100
6FD15552CC00
EFD3FFF79F50
FFD3FFF79F60
FFD3FFF79F70
FFD3FFF79F70
FFD3FFF69F70
FFD01112DF70
FFFFFFFFFF60
DFFFFFFFFF40
5FFFFFFFFB00
05CFFFFD8100
ENDCHAR
STARTCHAR E
ENCODING 69
SWIDTH 578 0
DWIDTH 10 0
BBX 11 13 0 0
BITMAP
000011100000
05DDBBBB9100
6FF83556FC00
EFF88FFFFF50
FFF88EEFFF60
FFF8122AFF70
FFF88FFFFF70
FFF88FFFFF70
FFF81112FF70
FFFFFFFFFF60
DFFFFFFFFF40
5FFFFFFFFB00
05CFFFFD8100
ENDCHAR
STARTCHAR F
ENCODING 70
SWIDTH 578 0
DWIDTH 10 0
BBX 11 13 0 0
BITMAP
000011100000
05DDBBBB9100
6FF73556FC00
EFF78FFFFF50
FFF76CCEFF60
FFF7244BFF70
FFF78FFFFF70
FFF78FFFFF70
FFF78FFFFF70
FFFFFFFFFF60
DFFFFFFFFF40
5FFFFFFFFB00
05CFFFFD8100
ENDCHAR
STARTCHAR G
ENCODING 71
SWIDTH 578 0
DWIDTH 10 0
BBX 11 13 0 0
BITMAP
000011100000
05DECBBB9100
6FF34555FC00
EFF1FFFFFF50
FFF1FFFFFF60
FFF1FD44BF70
FFF1FEC59F70
FFF1FFF6AF70
FFF51112DF70
FFFFFFFFFF60
DFFFFFFFFF40
5FFFFFFFFB00
05CFFFFD8100
ENDCHAR
STARTCHAR H
ENCODING 72
SWIDTH 578 0
DWIDTH 10 0
BBX 11 13 0 0
BITMAP
000011100000
05CCFFFC7100
6FD3FFF79C00
EFD3FFF79F50
FFD2CCC69F60
FFD144429F70
FFD3FFF79F70
FFD3FFF79F70
FFD3FFF79F70
FFFFFFFFFF60
DFFFFFFFFF40
5FFFFFFFFB00
05CFFFFD8100
ENDCHAR
STARTCHAR I
ENCODING 73
SWIDTH 578 0
DWIDTH 10 0
BBX 11 13 0 0
BITMAP
000011100000
05DCBBBA8100
6FF65145DC00
EFFFF3DFFF50
FFFFF3DFFF60
FFFFF3DFFF70
FFFFF3DFFF70
FFFFF3DFFF70
FFF31011CF70
FFFFFFFFFF60
DFFFFFFFFF40
5FFFFFFFFB00
05CFFFFD8100
ENDCHAR
STARTCHAR J
ENCODING 74
SWIDTH 578 0
DWIDTH 10 0
BBX 11 13 0 0
BITMAP
000011100000
05DFFFCE9100
6FFFFF1FFC00
EFFFFF1FFF50
FFFFFF1FFF60
FFFFFF1FFF70
FFFFFF1FFF70
FFFFFE1FFF70
FFFF115FFF70
FFFFFFFFFF60
DFFFFFFFFF40
5FFFFFFFFB00
05CFFFFD8100
ENDCHAR
STARTCHAR K
ENCODING 75
SWIDTH 578 0
DWIDTH 10 0
BBX 11 13 0 0
BITMAP
000011100000
05DDDFFD6100
6FF97FE38C00
EFF97E38FF50
FFF9638FFF60
FFF901DFFF70
FFF9793EFF70
FFF97F74FF70
FFF97FF59F70
FFFFFFFFFF60
DFFFFFFFFF40
5FFFFFFFFB00
05CFFFFD8100
ENDCHAR
STARTCHAR L
ENCODING 76
SWIDTH 578 0
DWIDTH 10 0
BBX 11 13 0 0
BITMAP
000011100000
05DFCFFE9100
6FFE2FFFFC00
EFFE2FFFFF50
FFFE2FFFFF60
FFFE2FFFFF70
FFFE2FFFFF70
FFFE2FFFFF70
FFFE0117FF70
FFFFFFFFFF60
DFFFFFFFFF40
5FFFFFFFFB00
05CFFFFD8100
ENDCHAR
STARTCHAR M
ENCODING 77
SWIDTH 578 0
DWIDTH 10 0
BBX 11 13 0 0
BITMAP
000011100000
05CCBEBB8100
6F5442536C00
EF4CF1FC5F50
FF4CF1FC5F60
FF4CF1FC5F70
FF4CF8FC5F70
FF4CFFFC5F70
FF4CFFFC5F70
FFFFFFFFFF60
DFFFFFFFFF40
5FFFFFFFFB00
05CFFFFD8100
ENDCHAR
STARTCHAR N
ENCODING 78
SWIDTH 578 0
DWIDTH 10 0
BBX 11 13 0 0
BITMAP
000011100000
05CDBBBD9100
6FC15552EC00
EFC4FFF4CF50
FFC4FFF4CF60
FFC4FFF4CF70
FFC4FFF4CF70
FFC4FFF4CF70
FFC4FFF4CF70
FFFFFFFFFF60
DFFFFFFFFF40
5FFFFFFFFB00
05CFFFFD8100
ENDCHAR
STARTCHAR O
ENCODING 79
SWIDTH 578 0
DWIDTH 10 0
BBX 11 13 0 0
BITMAP
000011100000
05DEBBBC9100
6FE24552CC00
EFD3FFF69F50
FFD3FFF79F60
FFD3FFF79F70
FFD3FFF79F70
FFD3FFF6AF70
FFF31112DF70
FFFFFFFFFF60
DFFFFFFFFF40
5FFFFFFFFB00
05CFFFFD8100
ENDCHAR
STARTCHAR P
ENCODING 80
SWIDTH 578 0
DWIDTH 10 0
BBX 11 13 0 0
BITMAP
000011100000
05DCBBBD9100
6FF54542EC00
EFF5CFF3CF50
FFF5CFF3CF60
FFF56871EF70
FFF5799CFF70
FFF5CFFFFF70
FFF5CFFFFF70
FFFFFFFFFF60
DFFFFFFFFF40
5FFFFFFFFB00
05CFFFFD8100
ENDCHAR
STARTCHAR Q
ENCODING 81
SWIDTH 578 0
DWIDTH 10 0
BBX 11 13 0 0
BITMAP
000011100000
05DEBBBC9100
6FF24552CC00
EFD3FFF79F50
FFD3FFF79F60
FFD3FFF79F70
FFD3FFF79F70
FFE3F8B69F70
FFF31112DF70
FFFFFF4BFF60
DFFFFFDEFF40
5FFFFFFFFB00
05CFFFFD8100
ENDCHAR
STARTCHAR R
ENCODING 82
SWIDTH 578 0
DWIDTH 10 0
BBX 11 13 0 0
BITMAP
000011100000
05DBBBCE9100
6FF15536FC00
EFF1FFE2FF50
FFF1FFD3FF60
FFF1222BFF70
FFF1EEB3FF70
FFF1FFF1FF70
FFF1FFF1FF70
FFFFFFFFFF60
DFFFFFFFFF40
5FFFFFFFFB00
05CFFFFD8100
ENDCHAR
STARTCHAR S
ENCODING 83
SWIDTH 578 0
DWIDTH 10 0
BBX 11 13 0 0
BITMAP
000011100000
05DECBBC9100
6FF44555FC00
EFF1FFFFFF50
FFF1CDDEFF60
FFF94332EF70
FFFFFFF4CF70
FFFFFFF4CF70
FFF71113EF70
FFFFFFFFFF60
DFFFFFFFFF40
5FFFFFFFFB00
05CFFFFD8100
ENDCHAR
STARTCHAR T
ENCODING 84
SWIDTH 578 0
DWIDTH 10 0
BBX 11 13 0 0
BITMAP
000011100000
05DCBBBA8100
6FF65145DC00
EFFFF3DFFF50
FFFFF3DFFF60
FFFFF3DFFF70
FFFFF3DFFF70
FFFFF3DFFF70
FFFFF3DFFF70
FFFFFFFFFF60
DFFFFFFFFF40
5FFFFFFFFB00
05CFFFFD8100
ENDCHAR
STARTCHAR U
ENCODING 85
SWIDTH 578 0
DWIDTH 10 0
BBX 11 13 0 0
BITMAP
000011100000
05CCFFFC7100
6FC4FFF6AC00
EFC4FFF6AF50
FFC4FFF6AF60
FFC4FFF6AF70
FFC4FFF6AF70
FFC4FFF5BF70
FFE31112EF70
FFFFFFFFFF60
DFFFFFFFFF40
5FFFFFFFFB00
05CFFFFD8100
ENDCHAR
STARTCHAR V
ENCODING 86
SWIDTH 578 0
DWIDTH 10 0
BBX 11 13 0 0
BITMAP
000011100000
05CDFFFC8100
6FD1FFF2CC00
EFF2CFD1FF50
FFF68FA5FF60
FFFA5F69FF70
FFFE1F2DFF70
FFFF3A2FFF70
FFFF918FFF70
FFFFFFFFFF60
DFFFFFFFFF40
5FFFFFFFFB00
05CFFFFD8100
ENDCHAR
STARTCHAR W
ENCODING 87
SWIDTH 578 0
DWIDTH 10 0
BBX 11 13 0 0
BITMAP
000011100000
05AFFFFE6100
6F0FE1FD2C00
EF1EB0DC3F50
FF3C91AA5F60
FF5B65897F70
FF6939578F70
FF881D36AF70
FFC15F32DF70
FFFFFFFFFF60
DFFFFFFFFF40
5FFFFFFFFB00
05CFFFFD8100
ENDCHAR
STARTCHAR X
ENCODING 88
SWIDTH 578 0
DWIDTH 10 0
BBX 11 13 0 0
BITMAP
000011100000
05DDFFFD8100
6FF2CFF3CC00
EFFB3F86FF50
FFFF572EFF60
FFFFB06FFF70
FFFF392DFF70
FFF95F94FF70
FFF3EFF4CF70
FFFFFFFFFF60
DFFFFFFFFF40
5FFFFFFFFB00
05CFFFFD8100
ENDCHAR
STARTCHAR Y
ENCODING 89
SWIDTH 578 0
DWIDTH 10 0
BBX 11 13 0 0
BITMAP
000011100000
05DBFFFB8100
6FF4AFD1EC00
EFFA4F77FF50
FFFF2D2DFF60
FFFF835FFF70
FFFFE0BFFF70
FFFFF2EFFF70
FFFFF2EFFF70
FFFFFFFFFF60
DFFFFFFFFF40
5FFFFFFFFB00
05CFFFFD8100
ENDCHAR
STARTCHAR Z
ENCODING 90
SWIDTH 578 0
DWIDTH 10 0
BBX 11 13 0 0
BITMAP
000011100000
05DDBBBD9100
6FF95528FC00
EFFFFE2EFF50
FFFFF68FFF60
FFFFD2FFFF70
FFFF4AFFFF70
FFFB3FFFFF70
FFF71225FF70
FFFFFFFFFF60
DFFFFFFFFF40
5FFFFFFFFB00
05CFFFFD8100
ENDCHAR
STARTCHAR bracketleft
ENCODING 91
SWIDTH 484 0
DWIDTH 9 0
BBX 9 13 0 0
BITMAP
0000100000
05DD8DB300
6FFA3EFE20
EFFA6FFF90
FFFA6FFFB0
FFFA6FFFC0
FFFA6FFFC0
FFFA6FFFC0
FFFA5FFFC0
FFFB2DFFB0
DFFFFFFF90
5FFFFFFE20
05CFFEA200
ENDCHAR
STARTCHAR backslash
ENCODING 92
SWIDTH 516 0
DWIDTH 9 0
BBX 10 13 0 0
BITMAP
0000100000
05DECFE800
6FFD3FFFA0
EFFF1FFFF3
FFFF3DFFF5
FFFF5AFFF5
FFFF88FFF5
FFFFA5FFF5
FFFFD3FFF5
FFFFFFFFF5
DFFFFFFFF3
5FFFFFFFA0
05CFFFD700
ENDCHAR
STARTCHAR bracketright
ENCODING 93
SWIDTH 484 0
DWIDTH 9 0
BBX 9 13 0 0
BITMAP
0000100000
05DC8EB300
6FFC1EFE20
EFFF2EFF90
FFFF2EFFB0
FFFF2EFFC0
FFFF2EFFC0
FFFF2EFFC0
FFFF2EFFC0
FFF92EFFB0
DFFFFFFF90
5FFFFFFE20
05CFFEA200
ENDCHAR
STARTCHAR asciicircum
ENCODING 94
SWIDTH 355 0
DWIDTH 6 0
BBX 7 7 0 4
BITMAP
029A5000
0BFFF300
3FA5F900
9F8ADE10
EDBF9F50
EFFFFF50
3A96A700
ENDCHAR
STARTCHAR underscore
ENCODING 95
SWIDTH 428 0
DWIDTH 8 0
BBX 8 12 0 0
BITMAP
05DFFB30
6FFFFFE2
EFFFFFF9
FFFFFFFB
FFFFFFFB
FFFFFFFB
FFFFFFFB
FFFFFFFB
FD1112FB
DFFFFFF9
5FFFFFE2
05CFEA20
ENDCHAR
STARTCHAR grave
ENCODING 96
SWIDTH 308 0
DWIDTH 6 0
BBX 6 6 0 0
BITMAP
5DFE50
EF8FD0
CF5BF2
5FC7F6
0BFBF8
02CCB2
ENDCHAR
STARTCHAR a
ENCODING 97
SWIDTH 578 0
DWIDTH 10 0
BBX 11 13 0 0
BITMAP
000011100000
05DDBBCE9100
6FF65537FC00
EFFFFFC5FF50
FFFFFFC5FF60
FFE53335FF70
FF95DDA5FF70
FF97FFC5FF70
FFD21116FF70
FFFFFFFFFF60
DFFFFFFFFF40
5FFFFFFFFB00
05CFFFFD8100
ENDCHAR
STARTCHAR b
ENCODING 98
SWIDTH 578 0
DWIDTH 10 0
BBX 11 13 0 0
BITMAP
000011100000
05BBBBCD9100
6FB25543FC00
EFB5FFE0FF50
FFB5DDC1FF60
FFB14435FF70
FFB5FFF1FF70
FFB5FFF1FF70
FFB01116FF70
FFFFFFFFFF60
DFFFFFFFFF40
5FFFFFFFFB00
05CFFFFD8100
ENDCHAR
STARTCHAR c
ENCODING 99
SWIDTH 578 0
DWIDTH 10 0
BBX 11 13 0 0
BITMAP
000011100000
05DDBBCD9100
6FD2555BFC00
EFB5FFFFFF50
FFB5FFFFFF60
FFB5FFFFFF70
FFB5FFFFFF70
FFB4FFFFFF70
FFE2111AFF70
FFFFFFFFFF60
DFFFFFFFFF40
5FFFFFFFFB00
05CFFFFD8100
ENDCHAR
STARTCHAR d
ENCODING 100
SWIDTH 578 0
DWIDTH 10 0
BBX 11 13 0 0
BITMAP
000011100000
05CBBBBC9100
6FD15552CC00
EFD3FFF79F50
FFD3FFF79F60
FFD3FFF79F70
FFD3FFF79F70
FFD3FFF69F70
FFD01112DF70
FFFFFFFFFF60
DFFFFFFFFF40
5FFFFFFFFB00
05CFFFFD8100
ENDCHAR
STARTCHAR e
ENCODING 101
SWIDTH 578 0
DWIDTH 10 0
BBX 11 13 0 0
BITMAP
000011100000
05DDBBCE9100
6FC25537FC00
EFA6FFB4FF50
FFA37754FF60
FFA4999BFF70
FFA6FFFFFF70
FFA4CCCEFF70
FFF6444BFF70
FFFFFFFFFF60
DFFFFFFFFF40
5FFFFFFFFB00
05CFFFFD8100
ENDCHAR
STARTCHAR f
ENCODING 102
SWIDTH 578 0
DWIDTH 10 0
BBX 11 13 0 0
BITMAP
000011100000
05DDBBBB9100
6FF73556FC00
EFF78FFFFF50
FFF76CCEFF60
FFF7244BFF70
FFF78FFFFF70
FFF78FFFFF70
FFF78FFFFF70
FFFFFFFFFF60
DFFFFFFFFF40
5FFFFFFFFB00
05CFFFFD8100
ENDCHAR
STARTCHAR g
ENCODING 103
SWIDTH 578 0
DWIDTH 10 0
BBX 11 13 0 0
BITMAP
000011100000
05DECBBB9100
6FF34555FC00
EFF1FFFFFF50
FFF1FFFFFF60
FFF1FD44BF70
FFF1FEC59F70
FFF1FFF6AF70
FFF51112DF70
FFFFFFFFFF60
DFFFFFFFFF40
5FFFFFFFFB00
05CFFFFD8100
ENDCHAR
STARTCHAR h
ENCODING 104
SWIDTH 578 0
DWIDTH 10 0
BBX 11 13 0 0
BITMAP
000011100000
05CCFFFC7100
6FD3FFF79C00
EFD3FFF79F50
FFD2CCC69F60
FFD144429F70
FFD3FFF79F70
FFD3FFF79F70
FFD3FFF79F70
FFFFFFFFFF60
DFFFFFFFFF40
5FFFFFFFFB00
05CFFFFD8100
ENDCHAR
STARTCHAR i
ENCODING 105
SWIDTH 578 0
DWIDTH 10 0
BBX 11 13 0 0
BITMAP
000011100000
05DCBBBA8100
6FF65145DC00
EFFFF3DFFF50
FFFFF3DFFF60
FFFFF3DFFF70
FFFFF3DFFF70
FFFFF3DFFF70
FFF31011CF70
FFFFFFFFFF60
DFFFFFFFFF40
5FFFFFFFFB00
05CFFFFD8100
ENDCHAR
STARTCHAR j
ENCODING 106
SWIDTH 578 0
DWIDTH 10 0
BBX 11 13 0 0
BITMAP
000011100000
05DFFFCE9100
6FFFFF1FFC00
EFFFFF1FFF50
FFFFFF1FFF60
FFFFFF1FFF70
FFFFFF1FFF70
FFFFFE1FFF70
FFFF115FFF70
FFFFFFFFFF60
DFFFFFFFFF40
5FFFFFFFFB00
05CFFFFD8100
ENDCHAR
STARTCHAR k
ENCODING 107
SWIDTH 578 0
DWIDTH 10 0
BBX 11 13 0 0
BITMAP
000011100000
05DDDFFD6100
6FF97FE38C00
EFF97E38FF50
FFF9638FFF60
FFF901DFFF70
FFF9793EFF70
FFF97F74FF70
FFF97FF59F70
FFFFFFFFFF60
DFFFFFFFFF40
5FFFFFFFFB00
05CFFFFD8100
ENDCHAR
STARTCHAR l
ENCODING 108
SWIDTH 578 0
DWIDTH 10 0
BBX 11 13 0 0
BITMAP
000011100000
05DFCFFE9100
6FFE2FFFFC00
EFFE2FFFFF50
FFFE2FFFFF60
FFFE2FFFFF70
FFFE2FFFFF70
FFFE2FFFFF70
FFFE0117FF70
FFFFFFFFFF60
DFFFFFFFFF40
5FFFFFFFFB00
05CFFFFD8100
ENDCHAR
STARTCHAR m
ENCODING 109
SWIDTH 578 0
DWIDTH 10 0
BBX 11 13 0 0
BITMAP
000011100000
05CCBEBB8100
6F5442536C00
EF4CF1FC5F50
FF4CF1FC5F60
FF4CF1FC5F70
FF4CF8FC5F70
FF4CFFFC5F70
FF4CFFFC5F70
FFFFFFFFFF60
DFFFFFFFFF40
5FFFFFFFFB00
05CFFFFD8100
ENDCHAR
STARTCHAR n
ENCODING 110
SWIDTH 578 0
DWIDTH 10 0
BBX 11 13 0 0
BITMAP
000011100000
05CDBBBD9100
6FC15552EC00
EFC4FFF4CF50
FFC4FFF4CF60
FFC4FFF4CF70
FFC4FFF4CF70
FFC4FFF4CF70
FFC4FFF4CF70
FFFFFFFFFF60
DFFFFFFFFF40
5FFFFFFFFB00
05CFFFFD8100
ENDCHAR
STARTCHAR o
ENCODING 111
SWIDTH 578 0
DWIDTH 10 0
BBX 11 13 0 0
BITMAP
000011100000
05DEBBBC9100
6FE24552CC00
EFD3FFF69F50
FFD3FFF79F60
FFD3FFF79F70
FFD3FFF79F70
FFD3FFF6AF70
FFF31112DF70
FFFFFFFFFF60
DFFFFFFFFF40
5FFFFFFFFB00
05CFFFFD8100
ENDCHAR
STARTCHAR p
ENCODING 112
SWIDTH 578 0
DWIDTH 10 0
BBX 11 13 0 0
BITMAP
000011100000
05DCBBBD9100
6FF54542EC00
EFF5CFF3CF50
FFF5CFF3CF60
FFF56871EF70
FFF5799CFF70
FFF5CFFFFF70
FFF5CFFFFF70
FFFFFFFFFF60
DFFFFFFFFF40
5FFFFFFFFB00
05CFFFFD8100
ENDCHAR
STARTCHAR q
ENCODING 113
SWIDTH 578 0
DWIDTH 10 0
BBX 11 13 0 0
BITMAP
000011100000
05DEBBBC9100
6FF24552CC00
EFD3FFF79F50
FFD3FFF79F60
FFD3FFF79F70
FFD3FFF79F70
FFE3F8B69F70
FFF31112DF70
FFFFFF4BFF60
DFFFFFDEFF40
5FFFFFFFFB00
05CFFFFD8100
ENDCHAR
STARTCHAR r
ENCODING 114
SWIDTH 578 0
DWIDTH 10 0
BBX 11 13 0 0
BITMAP
000011100000
05DBBBCE9100
6FF15536FC00
EFF1FFE2FF50
FFF1FFD3FF60
FFF1222BFF70
FFF1EEB3FF70
FFF1FFF1FF70
FFF1FFF1FF70
FFFFFFFFFF60
DFFFFFFFFF40
5FFFFFFFFB00
05CFFFFD8100
ENDCHAR
STARTCHAR s
ENCODING 115
SWIDTH 578 0
DWIDTH 10 0
BBX 11 13 0 0
BITMAP
000011100000
05DECBBC9100
6FF44555FC00
EFF1FFFFFF50
FFF1CDDEFF60
FFF94332EF70
FFFFFFF4CF70
FFFFFFF4CF70
FFF71113EF70
FFFFFFFFFF60
DFFFFFFFFF40
5FFFFFFFFB00
05CFFFFD8100
ENDCHAR
STARTCHAR t
ENCODING 116
SWIDTH 578 0
DWIDTH 10 0
BBX 11 13 0 0
BITMAP
000011100000
05DCBBBA8100
6FF65145DC00
EFFFF3DFFF50
FFFFF3DFFF60
FFFFF3DFFF70
FFFFF3DFFF70
FFFFF3DFFF70
FFFFF3DFFF70
FFFFFFFFFF60
DFFFFFFFFF40
5FFFFFFFFB00
05CFFFFD8100
ENDCHAR
STARTCHAR u
ENCODING 117
SWIDTH 578 0
DWIDTH 10 0
BBX 11 13 0 0
BITMAP
000011100000
05CCFFFC7100
6FC4FFF6AC00
EFC4FFF6AF50
FFC4FFF6AF60
FFC4FFF6AF70
FFC4FFF6AF70
FFC4FFF5BF70
FFE31112EF70
FFFFFFFFFF60
DFFFFFFFFF40
5FFFFFFFFB00
05CFFFFD8100
ENDCHAR
STARTCHAR v
ENCODING 118
SWIDTH 578 0
DWIDTH 10 0
BBX 11 13 0 0
BITMAP
000011100000
05CDFFFC8100
6FD1FFF2CC00
EFF2CFD1FF50
FFF68FA5FF60
FFFA5F69FF70
FFFE1F2DFF70
FFFF3A2FFF70
FFFF918FFF70
FFFFFFFFFF60
DFFFFFFFFF40
5FFFFFFFFB00
05CFFFFD8100
ENDCHAR
STARTCHAR w
ENCODING 119
SWIDTH 578 0
DWIDTH 10 0
BBX 11 13 0 0
BITMAP
000011100000
05AFFFFE6100
6F0FE1FD2C00
EF1EB0DC3F50
FF3C91AA5F60
FF5B65897F70
FF6939578F70
FF881D36AF70
FFC15F32DF70
FFFFFFFFFF60
DFFFFFFFFF40
5FFFFFFFFB00
05CFFFFD8100
ENDCHAR
STARTCHAR x
ENCODING 120
SWIDTH 578 0
DWIDTH 10 0
BBX 11 13 0 0
BITMAP
000011100000
05DDFFFD8100
6FF2CFF3CC00
EFFB3F86FF50
FFFF572EFF60
FFFFB06FFF70
FFFF392DFF70
FFF95F94FF70
FFF3EFF4CF70
FFFFFFFFFF60
DFFFFFFFFF40
5FFFFFFFFB00
05CFFFFD8100
ENDCHAR
STARTCHAR y
ENCODING 121
SWIDTH 578 0
DWIDTH 10 0
BBX 11 13 0 0
BITMAP
000011100000
05DBFFFB8100
6FF4AFD1EC00
EFFA4F77FF50
FFFF2D2DFF60
FFFF835FFF70
FFFFE0BFFF70
FFFFF2EFFF70
FFFFF2EFFF70
FFFFFFFFFF60
DFFFFFFFFF40
5FFFFFFFFB00
05CFFFFD8100
ENDCHAR
STARTCHAR z
ENCODING 122
SWIDTH 578 0
DWIDTH 10 0
BBX 11 13 0 0
BITMAP
000011100000
05DDBBBD9100
6FF95528FC00
EFFFFE2EFF50
FFFFF68FFF60
FFFFD2FFFF70
FFFF4AFFFF70
FFFB3FFFFF70
FFF71225FF70
FFFFFFFFFF60
DFFFFFFFFF40
5FFFFFFFFB00
05CFFFFD8100
ENDCHAR
STARTCHAR braceleft
ENCODING 123
SWIDTH 484 0
DWIDTH 9 0
BBX 9 13 0 0
BITMAP
0000100000
05DD99B300
6FF469FE20
EFF3EFFF90
FFF3EFFFB0
F931FFFFC0
FDC1EFFFC0
FFF3DFFFC0
FFF3CFFFC0
FFF923FFB0
DFFFFFFF90
5FFFFFFE20
05CFFEA200
ENDCHAR
STARTCHAR bar
ENCODING 124
SWIDTH 484 0
DWIDTH 9 0
BBX 9 12 0 0
BITMAP
05DF4FB300
6FFF4FFE20
EFFF4FFF90
FFFF4FFFB0
FFFF4FFFC0
FFFF4FFFC0
FFFF4FFFC0
FFFF4FFFC0
FFFF8FFFB0
DFFFFFFF90
5FFFFFFE20
05CFFEA200
ENDCHAR
STARTCHAR braceright
ENCODING 125
SWIDTH 484 0
DWIDTH 9 0
BBX 9 13 0 0
BITMAP
0000100000
05C89EB300
6FE848FE20
EFFFA7FF90
FFFFA7FFB0
FFFFC14CC0
FFFFA4CEC0
FFFF97FFC0
FFFF87FFC0
FFE12CFFB0
DFFFFFFF90
5FFFFFFE20
05CFFEA200
ENDCHAR
STARTCHAR asciitilde
ENCODING 126
SWIDTH 578 0
DWIDTH 10 0
BBX 11 13 0 0
BITMAP
000011100000
05DFFFFE9100
6FFFFFFFFC00
EFFEEFFBFF50
FFD13263FF60
FFEBFDADFF70
FFFFFFFFFF70
FFFFFFFFFF70
FFFFFFFFFF70
FFFFFFFFFF60
DFFFFFFFFF40
5FFFFFFFFB00
05CFFFFD8100
ENDCHAR
STARTCHAR uni00A0
ENCODING 160
SWIDTH 151 0
DWIDTH 3 0
BBX 1 1 0 0
BITMAP
00
ENDCHAR
STARTCHAR exclamdown
ENCODING 161
SWIDTH 424 0
DWIDTH 8 0
BBX 8 12 0 0
BITMAP
05DDDA20
6FF9BFE1
EFFCCFF8
FFF9AFFA
FFF9AFFA
FFF9AFFA
FFF9AFFA
FFF9AFFA
FFFEEFFA
DFFFFFF8
6FFFFFE1
05CFEA20
ENDCHAR
STARTCHAR cent
ENCODING 162
SWIDTH 578 0
DWIDTH 10 0
BBX 11 13 0 0
BITMAP
000011100000
05DFF8FE9100
6FFEA3AEFC00
EFF5526DFF50
FFF3D4FFFF60
FFF3D4FFFF70
FFF3D4FFFF70
FFF393BEFF70
FFFB515DFF70
FFFFF5FFFF60
DFFFFFFFFF40
5FFFFFFFFB00
05CFFFFD8100
ENDCHAR
STARTCHAR sterling
ENCODING 163
SWIDTH 578 0
DWIDTH 10 0
BBX 11 13 0 0
BITMAP
000011100000
05DFECDE9100
6FFD252AFC00
EFFC4F99FF50
FFFC4FFFFF60
FFF5155FFF70
FFFC4FFFFF70
FFFC4FFFFF70
FFFC0119FF70
FFFFFFFFFF60
DFFFFFFFFF40
5FFFFFFFFB00
05CFFFFD8100
ENDCHAR
STARTCHAR currency
ENCODING 164
SWIDTH 578 0
DWIDTH 10 0
BBX 11 13 0 0
BITMAP
000011100000
05DEFFFD9100
6FF37673EC00
EFF79CA5FF50
FFF6CFD5FF60
FFF6CFD5FF70
FFF63534FF70
FFF7EDE8EF70
FFFFFFFFFF70
FFFFFFFFFF60
DFFFFFFFFF40
5FFFFFFFFB00
05CFFFFD8100
ENDCHAR
STARTCHAR yen
ENCODING 165
SWIDTH 578 0
DWIDTH 10 0
BBX 11 13 0 0
BITMAP
000011100000
05BCFFEB9100
6FE1EF95FC00
EFF59F3BFF50
FFFC3C3FFF60
FFFF339FFF70
FFFA204EFF70
FFFA314EFF70
FFFFC4FFFF70
FFFFFFFFFF60
DFFFFFFFFF40
5FFFFFFFFB00
05CFFFFD8100
ENDCHAR
STARTCHAR brokenbar
ENCODING 166
SWIDTH 484 0
DWIDTH 9 0
BBX 9 13 0 0
BITMAP
0000100000
05DFCFB300
6FFE2FFE20
EFFE2FFF90
FFFE5FFFB0
FFFFCFFFC0
FFFE2FFFC0
FFFE2FFFC0
FFFE2FFFC0
FFFFFFFFB0
DFFFFFFF90
5FFFFFFE20
05CFFEA200
ENDCHAR
STARTCHAR section
ENCODING 167
SWIDTH 578 0
DWIDTH 10 0
BBX 11 13 0 0
BITMAP
000011100000
05DFDDDD9100
6FF56667FC00
EFF4FFFFFF50
FFF7348FFF60
FFFC7F3FFF70
FFFD372EFF70
FFFFECA6FF70
FFFFFFD6FF70
FFF4444BFF60
DFFFFFFFFF40
5FFFFFFFFB00
05CFFFFD8100
ENDCHAR
STARTCHAR dieresis
ENCODING 168
SWIDTH 388 0
DWIDTH 7 0
BBX 7 6 0 0
BITMAP
00121000
2AFFFA10
BFFFFFB0
FB3F1DF0
CEDFCFC0
29AAA920
ENDCHAR
STARTCHAR copyright
ENCODING 169
SWIDTH 578 0
DWIDTH 10 0
BBX 11 13 0 0
BITMAP
000011100000
05DFDBDE9100
6FD58A86EC00
EE5D555D5F50
F8CB9FFFAA60
F6FB9FFFE770
F6FB9FFFE770
F9AC6BAF8C70
FF5CBAAA7F70
FFF86669FF60
DFFFFFFFFF40
5FFFFFFFFB00
05CFFFFD8100
ENDCHAR
STARTCHAR ordfeminine
ENCODING 170
SWIDTH 578 0
DWIDTH 10 0
BBX 11 13 0 0
BITMAP
000011100000
05DFCBCE9100
6FFE4537FC00
EFFFFFC4FF50
FFFD7764FF60
FFF57974FF70
FFF49C95FF70
FFFB444BFF70
FFFFFFFFFF70
FFFFFFFFFF60
DFFFFFFFFF40
5FFFFFFFFB00
05CFFFFD8100
ENDCHAR
STARTCHAR guillemotleft
ENCODING 171
SWIDTH 578 0
DWIDTH 10 0
BBX 11 13 0 0
BITMAP
000011100000
05DFFFFE9100
6FFFEEEDFC00
EFFF6E7DFF50
FFF9B9AFFF60
FFD6D7FFFF70
FFD6D7FFFF70
FFF9BAAFFF70
FFFF6E7DFF70
FFFFEEFDFF60
DFFFFFFFFF40
5FFFFFFFFB00
05CFFFFD8100
ENDCHAR
STARTCHAR uni00AD
ENCODING 173
SWIDTH 428 0
DWIDTH 8 0
BBX 8 12 0 0
BITMAP
05DFFB30
6FFFFFE2
EFFFFFF9
FF4118FB
FFFFFFFB
FFFFFFFB
FFFFFFFB
FFFFFFFB
FFFFFFFB
DFFFFFF9
5FFFFFE2
05CFEA20
ENDCHAR
STARTCHAR registered
ENCODING 174
SWIDTH 578 0
DWIDTH 10 0
BBX 11 13 0 0
BITMAP
000011100000
05DFDBDE9100
6FD58A86EC00
EE5C555D5F50
F8CC8F8CAA60
F6FC596EE770
F6FC6B6DE770
F9AC8F9B8C70
FF5BDFD97F70
FFF86669FF60
DFFFFFFFFF40
5FFFFFFFFB00
05CFFFFD8100
ENDCHAR
STARTCHAR macron
ENCODING 175
SWIDTH 428 0
DWIDTH 8 0
BBX 8 6 0 0
BITMAP
00132000
1AFFFE70
BFFFFFF6
FF433BFB
CFDDDEF8
3EFFFFC1
ENDCHAR
STARTCHAR degree
ENCODING 176
SWIDTH 428 0
DWIDTH 8 0
BBX 8 12 0 0
BITMAP
05DEEB30
6F743BE2
EF4EA8F9
FFA33DFB
FFFFFFFB
FFFFFFFB
FFFFFFFB
FFFFFFFB
FFFFFFFB
DFFFFFF9
5FFFFFE2
05CFEA20
ENDCHAR
STARTCHAR plusminus
ENCODING 177
SWIDTH 428 0
DWIDTH 8 0
BBX 8 12 0 0
BITMAP
05DDDB30
6FF79FE2
ED7347E9
FE9469EB
FFF79FFB
FFDBBDFB
FF6449FB
FFFFFFFB
FFFFFFFB
DFFFFFF9
5FFFFFE2
05CFEA20
ENDCHAR
STARTCHAR uni00B2
ENCODING 178
SWIDTH 578 0
DWIDTH 10 0
BBX 11 13 0 0
BITMAP
000011100000
05DFCBEE9100
6FFA242DFC00
EFFDBA2CFF50
FFF926AFFF60
FFF7589FFF70
FFFD889FFF70
FFFFFFFFFF70
FFFFFFFFFF70
FFFFFFFFFF60
DFFFFFFFFF40
5FFFFFFFFB00
05CFFFFD8100
ENDCHAR
STARTCHAR uni00B3
ENCODING 179
SWIDTH 578 0
DWIDTH 10 0
BBX 11 13 0 0
BITMAP
000011100000
05DFDBCE9100
6FFC2536FC00
EFFFEA84FF50
FFFFF974FF60
FFFA3864FF70
FFFFA88DFF70
FFFFFFFFFF70
FFFFFFFFFF70
FFFFFFFFFF60
DFFFFFFFFF40
5FFFFFFFFB00
05CFFFFD8100
ENDCHAR
STARTCHAR acute
ENCODING 180
SWIDTH 308 0
DWIDTH 6 0
BBX 6 6 0 0
BITMAP
0AFFA1
4FBBF7
9F4CF6
DE4FC0
FECF40
6CC900
ENDCHAR
STARTCHAR uni00B5
ENCODING 181
SWIDTH 578 0
DWIDTH 10 0
BBX 11 13 0 0
BITMAP
000011100000
05BDFFFB8100
6F98FFF2EC00
EF98FFF2EF50
FF98FFF2EF60
FF98FFF2EF70
FF98FFF2EF70
FF97FFF2EF70
FF911114FF70
FF98FFFFFF60
DFEEFFFFFF40
5FFFFFFFFB00
05CFFFFD8100
ENDCHAR
STARTCHAR paragraph
ENCODING 182
SWIDTH 578 0
DWIDTH 10 0
BBX 11 13 0 0
BITMAP
000011100000
05DFEEED9100
6FE10067FC00
EFC000D7FF50
FFC000D7FF60
FFF853D7FF70
FFFFF9D7FF70
FFFFF9D7FF70
FFFFFAD8FF70
FFFFFFFFFF60
DFFFFFFFFF40
5FFFFFFFFB00
05CFFFFD8100
ENDCHAR
STARTCHAR periodcentered
ENCODING 183
SWIDTH 428 0
DWIDTH 8 0
BBX 8 12 0 0
BITMAP
05DFFB30
6FFFFFE2
EFFFFFF9
FFF48FFB
FFFEEFFB
FFFFFFFB
FFFFFFFB
FFFFFFFB
FFFFFFFB
DFFFFFF9
5FFFFFE2
05CFEA20
ENDCHAR
STARTCHAR cedilla
ENCODING 184
SWIDTH 101 0
DWIDTH 2 0
BBX 2 3 0 -3
BITMAP
8B
C1
79
ENDCHAR
STARTCHAR uni00B9
ENCODING 185
SWIDTH 578 0
DWIDTH 10 0
BBX 11 13 0 0
BITMAP
000011100000
05DFEBFE9100
6FFD21FFFC00
EFFFF1FFFF50
FFFFF1FFFF60
FFFFF1FFFF70
FFFFF8FFFF70
FFFFFFFFFF70
FFFFFFFFFF70
FFFFFFFFFF60
DFFFFFFFFF40
5FFFFFFFFB00
05CFFFFD8100
ENDCHAR
STARTCHAR ordmasculine
ENCODING 186
SWIDTH 578 0
DWIDTH 10 0
BBX 11 13 0 0
BITMAP
000011100000
05DFCBBD9100
6FF63542EC00
EFF3DFF3CF50
FFF3DFF4CF60
FFF3DFF4CF70
FFF3ACC2DF70
FFFB4447FF70
FFFFFFFFFF70
FFFFFFFFFF60
DFFFFFFFFF40
5FFFFFFFFB00
05CFFFFD8100
ENDCHAR
STARTCHAR guillemotright
ENCODING 187
SWIDTH 578 0
DWIDTH 10 0
BBX 11 13 0 0
BITMAP
000011100000
05DFFFFE9100
6FFDFDFFFC00
EFF6D7DFFF50
FFFE5E5FFF60
FFFFC7C7FF70
FFFFC8C7FF70
FFFE6E5FFF70
FFF6E7DFFF70
FFFDFDFFFF60
DFFFFFFFFF40
5FFFFFFFFB00
05CFFFFD8100
ENDCHAR
STARTCHAR onequarter
ENCODING 188
SWIDTH 578 0
DWIDTH 10 0
BBX 11 13 0 0
BITMAP
000011100000
05ADFBFE9100
6619D3FFFC00
EF7996FFFF50
FF7969EFDF60
FF79287D4F70
FFBA297D4F70
FFFA6B372A70
FFF6AF962870
FFFFFFFD5F60
DFFFFFFFFF40
5FFFFFFFFB00
05CFFFFD8100
ENDCHAR
STARTCHAR onehalf
ENCODING 189
SWIDTH 578 0
DWIDTH 10 0
BBX 11 13 0 0
BITMAP
000011100000
05ADFBFE9100
6619D3FFFC00
EF7996FFFF50
FF796A646E60
FF792B6C5970
FFBA2E732C70
FFFA6B4DFF70
FFF6AC111E70
FFFFFFFFFF60
DFFFFFFFFF40
5FFFFFFFFB00
05CFFFFD8100
ENDCHAR
STARTCHAR threequarters
ENCODING 190
SWIDTH 578 0
DWIDTH 10 0
BBX 11 13 0 0
BITMAP
000011100000
05ADFBFE9100
6619D3FFFC00
EF7996FFFF50
FF7969655C60
FF792A8B9470
FFBA2FF42670
FFFA6CBFC470
FFF6AC121870
FFFFFFFFFF60
DFFFFFFFFF40
5FFFFFFFFB00
05CFFFFD8100
ENDCHAR
STARTCHAR questiondown
ENCODING 191
SWIDTH 578 0
DWIDTH 10 0
BBX 11 13 0 0
BITMAP
000011100000
05DFFDEE9100
6FFFFACFFC00
EFFFF8CFFF50
FFFE94BFFF60
FFF59AFFFF70
FFF4FFFFFF70
FFF4EFF7FF70
FFFB4337FF70
FFFFFFFFFF60
DFFFFFFFFF40
5FFFFFFFFB00
05CFFFFD8100
ENDCHAR
STARTCHAR Agrave
ENCODING 192
SWIDTH 578 0
DWIDTH 10 0
BBX 11 17 0 0
BITMAP
008EFC200000
04FD9F800000
02FF2FD00000
009F8BF20000
001EFDF30000
05DFFFFE9100
6FF63536FC00
EFF3DFC3FF50
FFF1EFE2FF60
FFF08870FF70
FFD2AAA1DF70
FFB4FFF3CF70
FFA5FFF5AF70
FFFFFFFFFF60
DFFFFFFFFF40
5FFFFFFFFB00
05CFFFFD8100
ENDCHAR
STARTCHAR Aacute
ENCODING 193
SWIDTH 578 0
DWIDTH 10 0
BBX 11 17 0 0
BITMAP
00007EFC3000
0001FD9FB000
0005F88FA000
0009F5EF2000
000BFCF80000
05DFFFFF9100
6FF63536FC00
EFF3DFC3FF50
FFF1EFE2FF60
FFF08870FF70
FFD2AAA1DF70
FFB4FFF3CF70
FFA5FFF5AF70
FFFFFFFFFF60
DFFFFFFFFF40
5FFFFFFFFB00
05CFFFFD8100
ENDCHAR
STARTCHAR Acircumflex
ENCODING 194
SWIDTH 578 0
DWIDTH 10 0
BBX 11 18 0 0
BITMAP
000046300000
0005FFF40000
000DE5FB0000
004F98AF2000
009F5F5F8000
00BFDFDF9000
05FFFFFFC100
6FF63536FC00
EFF3DFC3FF50
FFF1EFE2FF60
FFF08870FF70
FFD2AAA1DF70
FFB4FFF3CF70
FFA5FFF5AF70
FFFFFFFFFF60
DFFFFFFFFF40
5FFFFFFFFB00
05CFFFFD8100
ENDCHAR
STARTCHAR Atilde
ENCODING 195
SWIDTH 578 0
DWIDTH 10 0
BBX 11 18 0 0
BITMAP
0005ACA40000
008FFFFF8000
03FFFFFFF200
06FDAEBDF500
04F7752DF300
00AFFFFF9000
05DFCBDE9100
6FF63536FC00
EFF3DFC3FF50
FFF1EFE2FF60
FFF08870FF70
FFD2AAA1DF70
FFB4FFF3CF70
FFA5FFF5AF70
FFFFFFFFFF60
DFFFFFFFFF40
5FFFFFFFFB00
05CFFFFD8100
ENDCHAR
STARTCHAR Adieresis
ENCODING 196
SWIDTH 578 0
DWIDTH 10 0
BBX 11 17 0 0
BITMAP
000012100000
002BFFFA1000
00BFFFFFB000
00FB3F1DE000
00CEDFDFB000
05FFFFFFB100
6FF63536FC00
EFF3DFC3FF50
FFF1EFE2FF60
FFF08870FF70
FFD2AAA1DF70
FFB4FFF3CF70
FFA5FFF5AF70
FFFFFFFFFF60
DFFFFFFFFF40
5FFFFFFFFB00
05CFFFFD8100
ENDCHAR
STARTCHAR Aring
ENCODING 197
SWIDTH 578 0
DWIDTH 10 0
BBX 11 18 0 0
BITMAP
000179600000
002EFFFC0000
00AF446F7000
00ED6F4FA000
00DF648F9000
007FFFFF4000
05DFCBDE9100
6FF63536FC00
EFF3DFC3FF50
FFF1EFE2FF60
FFF08870FF70
FFD2AAA1DF70
FFB4FFF3CF70
FFA5FFF5AF70
FFFFFFFFFF60
DFFFFFFFFF40
5FFFFFFFFB00
05CFFFFD8100
ENDCHAR
STARTCHAR AE
ENCODING 198
SWIDTH 578 0
DWIDTH 10 0
BBX 11 13 0 0
BITMAP
000011100000
05DEBBBA7100
6FE25055CC00
EFC4F1FFFF50
FFA6F1DDEF60
FF97F133BF70
FF78D1FFFF70
FF5230FFFF70
FF4CF111BF70
FFFFFFFFFF60
DFFFFFFFFF40
5FFFFFFFFB00
05CFFFFD8100
ENDCHAR
STARTCHAR Ccedilla
ENCODING 199
SWIDTH 578 0
DWIDTH 10 0
BBX 11 13 0 0
BITMAP
000011100000
05DDBBCD9100
6FD2555BFC00
EFB5FFFFFF50
FFB5FFFFFF60
FFB5FFFFFF70
FFB5FFFFFF70
FFB4FFFFFF70
FFE2111AFF70
FFFF74FFFF60
DFFF2EFFFF40
5FFF75FFFB00
05CFFFFD8100
ENDCHAR
STARTCHAR Egrave
ENCODING 200
SWIDTH 578 0
DWIDTH 10 0
BBX 11 17 0 0
BITMAP
006DFD300000
01FE8FB00000
00EF3DF10000
006FA9F40000
000DFCF60000
05DFFFFC9100
6FF83556FC00
EFF88FFFFF50
FFF88EEFFF60
FFF8122AFF70
FFF88FFFFF70
FFF88FFFFF70
FFF81112FF70
FFFFFFFFFF60
DFFFFFFFFF40
5FFFFFFFFB00
05CFFFFD8100
ENDCHAR
STARTCHAR Eacute
ENCODING 201
SWIDTH 578 0
DWIDTH 10 0
BBX 11 17 0 0
BITMAP
00005EFD5000
0000DF8FE000
0003FB6FC000
0007F6CF4000
0008FCFA0000
05DFFFFD9100
6FF83556FC00
EFF88FFFFF50
FFF88EEFFF60
FFF8122AFF70
FFF88FFFFF70
FFF88FFFFF70
FFF81112FF70
FFFFFFFFFF60
DFFFFFFFFF40
5FFFFFFFFB00
05CFFFFD8100
ENDCHAR
STARTCHAR Ecircumflex
ENCODING 202
SWIDTH 578 0
DWIDTH 10 0
BBX 11 18 0 0
BITMAP
000036400000
0003FFF60000
000AF6DD0000
002FB88F5000
007F6E5FA000
009FDFDFC000
05FFFFFFD100
6FF83556FC00
EFF88FFFFF50
FFF88EEFFF60
FFF8122AFF70
FFF88FFFFF70
FFF88FFFFF70
FFF81112FF70
FFFFFFFFFF60
DFFFFFFFFF40
5FFFFFFFFB00
05CFFFFD8100
ENDCHAR
STARTCHAR Edieresis
ENCODING 203
SWIDTH 578 0
DWIDTH 10 0
BBX 11 17 0 0
BITMAP
000002100000
0019FFFB2000
009FFFFFD000
00DD1F3BF200
00AFDFDEE000
05EFFFFFC100
6FF83556FC00
EFF88FFFFF50
FFF88EEFFF60
FFF8122AFF70
FFF88FFFFF70
FFF88FFFFF70
FFF81112FF70
FFFFFFFFFF60
DFFFFFFFFF40
5FFFFFFFFB00
05CFFFFD8100
ENDCHAR
STARTCHAR Igrave
ENCODING 204
SWIDTH 578 0
DWIDTH 10 0
BBX 11 17 0 0
BITMAP
006DFD400000
01FF8FC00000
00DF4CF10000
005FB8F50000
000CFCF70000
05DFFFFB8100
6FF65145DC00
EFFFF3DFFF50
FFFFF3DFFF60
FFFFF3DFFF70
FFFFF3DFFF70
FFFFF3DFFF70
FFF31011CF70
FFFFFFFFFF60
DFFFFFFFFF40
5FFFFFFFFB00
05CFFFFD8100
ENDCHAR
STARTCHAR Iacute
ENCODING 205
SWIDTH 578 0
DWIDTH 10 0
BBX 11 17 0 0
BITMAP
00004EFD5000
0000CF8FF000
0002FC5FD000
0006F7BF5000
0008FCFB0000
05DDFFFD8100
6FF65145DC00
EFFFF3DFFF50
FFFFF3DFFF60
FFFFF3DFFF70
FFFFF3DFFF70
FFFFF3DFFF70
FFF31011CF70
FFFFFFFFFF60
DFFFFFFFFF40
5FFFFFFFFB00
05CFFFFD8100
ENDCHAR
STARTCHAR Icircumflex
ENCODING 206
SWIDTH 578 0
DWIDTH 10 0
BBX 11 18 0 0
BITMAP
000026400000
0002EFF70000
0009F7DE1000
001EC77F6000
006F7D5FB000
008FDFEED000
05FFFFFFD100
6FF65145DC00
EFFFF3DFFF50
FFFFF3DFFF60
FFFFF3DFFF70
FFFFF3DFFF70
FFFFF3DFFF70
FFF31011CF70
FFFFFFFFFF60
DFFFFFFFFF40
5FFFFFFFFB00
05CFFFFD8100
ENDCHAR
STARTCHAR Idieresis
ENCODING 207
SWIDTH 578 0
DWIDTH 10 0
BBX 11 17 0 0
BITMAP
000002100000
0009FFFC3000
008FFFFFE100
00BE1E49F300
009FDFDEE100
05DFFFFFC100
6FF65145DC00
EFFFF3DFFF50
FFFFF3DFFF60
FFFFF3DFFF70
FFFFF3DFFF70
FFFFF3DFFF70
FFF31011CF70
FFFFFFFFFF60
DFFFFFFFFF40
5FFFFFFFFB00
05CFFFFD8100
ENDCHAR
STARTCHAR Eth
ENCODING 208
SWIDTH 578 0
DWIDTH 10 0
BBX 11 13 0 0
BITMAP
000011100000
05CBBBBC9100
6FD15552CC00
EFD3FFF79F50
FFD3FFF79F60
FF81BFF79F70
FFD3FFF79F70
FFD3FFF69F70
FFD01112DF70
FFFFFFFFFF60
DFFFFFFFFF40
5FFFFFFFFB00
05CFFFFD8100
ENDCHAR
STARTCHAR Ntilde
ENCODING 209
SWIDTH 578 0
DWIDTH 10 0
BBX 11 18 0 0
BITMAP
0006BC930000
00BFFFFF5000
06FFFFFFE000
09FCAE9EF200
07F5842FE100
01DFFFFF6000
05CDBBBD9100
6FC15552EC00
EFC4FFF4CF50
FFC4FFF4CF60
FFC4FFF4CF70
FFC4FFF4CF70
FFC4FFF4CF70
FFC4FFF4CF70
FFFFFFFFFF60
DFFFFFFFFF40
5FFFFFFFFB00
05CFFFFD8100
ENDCHAR
STARTCHAR Ograve
ENCODING 210
SWIDTH 578 0
DWIDTH 10 0
BBX 11 17 0 0
BITMAP
007EFD300000
02FE8FA00000
01EF3EE00000
007F9AF30000
000DFCF50000
05DFFFFD9100
6FE24552CC00
EFD3FFF69F50
FFD3FFF79F60
FFD3FFF79F70
FFD3FFF79F70
FFD3FFF6AF70
FFF31112DF70
FFFFFFFFFF60
DFFFFFFFFF40
5FFFFFFFFB00
05CFFFFD8100
ENDCHAR
STARTCHAR Oacute
ENCODING 211
SWIDTH 578 0
DWIDTH 10 0
BBX 11 17 0 0
BITMAP
00005EFD4000
0000EE8FD000
0003FA6FB000
0008F6DF4000
0009FCFA0000
05DFFFFE9100
6FE24552CC00
EFD3FFF69F50
FFD3FFF79F60
FFD3FFF79F70
FFD3FFF79F70
FFD3FFF6AF70
FFF31112DF70
FFFFFFFFFF60
DFFFFFFFFF40
5FFFFFFFFB00
05CFFFFD8100
ENDCHAR
STARTCHAR Ocircumflex
ENCODING 212
SWIDTH 578 0
DWIDTH 10 0
BBX 11 18 0 0
BITMAP
000036400000
0004FFF50000
000BF5ED0000
002FB89F4000
008F5F5F9000
009FDFDFB000
05FFFFFFD100
6FE24552CC00
EFD3FFF69F50
FFD3FFF79F60
FFD3FFF79F70
FFD3FFF79F70
FFD3FFF6AF70
FFF31112DF70
FFFFFFFFFF60
DFFFFFFFFF40
5FFFFFFFFB00
05CFFFFD8100
ENDCHAR
STARTCHAR Otilde
ENCODING 213
SWIDTH 578 0
DWIDTH 10 0
BBX 11 18 0 0
BITMAP
0004ACA50000
007FFFFFA000
01FFFFFFF400
04FEADCCF700
02F9652BF500
009FFFFFB000
05DEBBBC9100
6FE24552CC00
EFD3FFF69F50
FFD3FFF79F60
FFD3FFF79F70
FFD3FFF79F70
FFD3FFF6AF70
FFF31112DF70
FFFFFFFFFF60
DFFFFFFFFF40
5FFFFFFFFB00
05CFFFFD8100
ENDCHAR
STARTCHAR Odieresis
ENCODING 214
SWIDTH 578 0
DWIDTH 10 0
BBX 11 17 0 0
BITMAP
000002100000
001AFFFB2000
00AFFFFFC000
00DC1F2BF100
00AFDFDED000
05EFFFFFC100
6FE24552CC00
EFD3FFF69F50
FFD3FFF79F60
FFD3FFF79F70
FFD3FFF79F70
FFD3FFF6AF70
FFF31112DF70
FFFFFFFFFF60
DFFFFFFFFF40
5FFFFFFFFB00
05CFFFFD8100
ENDCHAR
STARTCHAR multiply
ENCODING 215
SWIDTH 578 0
DWIDTH 10 0
BBX 11 13 0 0
BITMAP
000011100000
05DFFFFE9100
6FFFFFFFFC00
EFFFCFCFFF50
FFFF474EFF60
FFFFB19FFF70
FFFF5E5EFF70
FFFFFFFFFF70
FFFFFFFFFF70
FFFFFFFFFF60
DFFFFFFFFF40
5FFFFFFFFB00
05CFFFFD8100
ENDCHAR
STARTCHAR Oslash
ENCODING 216
SWIDTH 578 0
DWIDTH 10 0
BBX 11 13 0 0
BITMAP
000011100000
05DDBBBC9100
6FD25531DC00
EFB5FF42BF50
FFB5F975BF60
FFB5D3F5BF70
FFB54BF5BF70
FFC16FF5BF70
FFE31113EF70
FFFFFFFFFF60
DFFFFFFFFF40
5FFFFFFFFB00
05CFFFFD8100
ENDCHAR
STARTCHAR Ugrave
ENCODING 217
SWIDTH 578 0
DWIDTH 10 0
BBX 11 17 0 0
BITMAP
006DFD300000
01FE8FB00000
00EF3DF10000
006FA9F40000
000DFCF60000
05CFFFFD7100
6FC4FFF6AC00
EFC4FFF6AF50
FFC4FFF6AF60
FFC4FFF6AF70
FFC4FFF6AF70
FFC4FFF5BF70
FFE31112EF70
FFFFFFFFFF60
DFFFFFFFFF40
5FFFFFFFFB00
05CFFFFD8100
ENDCHAR
STARTCHAR Uacute
ENCODING 218
SWIDTH 578 0
DWIDTH 10 0
BBX 11 17 0 0
BITMAP
00005EFD5000
0000DF8FE000
0003FB6FC000
0007F6CF4000
0008FCFA0000
05CEFFFE7100
6FC4FFF6AC00
EFC4FFF6AF50
FFC4FFF6AF60
FFC4FFF6AF70
FFC4FFF6AF70
FFC4FFF5BF70
FFE31112EF70
FFFFFFFFFF60
DFFFFFFFFF40
5FFFFFFFFB00
05CFFFFD8100
ENDCHAR
STARTCHAR Ucircumflex
ENCODING 219
SWIDTH 578 0
DWIDTH 10 0
BBX 11 18 0 0
BITMAP
000036400000
0003FFF60000
000AF6DD0000
002FB88F5000
007F6E5FA000
009FDFDFC000
05FFFFFFC100
6FC4FFF6AC00
EFC4FFF6AF50
FFC4FFF6AF60
FFC4FFF6AF70
FFC4FFF6AF70
FFC4FFF5BF70
FFE31112EF70
FFFFFFFFFF60
DFFFFFFFFF40
5FFFFFFFFB00
05CFFFFD8100
ENDCHAR
STARTCHAR Udieresis
ENCODING 220
SWIDTH 578 0
DWIDTH 10 0
BBX 11 17 0 0
BITMAP
000002100000
0019FFFB2000
009FFFFFD000
00DD1F3BF200
00AFDFDEE000
05DFFFFFB100
6FC4FFF6AC00
EFC4FFF6AF50
FFC4FFF6AF60
FFC4FFF6AF70
FFC4FFF6AF70
FFC4FFF5BF70
FFE31112EF70
FFFFFFFFFF60
DFFFFFFFFF40
5FFFFFFFFB00
05CFFFFD8100
ENDCHAR
STARTCHAR Yacute
ENCODING 221
SWIDTH 578 0
DWIDTH 10 0
BBX 11 17 0 0
BITMAP
00005EFD4000
0000DE8FE000
0003FA6FC000
0007F6DF4000
0009FCFA0000
05DDFFFD8100
6FF4AFD1EC00
EFFA4F77FF50
FFFF2D2DFF60
FFFF835FFF70
FFFFE0BFFF70
FFFFF2EFFF70
FFFFF2EFFF70
FFFFFFFFFF60
DFFFFFFFFF40
5FFFFFFFFB00
05CFFFFD8100
ENDCHAR
STARTCHAR Thorn
ENCODING 222
SWIDTH 578 0
DWIDTH 10 0
BBX 11 13 0 0
BITMAP
000011100000
05DADFFE9100
6FF5CFFFFC00
EFF51114FF50
FFF5CFF3DF60
FFF5CFF3DF70
FFF51114FF70
FFF5CFFFFF70
FFF5CFFFFF70
FFFFFFFFFF60
DFFFFFFFFF40
5FFFFFFFFB00
05CFFFFD8100
ENDCHAR
STARTCHAR germandbls
ENCODING 223
SWIDTH 578 0
DWIDTH 10 0
BBX 11 13 0 0
BITMAP
000011100000
05DEBBCD9100
6FE14544FC00
EFC4FFE1FF50
FFC4FF95FF60
FFC4FE64EF70
FFC4FFF6BF70
FFC4FFF5AF70
FFC4D112DF70
FFFFFFFFFF60
DFFFFFFFFF40
5FFFFFFFFB00
05CFFFFD8100
ENDCHAR
STARTCHAR agrave
ENCODING 224
SWIDTH 578 0
DWIDTH 10 0
BBX 11 17 0 0
BITMAP
007EFD300000
01FE8FB00000
01EF3DE10000
007FA9F40000
000DFCF60000
05DFFFFF9100
6FF65537FC00
EFFFFFC5FF50
FFFFFFC5FF60
FFE53335FF70
FF95DDA5FF70
FF97FFC5FF70
FFD21116FF70
FFFFFFFFFF60
DFFFFFFFFF40
5FFFFFFFFB00
05CFFFFD8100
ENDCHAR
STARTCHAR aacute
ENCODING 225
SWIDTH 578 0
DWIDTH 10 0
BBX 11 17 0 0
BITMAP
00005EFD5000
0000DF8FE000
0003FB6FC000
0007F6CF4000
0009FCFA0000
05DFFFFF9100
6FF65537FC00
EFFFFFC5FF50
FFFFFFC5FF60
FFE53335FF70
FF95DDA5FF70
FF97FFC5FF70
FFD21116FF70
FFFFFFFFFF60
DFFFFFFFFF40
5FFFFFFFFB00
05CFFFFD8100
ENDCHAR
STARTCHAR acircumflex
ENCODING 226
SWIDTH 578 0
DWIDTH 10 0
BBX 11 18 0 0
BITMAP
000036400000
0003FFF60000
000AF6ED0000
002FB88F5000
007F6E5FA000
009FDFDFC000
05FFFFFFD100
6FF65537FC00
EFFFFFC5FF50
FFFFFFC5FF60
FFE53335FF70
FF95DDA5FF70
FF97FFC5FF70
FFD21116FF70
FFFFFFFFFF60
DFFFFFFFFF40
5FFFFFFFFB00
05CFFFFD8100
ENDCHAR
STARTCHAR atilde
ENCODING 227
SWIDTH 578 0
DWIDTH 10 0
BBX 11 18 0 0
BITMAP
0003ACB50000
006FFFFFA000
01FFFFFFF500
03FEADCCF800
02F9652BF500
008FFFFFB000
05DDBBCE9100
6FF65537FC00
EFFFFFC5FF50
FFFFFFC5FF60
FFE53335FF70
FF95DDA5FF70
FF97FFC5FF70
FFD21116FF70
FFFFFFFFFF60
DFFFFFFFFF40
5FFFFFFFFB00
05CFFFFD8100
ENDCHAR
STARTCHAR adieresis
ENCODING 228
SWIDTH 578 0
DWIDTH 10 0
BBX 11 17 0 0
BITMAP
000002100000
0019FFFB2000
009FFFFFD000
00DD1F3BF200
00AFDFDEE000
05EFFFFFC100
6FF65537FC00
EFFFFFC5FF50
FFFFFFC5FF60
FFE53335FF70
FF95DDA5FF70
FF97FFC5FF70
FFD21116FF70
FFFFFFFFFF60
DFFFFFFFFF40
5FFFFFFFFB00
05CFFFFD8100
ENDCHAR
STARTCHAR aring
ENCODING 229
SWIDTH 578 0
DWIDTH 10 0
BBX 11 18 0 0
BITMAP
000169710000
001DFFFD2000
008F544F9000
00BF5F5FD000
00AF746FC000
005FFFFF6000
05DDBBCE9100
6FF65537FC00
EFFFFFC5FF50
FFFFFFC5FF60
FFE53335FF70
FF95DDA5FF70
FF97FFC5FF70
FFD21116FF70
FFFFFFFFFF60
DFFFFFFFFF40
5FFFFFFFFB00
05CFFFFD8100
ENDCHAR
STARTCHAR ae
ENCODING 230
SWIDTH 578 0
DWIDTH 10 0
BBX 11 13 0 0
BITMAP
000011100000
05DEBBBA7100
6FE25055CC00
EFC4F1FFFF50
FFA6F1DDEF60
FF97F133BF70
FF78D1FFFF70
FF5230FFFF70
FF4CF111BF70
FFFFFFFFFF60
DFFFFFFFFF40
5FFFFFFFFB00
05CFFFFD8100
ENDCHAR
STARTCHAR ccedilla
ENCODING 231
SWIDTH 578 0
DWIDTH 10 0
BBX 11 13 0 0
BITMAP
000011100000
05DDCBCD9100
6FD2555BFC00
EFB5FFFFFF50
FFB5FFFFFF60
FFB5FFFFFF70
FFB5FFFFFF70
FFB4FFFFFF70
FFE2111AFF70
FFFF74FFFF60
DFFE3EFFFF40
5FFF65FFFB00
05CFFFFD8100
ENDCHAR
STARTCHAR egrave
ENCODING 232
SWIDTH 578 0
DWIDTH 10 0
BBX 11 17 0 0
BITMAP
007EFD300000
02FD9FA00000
01EF2EE00000
008F9AF30000
001EFCF50000
05DFFFFE9100
6FC25537FC00
EFA6FFB4FF50
FFA37754FF60
FFA4999BFF70
FFA6FFFFFF70
FFA4CCCEFF70
FFF6444BFF70
FFFFFFFFFF60
DFFFFFFFFF40
5FFFFFFFFB00
05CFFFFD8100
ENDCHAR
STARTCHAR eacute
ENCODING 233
SWIDTH 578 0
DWIDTH 10 0
BBX 11 17 0 0
BITMAP
00008EFC2000
0002FD9FA000
0006F79F8000
000BF4FE1000
000CFCF70000
05DFFFFE9100
6FC25537FC00
EFA6FFB4FF50
FFA37754FF60
FFA4999BFF70
FFA6FFFFFF70
FFA4CCCEFF70
FFF6444BFF70
FFFFFFFFFF60
DFFFFFFFFF40
5FFFFFFFFB00
05CFFFFD8100
ENDCHAR
STARTCHAR ecircumflex
ENCODING 234
SWIDTH 578 0
DWIDTH 10 0
BBX 11 18 0 0
BITMAP
000056200000
0008FFE10000
001FC7F80000
008F67EE0000
00DE6C8F4000
00FEEFDF6000
05FFFFFFA100
6FC25537FC00
EFA6FFB4FF50
FFA37754FF60
FFA4999BFF70
FFA6FFFFFF70
FFA4CCCEFF70
FFF6444BFF70
FFFFFFFFFF60
DFFFFFFFFF40
5FFFFFFFFB00
05CFFFFD8100
ENDCHAR
STARTCHAR edieresis
ENCODING 235
SWIDTH 578 0
DWIDTH 10 0
BBX 11 17 0 0
BITMAP
000012000000
004DFFE70000
02FFFFFF6000
05F68A3F9000
02FEEFDF7000
05FFFFFF9100
6FC25537FC00
EFA6FFB4FF50
FFA37754FF60
FFA4999BFF70
FFA6FFFFFF70
FFA4CCCEFF70
FFF6444BFF70
FFFFFFFFFF60
DFFFFFFFFF40
5FFFFFFFFB00
05CFFFFD8100
ENDCHAR
STARTCHAR igrave
ENCODING 236
SWIDTH 578 0
DWIDTH 10 0
BBX 11 17 0 0
BITMAP
006DFD400000
01FE8FB00000
00EF4DF10000
006FA8F50000
000DFCF60000
05DFFFFB8100
6FF65145DC00
EFFFF3DFFF50
FFFFF3DFFF60
FFFFF3DFFF70
FFFFF3DFFF70
FFFFF3DFFF70
FFF31011CF70
FFFFFFFFFF60
DFFFFFFFFF40
5FFFFFFFFB00
05CFFFFD8100
ENDCHAR
STARTCHAR iacute
ENCODING 237
SWIDTH 578 0
DWIDTH 10 0
BBX 11 17 0 0
BITMAP
00005EFD5000
0000DF8FE000
0002FB5FC000
0007F7CF4000
0008FCFB0000
05DDFFFD8100
6FF65145DC00
EFFFF3DFFF50
FFFFF3DFFF60
FFFFF3DFFF70
FFFFF3DFFF70
FFFFF3DFFF70
FFF31011CF70
FFFFFFFFFF60
DFFFFFFFFF40
5FFFFFFFFB00
05CFFFFD8100
ENDCHAR
STARTCHAR icircumflex
ENCODING 238
SWIDTH 578 0
DWIDTH 10 0
BBX 11 18 0 0
BITMAP
000036400000
0003EFF60000
000AF6DE0000
002FB88F5000
007F6E5FA000
008FDFDFC000
05FFFFFFD100
6FF65145DC00
EFFFF3DFFF50
FFFFF3DFFF60
FFFFF3DFFF70
FFFFF3DFFF70
FFFFF3DFFF70
FFF31011CF70
FFFFFFFFFF60
DFFFFFFFFF40
5FFFFFFFFB00
05CFFFFD8100
ENDCHAR
STARTCHAR idieresis
ENCODING 239
SWIDTH 578 0
DWIDTH 10 0
BBX 11 17 0 0
BITMAP
000002100000
0009FFFC3000
008FFFFFD000
00CD1F3AF200
009FDFDEE100
05EFFFFFC100
6FF65145DC00
EFFFF3DFFF50
FFFFF3DFFF60
FFFFF3DFFF70
FFFFF3DFFF70
FFFFF3DFFF70
FFF31011CF70
FFFFFFFFFF60
DFFFFFFFFF40
5FFFFFFFFB00
05CFFFFD8100
ENDCHAR
STARTCHAR eth
ENCODING 240
SWIDTH 578 0
DWIDTH 10 0
BBX 11 13 0 0
BITMAP
000011100000
05CBBBBC9100
6FD15552CC00
EFD3FFF79F50
FFD3FFF79F60
FF81BFF79F70
FFD3FFF79F70
FFD3FFF69F70
FFD01112DF70
FFFFFFFFFF60
DFFFFFFFFF40
5FFFFFFFFB00
05CFFFFD8100
ENDCHAR
STARTCHAR ntilde
ENCODING 241
SWIDTH 578 0
DWIDTH 10 0
BBX 11 18 0 0
BITMAP
0006BC930000
00BFFFFF5000
06FFFFFFE000
09FCAE9EF200
07F4842FE100
01DFFFFF6000
05CDBBBD9100
6FC15552EC00
EFC4FFF4CF50
FFC4FFF4CF60
FFC4FFF4CF70
FFC4FFF4CF70
FFC4FFF4CF70
FFC4FFF4CF70
FFFFFFFFFF60
DFFFFFFFFF40
5FFFFFFFFB00
05CFFFFD8100
ENDCHAR
STARTCHAR oacute
ENCODING 243
SWIDTH 578 0
DWIDTH 10 0
BBX 11 17 0 0
BITMAP
00008EFC3000
0001FD9FB000
0006F79F9000
000AF4FE1000
000CFCF70000
05DFFFFD9100
6FE24552CC00
EFD3FFF69F50
FFD3FFF79F60
FFD3FFF79F70
FFD3FFF79F70
FFD3FFF6AF70
FFF31112DF70
FFFFFFFFFF60
DFFFFFFFFF40
5FFFFFFFFB00
05CFFFFD8100
ENDCHAR
STARTCHAR ocircumflex
ENCODING 244
SWIDTH 578 0
DWIDTH 10 0
BBX 11 18 0 0
BITMAP
000036400000
0003FFF60000
000AF6DD0000
002FB88F5000
007F6E5FA000
009FDFDFC000
05FFFFFFD100
6FE24552CC00
EFD3FFF69F50
FFD3FFF79F60
FFD3FFF79F70
FFD3FFF79F70
FFD3FFF6AF70
FFF31112DF70
FFFFFFFFFF60
DFFFFFFFFF40
5FFFFFFFFB00
05CFFFFD8100
ENDCHAR
STARTCHAR otilde
ENCODING 245
SWIDTH 578 0
DWIDTH 10 0
BBX 11 17 0 0
BITMAP
0004ACA50000
008FFFFF8000
02FFFFFFF300
05FEADBDF600
03F8753CF400
05FFFFFFF100
6FE24552CC00
EFD3FFF69F50
FFD3FFF79F60
FFD3FFF79F70
FFD3FFF79F70
FFD3FFF6AF70
FFF31112DF70
FFFFFFFFFF60
DFFFFFFFFF40
5FFFFFFFFB00
05CFFFFD8100
ENDCHAR
STARTCHAR odieresis
ENCODING 246
SWIDTH 578 0
DWIDTH 10 0
BBX 11 17 0 0
BITMAP
000002100000
0019FFFB2000
009FFFFFD000
00DD1F3BF200
00AFDFDEE000
05EFFFFFC100
6FE24552CC00
EFD3FFF69F50
FFD3FFF79F60
FFD3FFF79F70
FFD3FFF79F70
FFD3FFF6AF70
FFF31112DF70
FFFFFFFFFF60
DFFFFFFFFF40
5FFFFFFFFB00
05CFFFFD8100
ENDCHAR
STARTCHAR divide
ENCODING 247
SWIDTH 428 0
DWIDTH 8 0
BBX 8 12 0 0
BITMAP
05DFFB30
6FF9CFE2
EFF8BFF9
FF4118FB
FFF8BFFB
FFFACFFB
FFFFFFFB
FFFFFFFB
FFFFFFFB
DFFFFFF9
5FFFFFE2
05CFEA20
ENDCHAR
STARTCHAR oslash
ENCODING 248
SWIDTH 578 0
DWIDTH 10 0
BBX 11 13 0 0
BITMAP
000011100000
05DDBBBC9100
6FD25531DC00
EFB5FF42BF50
FFB5F975BF60
FFB5D3F5BF70
FFB54BF5BF70
FFC16FF5BF70
FFE31113EF70
FFFFFFFFFF60
DFFFFFFFFF40
5FFFFFFFFB00
05CFFFFD8100
ENDCHAR
STARTCHAR ugrave
ENCODING 249
SWIDTH 578 0
DWIDTH 10 0
BBX 11 17 0 0
BITMAP
006DFD400000
01FE8FB00000
00EF4DF10000
006FA8F50000
000DFCF60000
05CFFFFD7100
6FC4FFF6AC00
EFC4FFF6AF50
FFC4FFF6AF60
FFC4FFF6AF70
FFC4FFF6AF70
FFC4FFF5BF70
FFE31112EF70
FFFFFFFFFF60
DFFFFFFFFF40
5FFFFFFFFB00
05CFFFFD8100
ENDCHAR
STARTCHAR uacute
ENCODING 250
SWIDTH 578 0
DWIDTH 10 0
BBX 11 17 0 0
BITMAP
00005EFD5000
0000DF8FE000
0002FB5FC000
0007F7CF4000
0008FCFB0000
05CEFFFE7100
6FC4FFF6AC00
EFC4FFF6AF50
FFC4FFF6AF60
FFC4FFF6AF70
FFC4FFF6AF70
FFC4FFF5BF70
FFE31112EF70
FFFFFFFFFF60
DFFFFFFFFF40
5FFFFFFFFB00
05CFFFFD8100
ENDCHAR
STARTCHAR ucircumflex
ENCODING 251
SWIDTH 578 0
DWIDTH 10 0
BBX 11 18 0 0
BITMAP
000036400000
0003EFF60000
000AF6DE0000
002FB88F5000
007F6E5FA000
008FDFDFC000
05FFFFFFC100
6FC4FFF6AC00
EFC4FFF6AF50
FFC4FFF6AF60
FFC4FFF6AF70
FFC4FFF6AF70
FFC4FFF5BF70
FFE31112EF70
FFFFFFFFFF60
DFFFFFFFFF40
5FFFFFFFFB00
05CFFFFD8100
ENDCHAR
STARTCHAR udieresis
ENCODING 252
SWIDTH 578 0
DWIDTH 10 0
BBX 11 17 0 0
BITMAP
000002100000
0009FFFC3000
008FFFFFD000
00CD1F3AF200
009FDFDEE100
05DFFFFFB100
6FC4FFF6AC00
EFC4FFF6AF50
FFC4FFF6AF60
FFC4FFF6AF70
FFC4FFF6AF70
FFC4FFF5BF70
FFE31112EF70
FFFFFFFFFF60
DFFFFFFFFF40
5FFFFFFFFB00
05CFFFFD8100
ENDCHAR
STARTCHAR yacute
ENCODING 253
SWIDTH 578 0
DWIDTH 10 0
BBX 11 17 0 0
BITMAP
00005EFD4000
0000DE8FE000
0003FA6FC000
0007F6DF4000
0009FCFA0000
05DDFFFD8100
6FF4AFD1EC00
EFFA4F77FF50
FFFF2D2DFF60
FFFF835FFF70
FFFFE0BFFF70
FFFFF2EFFF70
FFFFF2EFFF70
FFFFFFFFFF60
DFFFFFFFFF40
5FFFFFFFFB00
05CFFFFD8100
ENDCHAR
STARTCHAR thorn
ENCODING 254
SWIDTH 578 0
DWIDTH 10 0
BBX 11 13 0 0
BITMAP
000011100000
05DADFFE9100
6FF5CFFFFC00
EFF51114FF50
FFF5CFF3DF60
FFF5CFF3DF70
FFF51114FF70
FFF5CFFFFF70
FFF5CFFFFF70
FFFFFFFFFF60
DFFFFFFFFF40
5FFFFFFFFB00
05CFFFFD8100
ENDCHAR
STARTCHAR ydieresis
ENCODING 255
SWIDTH 578 0
DWIDTH 10 0
BBX 11 17 0 0
BITMAP
000002100000
0019FFFB2000
009FFFFFD000
00DD1F2BF100
00AFDFDED000
05EFFFFFB100
6FF4AFD1EC00
EFFA4F77FF50
FFFF2D2DFF60
FFFF835FFF70
FFFFE0BFFF70
FFFFF2EFFF70
FFFFF2EFFF70
FFFFFFFFFF60
DFFFFFFFFF40
5FFFFFFFFB00
05CFFFFD8100
ENDCHAR
STARTCHAR Amacron
ENCODING 256
SWIDTH 578 0
DWIDTH 10 0
BBX 11 17 0 0
BITMAP
000023200000
004DFFFC3000
02EFFFFFE200
06FC333FF500
03FFDDDFF200
05FFFFFFF100
6FF63536FC00
EFF3DFC3FF50
FFF1EFE2FF60
FFF08870FF70
FFD2AAA1DF70
FFB4FFF3CF70
FFA5FFF5AF70
FFFFFFFFFF60
DFFFFFFFFF40
5FFFFFFFFB00
05CFFFFD8100
ENDCHAR
STARTCHAR amacron
ENCODING 257
SWIDTH 578 0
DWIDTH 10 0
BBX 11 17 0 0
BITMAP
000013200000
003CFFFD5000
01DFFFFFF300
03FD333DF700
01FFDDDFF500
05FFFFFFF100
6FF65537FC00
EFFFFFC5FF50
FFFFFFC5FF60
FFE53335FF70
FF95DDA5FF70
FF97FFC5FF70
FFD21116FF70
FFFFFFFFFF60
DFFFFFFFFF40
5FFFFFFFFB00
05CFFFFD8100
ENDCHAR
STARTCHAR Abreve
ENCODING 258
SWIDTH 578 0
DWIDTH 10 0
BBX 11 18 0 0
BITMAP
000023200000
004DFFFC3000
02EFFFFFE200
06FE8F8EF500
03FF535FF200
007FFFFF7000
05DFCBDE9100
6FF63536FC00
EFF3DFC3FF50
FFF1EFE2FF60
FFF08870FF70
FFD2AAA1DF70
FFB4FFF3CF70
FFA5FFF5AF70
FFFFFFFFFF60
DFFFFFFFFF40
5FFFFFFFFB00
05CFFFFD8100
ENDCHAR
STARTCHAR abreve
ENCODING 259
SWIDTH 578 0
DWIDTH 10 0
BBX 11 18 0 0
BITMAP
000013200000
003CFFFD5000
01DFFFFFF300
03FF8FADF700
01FF734EF500
005FFFFF9000
05DDBBCE9100
6FF65537FC00
EFFFFFC5FF50
FFFFFFC5FF60
FFE53335FF70
FF95DDA5FF70
FF97FFC5FF70
FFD21116FF70
FFFFFFFFFF60
DFFFFFFFFF40
5FFFFFFFFB00
05CFFFFD8100
ENDCHAR
STARTCHAR Aogonek
ENCODING 260
SWIDTH 578 0
DWIDTH 10 0
BBX 11 13 0 0
BITMAP
000011100000
05DFCBDE9100
6FF63536FC00
EFF3DFC3FF50
FFF1EFE2FF60
FFF08870FF70
FFD2AAA1DF70
FFB4FFF3CF70
FFA5FFF5AF70
FFFFFFD5EF60
DFFFFF7BFF40
5FFFFFC3BB00
05CFFFFD8100
ENDCHAR
STARTCHAR aogonek
ENCODING 261
SWIDTH 578 0
DWIDTH 10 0
BBX 11 13 0 0
BITMAP
000011100000
05DDBBCE9100
6FF65537FC00
EFFFFFC4FF50
FFFFFFC4FF60
FFE53334FF70
FF95DDA4FF70
FF97FFC4FF70
FFD21115FF70
FFFFB5FFFF60
DFFF5CFFFF40
5FFFA3DFFB00
05CFFFFD8100
ENDCHAR
STARTCHAR Cacute
ENCODING 262
SWIDTH 578 0
DWIDTH 10 0
BBX 11 17 0 0
BITMAP
00004EFD5000
0000CF8FF000
0002FC5FD000
0006F7BF5000
0008FCFB0000
05DFFFFF9100
6FD2555BFC00
EFB5FFFFFF50
FFB5FFFFFF60
FFB5FFFFFF70
FFB5FFFFFF70
FFB4FFFFFF70
FFE2111AFF70
FFFFFFFFFF60
DFFFFFFFFF40
5FFFFFFFFB00
05CFFFFD8100
ENDCHAR
STARTCHAR cacute
ENCODING 263
SWIDTH 578 0
DWIDTH 10 0
BBX 11 17 0 0
BITMAP
00005EFD5000
0000DF8FE000
0003FB6FC000
0007F6CF4000
0008FCFA0000
05DFFFFF9100
6FD2555BFC00
EFB5FFFFFF50
FFB5FFFFFF60
FFB5FFFFFF70
FFB5FFFFFF70
FFB4FFFFFF70
FFE2111AFF70
FFFFFFFFFF60
DFFFFFFFFF40
5FFFFFFFFB00
05CFFFFD8100
ENDCHAR
STARTCHAR Ccircumflex
ENCODING 264
SWIDTH 578 0
DWIDTH 10 0
BBX 11 18 0 0
BITMAP
000036300000
0005FFF40000
000CE5FC0000
004F98AF3000
009F5F5F8000
00BFDFDFA000
05FFFFFFC100
6FD2555BFC00
EFB5FFFFFF50
FFB5FFFFFF60
FFB5FFFFFF70
FFB5FFFFFF70
FFB4FFFFFF70
FFE2111AFF70
FFFFFFFFFF60
DFFFFFFFFF40
5FFFFFFFFB00
05CFFFFD8100
ENDCHAR
STARTCHAR ccircumflex
ENCODING 265
SWIDTH 578 0
DWIDTH 10 0
BBX 11 18 0 0
BITMAP
000046300000
0005FFF40000
000DE5FB0000
004F98AF2000
009F5F5F8000
00BFDFDF9000
05FFFFFFC100
6FD2555BFC00
EFB5FFFFFF50
FFB5FFFFFF60
FFB5FFFFFF70
FFB5FFFFFF70
FFB4FFFFFF70
FFE2111AFF70
FFFFFFFFFF60
DFFFFFFFFF40
5FFFFFFFFB00
05CFFFFD8100
ENDCHAR
STARTCHAR Cdotaccent
ENCODING 266
SWIDTH 578 0
DWIDTH 10 0
BBX 11 17 0 0
BITMAP
000133100000
008FFFF91000
08FFFFFF9000
0CFF88FFE000
0AFFDDFFC000
09FFFFFFD100
6FD2555BFC00
EFB5FFFFFF50
FFB5FFFFFF60
FFB5FFFFFF70
FFB5FFFFFF70
FFB4FFFFFF70
FFE2111AFF70
FFFFFFFFFF60
DFFFFFFFFF40
5FFFFFFFFB00
05CFFFFD8100
ENDCHAR
STARTCHAR cdotaccent
ENCODING 267
SWIDTH 578 0
DWIDTH 10 0
BBX 11 17 0 0
BITMAP
000023100000
006EFFFA2000
05FFFFFFC000
09FFB6FFF100
08FFECFFE000
07FFFFFFF100
6FD2555BFC00
EFB5FFFFFF50
FFB5FFFFFF60
FFB5FFFFFF70
FFB5FFFFFF70
FFB4FFFFFF70
FFE2111AFF70
FFFFFFFFFF60
DFFFFFFFFF40
5FFFFFFFFB00
05CFFFFD8100
ENDCHAR
STARTCHAR Ccaron
ENCODING 268
SWIDTH 578 0
DWIDTH 10 0
BBX 11 17 0 0
BITMAP
007CB9D90000
01FDDECF4000
01FD7AAF4000
00CF66FF1000
007FCAFB0000
05FFFFFF9100
6FD2555BFC00
EFB5FFFFFF50
FFB5FFFFFF60
FFB5FFFFFF70
FFB5FFFFFF70
FFB4FFFFFF70
FFE2111AFF70
FFFFFFFFFF60
DFFFFFFFFF40
5FFFFFFFFB00
05CFFFFD8100
ENDCHAR
STARTCHAR ccaron
ENCODING 269
SWIDTH 578 0
DWIDTH 10 0
BBX 11 17 0 0
BITMAP
005CC9DB1000
00EEDFBF6000
00DF6C8F6000
00AF77EF3000
005FD9FD0000
05DFFFFF9100
6FD2555BFC00
EFB5FFFFFF50
FFB5FFFFFF60
FFB5FFFFFF70
FFB5FFFFFF70
FFB4FFFFFF70
FFE2111AFF70
FFFFFFFFFF60
DFFFFFFFFF40
5FFFFFFFFB00
05CFFFFD8100
ENDCHAR
STARTCHAR Dcaron
ENCODING 270
SWIDTH 578 0
DWIDTH 10 0
BBX 11 17 0 0
BITMAP
005CC9DA1000
00FEDFCF6000
00EE6B9F5000
00AF67EF2000
006FD9FC0000
05DFFFFF9100
6FD15552CC00
EFD3FFF79F50
FFD3FFF79F60
FFD3FFF79F70
FFD3FFF79F70
FFD3FFF69F70
FFD01112DF70
FFFFFFFFFF60
DFFFFFFFFF40
5FFFFFFFFB00
05CFFFFD8100
ENDCHAR
STARTCHAR dcaron
ENCODING 271
SWIDTH 578 0
DWIDTH 10 0
BBX 11 13 0 0
BITMAP
000011100000
059BBBDC6100
6F2455263C00
EF2EFF597F50
FF2EFF5BFF60
FF2EFF5BFF70
FF2EFF5BFF70
FF2EFF5BFF70
FF21112EFF70
FFFFFFFFFF60
DFFFFFFFFF40
5FFFFFFFFB00
05CFFFFD8100
ENDCHAR
STARTCHAR Dcroat
ENCODING 272
SWIDTH 578 0
DWIDTH 10 0
BBX 11 13 0 0
BITMAP
000011100000
05CBBBBC9100
6FD15552CC00
EFD3FFF79F50
FE829EF79F60
FD617EF79F70
FFD3FFF79F70
FFD3FFF69F70
FFD01112DF70
FFFFFFFFFF60
DFFFFFFFFF40
5FFFFFFFFB00
05CFFFFD8100
ENDCHAR
STARTCHAR dcroat
ENCODING 273
SWIDTH 578 0
DWIDTH 10 0
BBX 11 13 0 0
BITMAP
000011100000
05CBBBBC9100
6FD15552CC00
EFD3FFF79F50
FE829EF79F60
FD617EF79F70
FFD3FFF79F70
FFD3FFF69F70
FFD01112DF70
FFFFFFFFFF60
DFFFFFFFFF40
5FFFFFFFFB00
05CFFFFD8100
ENDCHAR
STARTCHAR Emacron
ENCODING 274
SWIDTH 578 0
DWIDTH 10 0
BBX 11 17 0 0
BITMAP
000013200000
002BFFFD5000
01DFFFFFF400
03FE333DF800
01EFDDDFF500
05FFFFFFF100
6FF83556FC00
EFF88FFFFF50
FFF88EEFFF60
FFF8122AFF70
FFF88FFFFF70
FFF88FFFFF70
FFF81112FF70
FFFFFFFFFF60
DFFFFFFFFF40
5FFFFFFFFB00
05CFFFFD8100
ENDCHAR
STARTCHAR emacron
ENCODING 275
SWIDTH 578 0
DWIDTH 10 0
BBX 11 17 0 0
BITMAP
000023100000
007EFFFA1000
05FFFFFFC000
0AF8336FF100
07FEDDEFD000
06FFFFFFC100
6FC25537FC00
EFA6FFB4FF50
FFA37754FF60
FFA4999BFF70
FFA6FFFFFF70
FFA4CCCEFF70
FFF6444BFF70
FFFFFFFFFF60
DFFFFFFFFF40
5FFFFFFFFB00
05CFFFFD8100
ENDCHAR
STARTCHAR Ebreve
ENCODING 276
SWIDTH 578 0
DWIDTH 10 0
BBX 11 18 0 0
BITMAP
000013200000
002BFFFD5000
01DFFFFFF400
03FF8FADF800
01EF734EF500
005FFFFF9000
05DDBBBB9100
6FF83556FC00
EFF88FFFFF50
FFF88EEFFF60
FFF8122AFF70
FFF88FFFFF70
FFF88FFFFF70
FFF81112FF70
FFFFFFFFFF60
DFFFFFFFFF40
5FFFFFFFFB00
05CFFFFD8100
ENDCHAR
STARTCHAR ebreve
ENCODING 277
SWIDTH 578 0
DWIDTH 10 0
BBX 11 17 0 0
BITMAP
000023100000
007EFFFA1000
05FFFFFFC000
0AFCBF8FF100
07FE449FD000
06FFFFFFC100
6FC25537FC00
EFA6FFB4FF50
FFA37754FF60
FFA4999BFF70
FFA6FFFFFF70
FFA4CCCEFF70
FFF6444BFF70
FFFFFFFFFF60
DFFFFFFFFF40
5FFFFFFFFB00
05CFFFFD8100
ENDCHAR
STARTCHAR Edotaccent
ENCODING 278
SWIDTH 578 0
DWIDTH 10 0
BBX 11 18 0 0
BITMAP
000013200000
002BFFFD5000
01DFFFFFF400
03FFF4DFF800
01FFFAEFF600
009DDDDDC100
05DDBBBB9100
6FF83556FC00
EFF88FFFFF50
FFF88EEFFF60
FFF8122AFF70
FFF88FFFFF70
FFF88FFFFF70
FFF81112FF70
FFFFFFFFFF60
DFFFFFFFFF40
5FFFFFFFFB00
05CFFFFD8100
ENDCHAR
STARTCHAR edotaccent
ENCODING 279
SWIDTH 578 0
DWIDTH 10 0
BBX 11 17 0 0
BITMAP
000023100000
007EFFFA1000
05FFFFFFC000
0AFFA6FFF100
08FFECFFE000
07FFFFFFF100
6FC25537FC00
EFA6FFB4FF50
FFA37754FF60
FFA4999BFF70
FFA6FFFFFF70
FFA4CCCEFF70
FFF6444BFF70
FFFFFFFFFF60
DFFFFFFFFF40
5FFFFFFFFB00
05CFFFFD8100
ENDCHAR
STARTCHAR Eogonek
ENCODING 280
SWIDTH 578 0
DWIDTH 10 0
BBX 11 13 0 0
BITMAP
000011100000
05DDBBBB9100
6FF83556FC00
EFF88FFFFF50
FFF88EEFFF60
FFF8122AFF70
FFF88FFFFF70
FFF88FFFFF70
FFF81112FF70
FFFFFF88FF60
DFFFFF3FFF40
5FFFFF74FB00
05CFFFFD8100
ENDCHAR
STARTCHAR eogonek
ENCODING 281
SWIDTH 578 0
DWIDTH 10 0
BBX 11 13 0 0
BITMAP
000011100000
05DDBBCE9100
6FC25537FC00
EFA6FFB4FF50
FFA37754FF60
FFA4999BFF70
FFA6FFFFFF70
FFA4CCCEFF70
FFF6433BFF70
FFFFD4EFFF60
DFFFB5DFFF40
5FFFF9AFFB00
05CFFFFD8100
ENDCHAR
STARTCHAR Ecaron
ENCODING 282
SWIDTH 578 0
DWIDTH 10 0
BBX 11 17 0 0
BITMAP
001AD9CD5000
007FBFCED000
007F7D5FC000
003FD77F9000
000EF8EF5000
05DFFFFF9100
6FF83556FC00
EFF88FFFFF50
FFF88EEFFF60
FFF8122AFF70
FFF88FFFFF70
FFF88FFFFF70
FFF81112FF70
FFFFFFFFFF60
DFFFFFFFFF40
5FFFFFFFFB00
05CFFFFD8100
ENDCHAR
STARTCHAR ecaron
ENCODING 283
SWIDTH 578 0
DWIDTH 10 0
BBX 11 17 0 0
BITMAP
005CC9DA1000
00FEDFCF6000
00EE6B9F5000
00AF67EF2000
006FD9FC0000
05EFFFFF9100
6FC25537FC00
EFA6FFB4FF50
FFA37754FF60
FFA4999BFF70
FFA6FFFFFF70
FFA4CCCEFF70
FFF6444BFF70
FFFFFFFFFF60
DFFFFFFFFF40
5FFFFFFFFB00
05CFFFFD8100
ENDCHAR
STARTCHAR Gcircumflex
ENCODING 284
SWIDTH 578 0
DWIDTH 10 0
BBX 11 18 0 0
BITMAP
000046300000
0006FFF30000
000DE6FA0000
005F88BF2000
00AF5E6F7000
00CFDFDF9000
05FFFFFFB100
6FF34555FC00
EFF1FFFFFF50
FFF1FFFFFF60
FFF1FD44BF70
FFF1FEC59F70
FFF1FFF6AF70
FFF51112DF70
FFFFFFFFFF60
DFFFFFFFFF40
5FFFFFFFFB00
05CFFFFD8100
ENDCHAR
STARTCHAR gcircumflex
ENCODING 285
SWIDTH 578 0
DWIDTH 10 0
BBX 11 18 0 0
BITMAP
000046300000
0006FFF30000
000DE6FA0000
005F88BF2000
00AF5E6F7000
00CFDFDF9000
05FFFFFFB100
6FF34555FC00
EFF1FFFFFF50
FFF1FFFFFF60
FFF1FD44BF70
FFF1FEC59F70
FFF1FFF6AF70
FFF51112DF70
FFFFFFFFFF60
DFFFFFFFFF40
5FFFFFFFFB00
05CFFFFD8100
ENDCHAR
STARTCHAR Gbreve
ENCODING 286
SWIDTH 578 0
DWIDTH 10 0
BBX 11 18 0 0
BITMAP
000023100000
005DFFFC3000
03FFFFFFE100
07FD9F7FF400
04FE436FF100
009FFFFF6000
05DECBBB9100
6FF34555FC00
EFF1FFFFFF50
FFF1FFFFFF60
FFF1FD44BF70
FFF1FEC59F70
FFF1FFF6AF70
FFF51112DF70
FFFFFFFFFF60
DFFFFFFFFF40
5FFFFFFFFB00
05CFFFFD8100
ENDCHAR
STARTCHAR gbreve
ENCODING 287
SWIDTH 578 0
DWIDTH 10 0
BBX 11 18 0 0
BITMAP
000023100000
007EFFFA1000
05FFFFFFC000
0AFCBF8FF100
07FD439FD000
00BFFFFE4000
05DECBBB9100
6FF34555FC00
EFF1FFFFFF50
FFF1FFFFFF60
FFF1FD44BF70
FFF1FEC59F70
FFF1FFF6AF70
FFF51112DF70
FFFFFFFFFF60
DFFFFFFFFF40
5FFFFFFFFB00
05CFFFFD8100
ENDCHAR
STARTCHAR Gdotaccent
ENCODING 288
SWIDTH 578 0
DWIDTH 10 0
BBX 11 17 0 0
BITMAP
000023100000
007EFFFA1000
05FFFFFFC000
0AFFA6FFF100
08FFECFFE000
07FFFFFFF100
6FF34555FC00
EFF1FFFFFF50
FFF1FFFFFF60
FFF1FD44BF70
FFF1FEC59F70
FFF1FFF6AF70
FFF51112DF70
FFFFFFFFFF60
DFFFFFFFFF40
5FFFFFFFFB00
05CFFFFD8100
ENDCHAR
STARTCHAR gdotaccent
ENCODING 289
SWIDTH 578 0
DWIDTH 10 0
BBX 11 18 0 0
BITMAP
000023100000
007EFFFA1000
05FFFFFFC000
0AFFA6FFF100
08FFDBFFE000
02CDDDDD7000
05DECBBB9100
6FF34555FC00
EFF1FFFFFF50
FFF1FFFFFF60
FFF1FD44BF70
FFF1FEC59F70
FFF1FFF6AF70
FFF51112DF70
FFFFFFFFFF60
DFFFFFFFFF40
5FFFFFFFFB00
05CFFFFD8100
ENDCHAR
STARTCHAR Gcommaaccent
ENCODING 290
SWIDTH 578 0
DWIDTH 10 0
BBX 11 13 0 0
BITMAP
000011100000
05DECBBB9100
6FF34555FC00
EFF1FFFFFF50
FFF1FFFFFF60
FFF1FD44BF70
FFF1FEC59F70
FFF1FFF6AF70
FFF51112DF70
FFFFFADFFF60
DFFFF29FFF40
5FFFF8EFFB00
05CFFFFD8100
ENDCHAR
STARTCHAR gcommaaccent
ENCODING 291
SWIDTH 578 0
DWIDTH 10 0
BBX 11 13 0 0
BITMAP
000011100000
05DECBBB9100
6FF34555FC00
EFF1FFFFFF50
FFF1FFFFFF60
FFF1FD44BF70
FFF1FEC59F70
FFF1FFF6AF70
FFF51112DF70
FFFFFADFFF60
DFFFF29FFF40
5FFFF8EFFB00
05CFFFFD8100
ENDCHAR
STARTCHAR Hcircumflex
ENCODING 292
SWIDTH 578 0
DWIDTH 10 0
BBX 11 18 0 0
BITMAP
000046300000
0005FFF30000
000DE5FB0000
004F88BF2000
00AF5E6F7000
00CFDFDF9000
05FFFFFFA100
6FD3FFF79C00
EFD3FFF79F50
FFD2CCC69F60
FFD144429F70
FFD3FFF79F70
FFD3FFF79F70
FFD3FFF79F70
FFFFFFFFFF60
DFFFFFFFFF40
5FFFFFFFFB00
05CFFFFD8100
ENDCHAR
STARTCHAR hcircumflex
ENCODING 293
SWIDTH 578 0
DWIDTH 10 0
BBX 11 18 0 0
BITMAP
000036300000
0005FFF40000
000CE5FC0000
004F98AF3000
009F5F5F8000
00BFDFDFA000
05FFFFFFB100
6FD3FFF79C00
EFD3FFF79F50
FFD2CCC69F60
FFD144429F70
FFD3FFF79F70
FFD3FFF79F70
FFD3FFF79F70
FFFFFFFFFF60
DFFFFFFFFF40
5FFFFFFFFB00
05CFFFFD8100
ENDCHAR
STARTCHAR Hbar
ENCODING 294
SWIDTH 578 0
DWIDTH 10 0
BBX 11 18 0 0
BITMAP
000023100000
005DFFFC3000
03FFFFFFE100
07FA334FF400
04FEDDDFF100
009FFFFF6000
05CCFFFC7100
6FD3FFF79C00
EFD3FFF79F50
FFD2CCC69F60
FFD144429F70
FFD3FFF79F70
FFD3FFF79F70
FFD3FFF79F70
FFFFFFFFFF60
DFFFFFFFFF40
5FFFFFFFFB00
05CFFFFD8100
ENDCHAR
STARTCHAR hbar
ENCODING 295
SWIDTH 578 0
DWIDTH 10 0
BBX 11 13 0 0
BITMAP
000011100000
05CCFFFC7100
6FD3EEE69C00
EF9144424F50
FFD2CCC69F60
FFD144429F70
FFD3FFF79F70
FFD3FFF79F70
FFD3FFF79F70
FFFFFFFFFF60
DFFFFFFFFF40
5FFFFFFFFB00
05CFFFFD8100
ENDCHAR
STARTCHAR Itilde
ENCODING 296
SWIDTH 578 0
DWIDTH 10 0
BBX 11 18 0 0
BITMAP
00039CB60000
005FFFFFB000
00EFFFFFF600
02FFACCBF900
01EB562AF700
007FFFFFC100
05DCBBBA8100
6FF65145DC00
EFFFF3DFFF50
FFFFF3DFFF60
FFFFF3DFFF70
FFFFF3DFFF70
FFFFF3DFFF70
FFF31011CF70
FFFFFFFFFF60
DFFFFFFFFF40
5FFFFFFFFB00
05CFFFFD8100
ENDCHAR
STARTCHAR itilde
ENCODING 297
SWIDTH 578 0
DWIDTH 10 0
BBX 11 18 0 0
BITMAP
0003ACB60000
006FFFFFA000
01EFFFFFF500
03FEADCCF800
01FA652AF600
008FFFFFC000
05DCBBBA8100
6FF65145DC00
EFFFF3DFFF50
FFFFF3DFFF60
FFFFF3DFFF70
FFFFF3DFFF70
FFFFF3DFFF70
FFF31011CF70
FFFFFFFFFF60
DFFFFFFFFF40
5FFFFFFFFB00
05CFFFFD8100
ENDCHAR
STARTCHAR Imacron
ENCODING 298
SWIDTH 578 0
DWIDTH 10 0
BBX 11 17 0 0
BITMAP
000013200000
003CFFFD5000
01EFFFFFF300
04FD333DF700
01FFDDDFF500
05FFFFFFF100
6FF65145DC00
EFFFF3DFFF50
FFFFF3DFFF60
FFFFF3DFFF70
FFFFF3DFFF70
FFFFF3DFFF70
FFF31011CF70
FFFFFFFFFF60
DFFFFFFFFF40
5FFFFFFFFB00
05CFFFFD8100
ENDCHAR
STARTCHAR imacron
ENCODING 299
SWIDTH 578 0
DWIDTH 10 0
BBX 11 17 0 0
BITMAP
000023200000
003CFFFD4000
01EFFFFFF300
04FD333EF700
02FFDDDFF400
05FFFFFFF100
6FF65145DC00
EFFFF3DFFF50
FFFFF3DFFF60
FFFFF3DFFF70
FFFFF3DFFF70
FFFFF3DFFF70
FFF31011CF70
FFFFFFFFFF60
DFFFFFFFFF40
5FFFFFFFFB00
05CFFFFD8100
ENDCHAR
STARTCHAR Ibreve
ENCODING 300
SWIDTH 578 0
DWIDTH 10 0
BBX 11 18 0 0
BITMAP
000013200000
002BFFFE6000
00DFFFFFF500
02FF8FBCF900
00EF834EF600
004FFFFFA000
05DCBBBA8100
6FF65145DC00
EFFFF3DFFF50
FFFFF3DFFF60
FFFFF3DFFF70
FFFFF3DFFF70
FFFFF3DFFF70
FFF31011CF70
FFFFFFFFFF60
DFFFFFFFFF40
5FFFFFFFFB00
05CFFFFD8100
ENDCHAR
STARTCHAR ibreve
ENCODING 301
SWIDTH 578 0
DWIDTH 10 0
BBX 11 18 0 0
BITMAP
000013200000
002BFFFD5000
00DFFFFFF400
03FF8FADF800
01EF734EF500
005FFFFF9000
05DCBBBA8100
6FF65145DC00
EFFFF3DFFF50
FFFFF3DFFF60
FFFFF3DFFF70
FFFFF3DFFF70
FFFFF3DFFF70
FFF31011CF70
FFFFFFFFFF60
DFFFFFFFFF40
5FFFFFFFFB00
05CFFFFD8100
ENDCHAR
STARTCHAR Iogonek
ENCODING 302
SWIDTH 578 0
DWIDTH 10 0
BBX 11 13 0 0
BITMAP
000011100000
05DCBBBA8100
6FF65145DC00
EFFFF3DFFF50
FFFFF3DFFF60
FFFFF3DFFF70
FFFFF3DFFF70
FFFFF3DFFF70
FFF31011CF70
FFFFFFB5FF60
DFFFFF6CFF40
5FFFFFB3CB00
05CFFFFD8100
ENDCHAR
STARTCHAR iogonek
ENCODING 303
SWIDTH 578 0
DWIDTH 10 0
BBX 11 13 0 0
BITMAP
000011100000
05DCBBBA8100
6FF65145DC00
EFFFF3DFFF50
FFFFF3DFFF60
FFFFF3DFFF70
FFFFF3DFFF70
FFFFF3DFFF70
FFF31011CF70
FFFFFFB5FF60
DFFFFF6CFF40
5FFFFFB3CB00
05CFFFFD8100
ENDCHAR
STARTCHAR Idotaccent
ENCODING 304
SWIDTH 578 0
DWIDTH 10 0
BBX 11 17 0 0
BITMAP
000023100000
005DFFFC3000
03FFFFFFE100
07FFC4FFF400
05FFFBFFF200
06FFFFFFF100
6FF65145DC00
EFFFF3DFFF50
FFFFF3DFFF60
FFFFF3DFFF70
FFFFF3DFFF70
FFFFF3DFFF70
FFF31011CF70
FFFFFFFFFF60
DFFFFFFFFF40
5FFFFFFFFB00
05CFFFFD8100
ENDCHAR
STARTCHAR dotlessi
ENCODING 305
SWIDTH 578 0
DWIDTH 10 0
BBX 11 13 0 0
BITMAP
000011100000
05DCBBBA8100
6FF65145DC00
EFFFF3DFFF50
FFFFF3DFFF60
FFFFF3DFFF70
FFFFF3DFFF70
FFFFF3DFFF70
FFF31011CF70
FFFFFFFFFF60
DFFFFFFFFF40
5FFFFFFFFB00
05CFFFFD8100
ENDCHAR
STARTCHAR IJ
ENCODING 306
SWIDTH 578 0
DWIDTH 10 0
BBX 11 13 0 0
BITMAP
000011100000
039BBEFD6100
6B415DFC4C00
EFE2FFFC4F50
FFE2FFFC4F60
FFE2FFFC4F70
FFE2FFFC4F70
FFE2FFFB4F70
F91019118F70
FFFFFFFFFF60
DFFFFFFFFF40
5FFFFFFFFB00
05CFFFFD8100
ENDCHAR
STARTCHAR ij
ENCODING 307
SWIDTH 578 0
DWIDTH 10 0
BBX 11 13 0 0
BITMAP
000011100000
039BBEFD6100
6B415DFC4C00
EFE2FFFC4F50
FFE2FFFC4F60
FFE2FFFC4F70
FFE2FFFC4F70
FFE2FFFB4F70
F91019118F70
FFFFFFFFFF60
DFFFFFFFFF40
5FFFFFFFFB00
05CFFFFD8100
ENDCHAR
STARTCHAR Jcircumflex
ENCODING 308
SWIDTH 578 0
DWIDTH 10 0
BBX 11 18 0 0
BITMAP
000036400000
0004FFF50000
000BF5ED0000
002FB89F4000
008F5F5F9000
009FDFDFB000
05FFFFFFD100
6FFFFF1FFC00
EFFFFF1FFF50
FFFFFF1FFF60
FFFFFF1FFF70
FFFFFF1FFF70
FFFFFE1FFF70
FFFF115FFF70
FFFFFFFFFF60
DFFFFFFFFF40
5FFFFFFFFB00
05CFFFFD8100
ENDCHAR
STARTCHAR jcircumflex
ENCODING 309
SWIDTH 578 0
DWIDTH 10 0
BBX 11 18 0 0
BITMAP
000036400000
0004FFF50000
000BF5ED0000
002FB89F4000
008F5F5F9000
009FDFDFB000
05FFFFFFD100
6FFFFF1FFC00
EFFFFF1FFF50
FFFFFF1FFF60
FFFFFF1FFF70
FFFFFF1FFF70
FFFFFE1FFF70
FFFF115FFF70
FFFFFFFFFF60
DFFFFFFFFF40
5FFFFFFFFB00
05CFFFFD8100
ENDCHAR
STARTCHAR Kcommaaccent
ENCODING 310
SWIDTH 578 0
DWIDTH 10 0
BBX 11 13 0 0
BITMAP
000011100000
05DDDFFD6100
6FF97FE38C00
EFF97E38FF50
FFF9638FFF60
FFF901DFFF70
FFF9793EFF70
FFF97F74FF70
FFF97FF59F70
FFFFFBDFFF60
DFFFF29FFF40
5FFFF8EFFB00
05CFFFFD8100
ENDCHAR
STARTCHAR kcommaaccent
ENCODING 311
SWIDTH 578 0
DWIDTH 10 0
BBX 11 13 0 0
BITMAP
000011100000
05DDDFFD6100
6FF97FE38C00
EFF97E38FF50
FFF9638FFF60
FFF901DFFF70
FFF9793EFF70
FFF97F74FF70
FFF97FF59F70
FFFFFBDFFF60
DFFFF29FFF40
5FFFF8EFFB00
05CFFFFD8100
ENDCHAR
STARTCHAR kgreenlandic
ENCODING 312
SWIDTH 578 0
DWIDTH 10 0
BBX 11 13 0 0
BITMAP
000011100000
05DDDFFD6100
6FF97FE38C00
EFF97E38FF50
FFF9638FFF60
FFF901DFFF70
FFF9793EFF70
FFF97F74FF70
FFF97FF59F70
FFFFFFFFFF60
DFFFFFFFFF40
5FFFFFFFFB00
05CFFFFD8100
ENDCHAR
STARTCHAR Lacute
ENCODING 313
SWIDTH 578 0
DWIDTH 10 0
BBX 11 17 0 0
BITMAP
0005EFD50000
000DF8FE0000
003FB6FC0000
007F6CF40000
008FCFB00000
05FFFFFE9100
6FFE2FFFFC00
EFFE2FFFFF50
FFFE2FFFFF60
FFFE2FFFFF70
FFFE2FFFFF70
FFFE2FFFFF70
FFFE0117FF70
FFFFFFFFFF60
DFFFFFFFFF40
5FFFFFFFFB00
05CFFFFD8100
ENDCHAR
STARTCHAR lacute
ENCODING 314
SWIDTH 578 0
DWIDTH 10 0
BBX 11 17 0 0
BITMAP
0005EFD50000
000DF8FE0000
003FB6FC0000
007F6CF40000
008FCFB00000
05FFFFFE9100
6FFE2FFFFC00
EFFE2FFFFF50
FFFE2FFFFF60
FFFE2FFFFF70
FFFE2FFFFF70
FFFE2FFFFF70
FFFE0117FF70
FFFFFFFFFF60
DFFFFFFFFF40
5FFFFFFFFB00
05CFFFFD8100
ENDCHAR
STARTCHAR Lcommaaccent
ENCODING 315
SWIDTH 578 0
DWIDTH 10 0
BBX 11 13 0 0
BITMAP
000011100000
05DFCFFE9100
6FFE2FFFFC00
EFFE2FFFFF50
FFFE2FFFFF60
FFFE2FFFFF70
FFFE2FFFFF70
FFFE2FFFFF70
FFFE0117FF70
FFFFFADFFF60
DFFFF29FFF40
5FFFF8EFFB00
05CFFFFD8100
ENDCHAR
STARTCHAR lcommaaccent
ENCODING 316
SWIDTH 578 0
DWIDTH 10 0
BBX 11 13 0 0
BITMAP
000011100000
05DFCFFE9100
6FFE2FFFFC00
EFFE2FFFFF50
FFFE2FFFFF60
FFFE2FFFFF70
FFFE2FFFFF70
FFFE2FFFFF70
FFFE0117FF70
FFFFFADFFF60
DFFFF29FFF40
5FFFF8EFFB00
05CFFFFD8100
ENDCHAR
STARTCHAR Lcaron
ENCODING 317
SWIDTH 578 0
DWIDTH 10 0
BBX 11 13 0 0
BITMAP
000011100000
05DFCFCD9100
6FFE2F29FC00
EFFE2F7DFF50
FFFE2FFFFF60
FFFE2FFFFF70
FFFE2FFFFF70
FFFE2FFFFF70
FFFE0117FF70
FFFFFFFFFF60
DFFFFFFFFF40
5FFFFFFFFB00
05CFFFFD8100
ENDCHAR
STARTCHAR lcaron
ENCODING 318
SWIDTH 578 0
DWIDTH 10 0
BBX 11 13 0 0
BITMAP
000011100000
05DFCFCD9100
6FFE2F29FC00
EFFE2F7DFF50
FFFE2FFFFF60
FFFE2FFFFF70
FFFE2FFFFF70
FFFE2FFFFF70
FFFE0117FF70
FFFFFFFFFF60
DFFFFFFFFF40
5FFFFFFFFB00
05CFFFFD8100
ENDCHAR
STARTCHAR Ldot
ENCODING 319
SWIDTH 578 0
DWIDTH 10 0
BBX 11 13 0 0
BITMAP
000011100000
05DFCFFE9100
6FFE2FFFFC00
EFFE2FFFFF50
FFFE2A2FFF60
FFFE2FEFFF70
FFFE2FFFFF70
FFFE2FFFFF70
FFFE0117FF70
FFFFFFFFFF60
DFFFFFFFFF40
5FFFFFFFFB00
05CFFFFD8100
ENDCHAR
STARTCHAR ldot
ENCODING 320
SWIDTH 578 0
DWIDTH 10 0
BBX 11 13 0 0
BITMAP
000011100000
05DFCFFE9100
6FFE2FFFFC00
EFFE2FFFFF50
FFFE2A2FFF60
FFFE2FEFFF70
FFFE2FFFFF70
FFFE2FFFFF70
FFFE0117FF70
FFFFFFFFFF60
DFFFFFFFFF40
5FFFFFFFFB00
05CFFFFD8100
ENDCHAR
STARTCHAR Lslash
ENCODING 321
SWIDTH 578 0
DWIDTH 10 0
BBX 11 13 0 0
BITMAP
000011100000
05DFCFFE9100
6FFE2FFFFC00
EFFE2FFFFF50
FFFE17FFFF60
FFF52FFFFF70
FFFE2FFFFF70
FFFE2FFFFF70
FFFE0117FF70
FFFFFFFFFF60
DFFFFFFFFF40
5FFFFFFFFB00
05CFFFFD8100
ENDCHAR
STARTCHAR lslash
ENCODING 322
SWIDTH 578 0
DWIDTH 10 0
BBX 11 13 0 0
BITMAP
000011100000
05DFCFFE9100
6FFE2FFFFC00
EFFE2FFFFF50
FFFE17FFFF60
FFF52FFFFF70
FFFE2FFFFF70
FFFE2FFFFF70
FFFE0117FF70
FFFFFFFFFF60
DFFFFFFFFF40
5FFFFFFFFB00
05CFFFFD8100
ENDCHAR
STARTCHAR Nacute
ENCODING 323
SWIDTH 578 0
DWIDTH 10 0
BBX 11 17 0 0
BITMAP
00008EFC2000
0002FD9FA000
0006F79F8000
000BF4FE1000
000CFCF70000
05CFFFFD9100
6FC15552EC00
EFC4FFF4CF50
FFC4FFF4CF60
FFC4FFF4CF70
FFC4FFF4CF70
FFC4FFF4CF70
FFC4FFF4CF70
FFFFFFFFFF60
DFFFFFFFFF40
5FFFFFFFFB00
05CFFFFD8100
ENDCHAR
STARTCHAR nacute
ENCODING 324
SWIDTH 578 0
DWIDTH 10 0
BBX 11 17 0 0
BITMAP
00008EFC2000
0002FD9FA000
0006F79F8000
000BF4FE1000
000CFCF70000
05CFFFFD9100
6FC15552EC00
EFC4FFF4CF50
FFC4FFF4CF60
FFC4FFF4CF70
FFC4FFF4CF70
FFC4FFF4CF70
FFC4FFF4CF70
FFFFFFFFFF60
DFFFFFFFFF40
5FFFFFFFFB00
05CFFFFD8100
ENDCHAR
STARTCHAR Ncommaaccent
ENCODING 325
SWIDTH 578 0
DWIDTH 10 0
BBX 11 13 0 0
BITMAP
000011100000
05CDBBBD9100
6FC15552EC00
EFC4FFF4CF50
FFC4FFF4CF60
FFC4FFF4CF70
FFC4FFF4CF70
FFC4FFF4CF70
FFC4FFF4CF70
FFFFFBDFFF60
DFFFF29FFF40
5FFFF8EFFB00
05CFFFFD8100
ENDCHAR
STARTCHAR ncommaaccent
ENCODING 326
SWIDTH 578 0
DWIDTH 10 0
BBX 11 13 0 0
BITMAP
000011100000
05CDBBBD9100
6FC15552EC00
EFC4FFF4CF50
FFC4FFF4CF60
FFC4FFF4CF70
FFC4FFF4CF70
FFC4FFF4CF70
FFC4FFF4CF70
FFFFFBDFFF60
DFFFF29FFF40
5FFFF8EFFB00
05CFFFFD8100
ENDCHAR
STARTCHAR Ncaron
ENCODING 327
SWIDTH 578 0
DWIDTH 10 0
BBX 11 17 0 0
BITMAP
005CC9DA1000
00FEDFCF6000
00EE6B9F5000
00AF67EF2000
006FD9FC0000
05DFFFFF9100
6FC15552EC00
EFC4FFF4CF50
FFC4FFF4CF60
FFC4FFF4CF70
FFC4FFF4CF70
FFC4FFF4CF70
FFC4FFF4CF70
FFFFFFFFFF60
DFFFFFFFFF40
5FFFFFFFFB00
05CFFFFD8100
ENDCHAR
STARTCHAR ncaron
ENCODING 328
SWIDTH 578 0
DWIDTH 10 0
BBX 11 17 0 0
BITMAP
005CC9DA1000
00FEDFCF6000
00EE6B9F5000
00AF67EF2000
006FD9FC0000
05DFFFFF9100
6FC15552EC00
EFC4FFF4CF50
FFC4FFF4CF60
FFC4FFF4CF70
FFC4FFF4CF70
FFC4FFF4CF70
FFC4FFF4CF70
FFFFFFFFFF60
DFFFFFFFFF40
5FFFFFFFFB00
05CFFFFD8100
ENDCHAR
STARTCHAR napostrophe
ENCODING 329
SWIDTH 578 0
DWIDTH 10 0
BBX 11 13 0 0
BITMAP
000011100000
05CDBBBD9100
58B15552EC00
D294FFF4CF50
F8C4FFF4CF60
FFC4FFF4CF70
FFC4FFF4CF70
FFC4FFF4CF70
FFC4FFF4CF70
FFFFFFFFFF60
DFFFFFFFFF40
5FFFFFFFFB00
05CFFFFD8100
ENDCHAR
STARTCHAR Eng
ENCODING 330
SWIDTH 578 0
DWIDTH 10 0
BBX 11 13 0 0
BITMAP
000011100000
05CDBBBD9100
6FC15552EC00
EFC4FFF4CF50
FFC4FFF4CF60
FFC4FFF4CF70
FFC4FFF4CF70
FFC4FFF4CF70
FFC4FFF4CF70
FFFFFFF4CF60
DFFFFBA2CF40
5FFFF869FB00
05CFFFFD8100
ENDCHAR
STARTCHAR eng
ENCODING 331
SWIDTH 578 0
DWIDTH 10 0
BBX 11 13 0 0
BITMAP
000011100000
05CDBBBD9100
6FC15552EC00
EFC4FFF4CF50
FFC4FFF4CF60
FFC4FFF4CF70
FFC4FFF4CF70
FFC4FFF4CF70
FFC4FFF4CF70
FFFFFFF4CF60
DFFFFBA2CF40
5FFFF869FB00
05CFFFFD8100
ENDCHAR
STARTCHAR Omacron
ENCODING 332
SWIDTH 578 0
DWIDTH 10 0
BBX 11 17 0 0
BITMAP
000013200000
003CFFFD5000
01EFFFFFF300
04FD333EF700
01FFDDDFF400
05FFFFFFF100
6FE24552CC00
EFD3FFF69F50
FFD3FFF79F60
FFD3FFF79F70
FFD3FFF79F70
FFD3FFF6AF70
FFF31112DF70
FFFFFFFFFF60
DFFFFFFFFF40
5FFFFFFFFB00
05CFFFFD8100
ENDCHAR
STARTCHAR omacron
ENCODING 333
SWIDTH 578 0
DWIDTH 10 0
BBX 11 17 0 0
BITMAP
000013200000
003CFFFD5000
01EFFFFFF300
04FD333EF700
01FFDDDFF400
05FFFFFFF100
6FE24552CC00
EFD3FFF69F50
FFD3FFF79F60
FFD3FFF79F70
FFD3FFF79F70
FFD3FFF6AF70
FFF31112DF70
FFFFFFFFFF60
DFFFFFFFFF40
5FFFFFFFFB00
05CFFFFD8100
ENDCHAR
STARTCHAR Obreve
ENCODING 334
SWIDTH 578 0
DWIDTH 10 0
BBX 11 18 0 0
BITMAP
000013200000
003CFFFD5000
01EFFFFFF300
04FF8F9DF700
01FF634EF400
006FFFFF9000
05DEBBBC9100
6FE24552CC00
EFD3FFF69F50
FFD3FFF79F60
FFD3FFF79F70
FFD3FFF79F70
FFD3FFF6AF70
FFF31112DF70
FFFFFFFFFF60
DFFFFFFFFF40
5FFFFFFFFB00
05CFFFFD8100
ENDCHAR
STARTCHAR obreve
ENCODING 335
SWIDTH 578 0
DWIDTH 10 0
BBX 11 18 0 0
BITMAP
000013200000
003CFFFD5000
01EFFFFFF300
04FF8F9DF700
01FF634EF400
006FFFFF9000
05DEBBBC9100
6FE24552CC00
EFD3FFF69F50
FFD3FFF79F60
FFD3FFF79F70
FFD3FFF79F70
FFD3FFF6AF70
FFF31112DF70
FFFFFFFFFF60
DFFFFFFFFF40
5FFFFFFFFB00
05CFFFFD8100
ENDCHAR
STARTCHAR Ohungarumlaut
ENCODING 336
SWIDTH 578 0
DWIDTH 10 0
BBX 11 18 0 0
BITMAP
000001313000
00004FFFF700
0000DFAFAE10
0006F8B9BF40
000DE7E7FA00
002FDFDEE100
05DFFFFFD100
6FE24552CC00
EFD3FFF69F50
FFD3FFF79F60
FFD3FFF79F70
FFD3FFF79F70
FFD3FFF6AF70
FFF31112DF70
FFFFFFFFFF60
DFFFFFFFFF40
5FFFFFFFFB00
05CFFFFD8100
ENDCHAR
STARTCHAR ohungarumlaut
ENCODING 337
SWIDTH 578 0
DWIDTH 10 0
BBX 11 18 0 0
BITMAP
000001313000
00004FFFF700
0000DFAFAE10
0006F8B9BF40
000DE7E7FA00
002FDFDEE100
05DFFFFFD100
6FE24552CC00
EFD3FFF69F50
FFD3FFF79F60
FFD3FFF79F70
FFD3FFF79F70
FFD3FFF6AF70
FFF31112DF70
FFFFFFFFFF60
DFFFFFFFFF40
5FFFFFFFFB00
05CFFFFD8100
ENDCHAR
STARTCHAR OE
ENCODING 338
SWIDTH 578 0
DWIDTH 10 0
BBX 11 13 0 0
BITMAP
000011100000
05CCBDBA7100
6F344145AC00
EF1FF3DFFF50
FF1FF3CEFF60
FF1FF322CF70
FF1FF3DFFF70
FF1FF3DFFF70
FF5111116F70
FFFFFFFFFF60
DFFFFFFFFF40
5FFFFFFFFB00
05CFFFFD8100
ENDCHAR
STARTCHAR oe
ENCODING 339
SWIDTH 578 0
DWIDTH 10 0
BBX 11 13 0 0
BITMAP
000011100000
05CCBDBA7100
6F344145AC00
EF1FF3DFFF50
FF1FF3CEFF60
FF1FF322CF70
FF1FF3DFFF70
FF1FF3DFFF70
FF5111116F70
FFFFFFFFFF60
DFFFFFFFFF40
5FFFFFFFFB00
05CFFFFD8100
ENDCHAR
STARTCHAR Racute
ENCODING 340
SWIDTH 578 0
DWIDTH 10 0
BBX 11 17 0 0
BITMAP
00008EFC2000
0002FD9FA000
0006F79F8000
000BF4FE1000
000CFCF70000
05DFFFFE9100
6FF15536FC00
EFF1FFE2FF50
FFF1FFD3FF60
FFF1222BFF70
FFF1EEB3FF70
FFF1FFF1FF70
FFF1FFF1FF70
FFFFFFFFFF60
DFFFFFFFFF40
5FFFFFFFFB00
05CFFFFD8100
ENDCHAR
STARTCHAR racute
ENCODING 341
SWIDTH 578 0
DWIDTH 10 0
BBX 11 17 0 0
BITMAP
00008EFC2000
0002FD9FA000
0006F79F8000
000BF4FE1000
000CFCF70000
05DFFFFE9100
6FF15536FC00
EFF1FFE2FF50
FFF1FFD3FF60
FFF1222BFF70
FFF1EEB3FF70
FFF1FFF1FF70
FFF1FFF1FF70
FFFFFFFFFF60
DFFFFFFFFF40
5FFFFFFFFB00
05CFFFFD8100
ENDCHAR
STARTCHAR Rcommaaccent
ENCODING 342
SWIDTH 578 0
DWIDTH 10 0
BBX 11 13 0 0
BITMAP
000011100000
05DBBBCE9100
6FF15536FC00
EFF1FFE2FF50
FFF1FFD3FF60
FFF1222BFF70
FFF1EEB3FF70
FFF1FFF1FF70
FFF1FFF1FF70
FFFFFBDFFF60
DFFFF29FFF40
5FFFF8EFFB00
05CFFFFD8100
ENDCHAR
STARTCHAR rcommaaccent
ENCODING 343
SWIDTH 578 0
DWIDTH 10 0
BBX 11 13 0 0
BITMAP
000011100000
05DBBBCE9100
6FF15536FC00
EFF1FFE2FF50
FFF1FFD3FF60
FFF1222BFF70
FFF1EEB3FF70
FFF1FFF1FF70
FFF1FFF1FF70
FFFFFBDFFF60
DFFFF29FFF40
5FFFF8EFFB00
05CFFFFD8100
ENDCHAR
STARTCHAR Rcaron
ENCODING 344
SWIDTH 578 0
DWIDTH 10 0
BBX 11 17 0 0
BITMAP
005CC9DA1000
00FEDFCF6000
00EE6B9F5000
00AF67EF2000
006FD9FC0000
05EFFFFF9100
6FF15536FC00
EFF1FFE2FF50
FFF1FFD3FF60
FFF1222BFF70
FFF1EEB3FF70
FFF1FFF1FF70
FFF1FFF1FF70
FFFFFFFFFF60
DFFFFFFFFF40
5FFFFFFFFB00
05CFFFFD8100
ENDCHAR
STARTCHAR rcaron
ENCODING 345
SWIDTH 578 0
DWIDTH 10 0
BBX 11 17 0 0
BITMAP
005CC9DA1000
00FEDFCF6000
00EE6B9F5000
00AF67EF2000
006FD9FC0000
05EFFFFF9100
6FF15536FC00
EFF1FFE2FF50
FFF1FFD3FF60
FFF1222BFF70
FFF1EEB3FF70
FFF1FFF1FF70
FFF1FFF1FF70
FFFFFFFFFF60
DFFFFFFFFF40
5FFFFFFFFB00
05CFFFFD8100
ENDCHAR
STARTCHAR Sacute
ENCODING 346
SWIDTH 578 0
DWIDTH 10 0
BBX 11 17 0 0
BITMAP
00004DFD6000
0000CF8EF100
0001FC4FD000
0005F8BF6000
0007FCFC0000
05DFFFFF9100
6FF44555FC00
EFF1FFFFFF50
FFF1CDDEFF60
FFF94332EF70
FFFFFFF4CF70
FFFFFFF4CF70
FFF71113EF70
FFFFFFFFFF60
DFFFFFFFFF40
5FFFFFFFFB00
05CFFFFD8100
ENDCHAR
STARTCHAR sacute
ENCODING 347
SWIDTH 578 0
DWIDTH 10 0
BBX 11 17 0 0
BITMAP
00004DFD6000
0000CF8EF100
0001FC4FD000
0005F8BF6000
0007FCFC0000
05DFFFFF9100
6FF44555FC00
EFF1FFFFFF50
FFF1CDDEFF60
FFF94332EF70
FFFFFFF4CF70
FFFFFFF4CF70
FFF71113EF70
FFFFFFFFFF60
DFFFFFFFFF40
5FFFFFFFFB00
05CFFFFD8100
ENDCHAR
STARTCHAR Scircumflex
ENCODING 348
SWIDTH 578 0
DWIDTH 10 0
BBX 11 18 0 0
BITMAP
000026400000
0002EFF70000
0009F7CE1000
001ED77F6000
005F7D5FC000
007FDFEED000
05FFFFFFE100
6FF44555FC00
EFF1FFFFFF50
FFF1CDDEFF60
FFF94332EF70
FFFFFFF4CF70
FFFFFFF4CF70
FFF71113EF70
FFFFFFFFFF60
DFFFFFFFFF40
5FFFFFFFFB00
05CFFFFD8100
ENDCHAR
STARTCHAR scircumflex
ENCODING 349
SWIDTH 578 0
DWIDTH 10 0
BBX 11 18 0 0
BITMAP
000026400000
0002EFF70000
0009F7CE1000
001ED77F6000
005F7D5FC000
007FDFEED000
05FFFFFFE100
6FF44555FC00
EFF1FFFFFF50
FFF1CDDEFF60
FFF94332EF70
FFFFFFF4CF70
FFFFFFF4CF70
FFF71113EF70
FFFFFFFFFF60
DFFFFFFFFF40
5FFFFFFFFB00
05CFFFFD8100
ENDCHAR
STARTCHAR Scedilla
ENCODING 350
SWIDTH 578 0
DWIDTH 10 0
BBX 11 13 0 0
BITMAP
000011100000
05DECBBC9100
6FF44555FC00
EFF1FFFFFF50
FFF1CDDEFF60
FFF94332EF70
FFFFFFF4CF70
FFFFFFF4CF70
FFF71113EF70
FFFFA2EFFF60
DFFF4CFFFF40
5FFFA3EFFB00
05CFFFFD8100
ENDCHAR
STARTCHAR scedilla
ENCODING 351
SWIDTH 578 0
DWIDTH 10 0
BBX 11 13 0 0
BITMAP
000011100000
05DECBBC9100
6FF44555FC00
EFF1FFFFFF50
FFF1CDDEFF60
FFF94332EF70
FFFFFFF4CF70
FFFFFFF4CF70
FFF71113EF70
FFFFA2EFFF60
DFFF4CFFFF40
5FFFA3EFFB00
05CFFFFD8100
ENDCHAR
STARTCHAR Scaron
ENCODING 352
SWIDTH 578 0
DWIDTH 10 0
BBX 11 17 0 0
BITMAP
001AD9BD6000
006FBFDEE000
005F8C6EE000
002FE76FB000
000CF9DF6000
05DFFFFFA100
6FF44555FC00
EFF1FFFFFF50
FFF1CDDEFF60
FFF94332EF70
FFFFFFF4CF70
FFFFFFF4CF70
FFF71113EF70
FFFFFFFFFF60
DFFFFFFFFF40
5FFFFFFFFB00
05CFFFFD8100
ENDCHAR
STARTCHAR scaron
ENCODING 353
SWIDTH 578 0
DWIDTH 10 0
BBX 11 17 0 0
BITMAP
001AD9BD6000
006FBFDEE000
005F8C6EE000
002FE76FB000
000CF9DF6000
05DFFFFFA100
6FF44555FC00
EFF1FFFFFF50
FFF1CDDEFF60
FFF94332EF70
FFFFFFF4CF70
FFFFFFF4CF70
FFF71113EF70
FFFFFFFFFF60
DFFFFFFFFF40
5FFFFFFFFB00
05CFFFFD8100
ENDCHAR
STARTCHAR Tcommaaccent
ENCODING 354
SWIDTH 578 0
DWIDTH 10 0
BBX 11 13 0 0
BITMAP
000011100000
05DCBBBA8100
6FF65145DC00
EFFFF3DFFF50
FFFFF3DFFF60
FFFFF3DFFF70
FFFFF3DFFF70
FFFFF3DFFF70
FFFFF3DFFF70
FFFFFADFFF60
DFFFF29FFF40
5FFFF8EFFB00
05CFFFFD8100
ENDCHAR
STARTCHAR tcommaaccent
ENCODING 355
SWIDTH 578 0
DWIDTH 10 0
BBX 11 13 0 0
BITMAP
000011100000
05DCBBBA8100
6FF65145DC00
EFFFF3DFFF50
FFFFF3DFFF60
FFFFF3DFFF70
FFFFF3DFFF70
FFFFF3DFFF70
FFFFF3DFFF70
FFFFFADFFF60
DFFFF29FFF40
5FFFF8EFFB00
05CFFFFD8100
ENDCHAR
STARTCHAR Tcaron
ENCODING 356
SWIDTH 578 0
DWIDTH 10 0
BBX 11 17 0 0
BITMAP
002BD8CC3000
00AFBFCFB000
009F6E5FA000
005FB79F7000
001FF7FF3000
05DFFFFF8100
6FF65145DC00
EFFFF3DFFF50
FFFFF3DFFF60
FFFFF3DFFF70
FFFFF3DFFF70
FFFFF3DFFF70
FFFFF3DFFF70
FFFFFFFFFF60
DFFFFFFFFF40
5FFFFFFFFB00
05CFFFFD8100
ENDCHAR
STARTCHAR tcaron
ENCODING 357
SWIDTH 578 0
DWIDTH 10 0
BBX 11 13 0 0
BITMAP
000011100000
05DCBBBA8100
6FF65145DC00
EFFFF3B3DF50
FFFFF3C3DF60
FFFFF3DBFF70
FFFFF3DFFF70
FFFFF3DFFF70
FFFFF3DFFF70
FFFFFFFFFF60
DFFFFFFFFF40
5FFFFFFFFB00
05CFFFFD8100
ENDCHAR
STARTCHAR Tbar
ENCODING 358
SWIDTH 578 0
DWIDTH 10 0
BBX 11 13 0 0
BITMAP
000011100000
05DCBBBA8100
6FF65145DC00
EFFFF3DFFF50
FFFFF3DFFF60
FFFF312BFF70
FFFFF3DFFF70
FFFFF3DFFF70
FFFFF3DFFF70
FFFFFFFFFF60
DFFFFFFFFF40
5FFFFFFFFB00
05CFFFFD8100
ENDCHAR
STARTCHAR tbar
ENCODING 359
SWIDTH 578 0
DWIDTH 10 0
BBX 11 13 0 0
BITMAP
000011100000
05DCBBBA8100
6FF65145DC00
EFFFF3DFFF50
FFFFF3DFFF60
FFFF312BFF70
FFFFF3DFFF70
FFFFF3DFFF70
FFFFF3DFFF70
FFFFFFFFFF60
DFFFFFFFFF40
5FFFFFFFFB00
05CFFFFD8100
ENDCHAR
STARTCHAR Utilde
ENCODING 360
SWIDTH 578 0
DWIDTH 10 0
BBX 11 18 0 0
BITMAP
0003ACB60000
006FFFFFA000
01EFFFFFF500
03FEADCCF800
01FA652BF600
008FFFFFB000
05CCFFFC7100
6FC4FFF6AC00
EFC4FFF6AF50
FFC4FFF6AF60
FFC4FFF6AF70
FFC4FFF6AF70
FFC4FFF5BF70
FFE31112EF70
FFFFFFFFFF60
DFFFFFFFFF40
5FFFFFFFFB00
05CFFFFD8100
ENDCHAR
STARTCHAR utilde
ENCODING 361
SWIDTH 578 0
DWIDTH 10 0
BBX 11 18 0 0
BITMAP
0003ACB60000
006FFFFFA000
01EFFFFFF500
03FEADCCF800
01FA652AF600
008FFFFFC000
05CCFFFC7100
6FC4FFF6AC00
EFC4FFF6AF50
FFC4FFF6AF60
FFC4FFF6AF70
FFC4FFF6AF70
FFC4FFF5BF70
FFE31112EF70
FFFFFFFFFF60
DFFFFFFFFF40
5FFFFFFFFB00
05CFFFFD8100
ENDCHAR
STARTCHAR Umacron
ENCODING 362
SWIDTH 578 0
DWIDTH 10 0
BBX 11 17 0 0
BITMAP
000013200000
002BFFFD5000
01DFFFFFF400
03FE333DF800
01EFDDDFF500
05FFFFFFF100
6FC4FFF6AC00
EFC4FFF6AF50
FFC4FFF6AF60
FFC4FFF6AF70
FFC4FFF6AF70
FFC4FFF5BF70
FFE31112EF70
FFFFFFFFFF60
DFFFFFFFFF40
5FFFFFFFFB00
05CFFFFD8100
ENDCHAR
STARTCHAR umacron
ENCODING 363
SWIDTH 578 0
DWIDTH 10 0
BBX 11 17 0 0
BITMAP
000013200000
002BFFFD5000
01DFFFFFF400
03FE333DF800
01EFDDDFF500
05FFFFFFF100
6FC4FFF6AC00
EFC4FFF6AF50
FFC4FFF6AF60
FFC4FFF6AF70
FFC4FFF6AF70
FFC4FFF5BF70
FFE31112EF70
FFFFFFFFFF60
DFFFFFFFFF40
5FFFFFFFFB00
05CFFFFD8100
ENDCHAR
STARTCHAR Ubreve
ENCODING 364
SWIDTH 578 0
DWIDTH 10 0
BBX 11 18 0 0
BITMAP
000013200000
002BFFFD5000
01DFFFFFF400
03FF8FADF800
01EF734EF500
005FFFFF9000
05CCFFFC7100
6FC4FFF6AC00
EFC4FFF6AF50
FFC4FFF6AF60
FFC4FFF6AF70
FFC4FFF6AF70
FFC4FFF5BF70
FFE31112EF70
FFFFFFFFFF60
DFFFFFFFFF40
5FFFFFFFFB00
05CFFFFD8100
ENDCHAR
STARTCHAR ubreve
ENCODING 365
SWIDTH 578 0
DWIDTH 10 0
BBX 11 18 0 0
BITMAP
000013200000
002BFFFD5000
00DFFFFFF400
03FF8FADF800
01EF734EF500
005FFFFF9000
05CCFFFC7100
6FC4FFF6AC00
EFC4FFF6AF50
FFC4FFF6AF60
FFC4FFF6AF70
FFC4FFF6AF70
FFC4FFF5BF70
FFE31112EF70
FFFFFFFFFF60
DFFFFFFFFF40
5FFFFFFFFB00
05CFFFFD8100
ENDCHAR
STARTCHAR Uring
ENCODING 366
SWIDTH 578 0
DWIDTH 10 0
BBX 11 18 0 0
BITMAP
000069710000
001DFFFD2000
008F644FA000
00BF5F5ED000
00AF746FC000
004FFFFF6000
05CCFFFC7100
6FC4FFF6AC00
EFC4FFF6AF50
FFC4FFF6AF60
FFC4FFF6AF70
FFC4FFF6AF70
FFC4FFF5BF70
FFE31112EF70
FFFFFFFFFF60
DFFFFFFFFF40
5FFFFFFFFB00
05CFFFFD8100
ENDCHAR
STARTCHAR uring
ENCODING 367
SWIDTH 578 0
DWIDTH 10 0
BBX 11 18 0 0
BITMAP
000069710000
001CFFFD2000
007F644FA000
00BF5F5ED000
00AF846FC000
004FFFFF6000
05CCFFFC7100
6FC4FFF6AC00
EFC4FFF6AF50
FFC4FFF6AF60
FFC4FFF6AF70
FFC4FFF6AF70
FFC4FFF5BF70
FFE31112EF70
FFFFFFFFFF60
DFFFFFFFFF40
5FFFFFFFFB00
05CFFFFD8100
ENDCHAR
STARTCHAR Uhungarumlaut
ENCODING 368
SWIDTH 581 0
DWIDTH 10 0
BBX 11 18 0 0
BITMAP
000001313100
00003EFFF800
0000CFAFAE10
0005F9AAAF50
000DF7F7FB00
001FEFEEE200
05CFFFFFC100
6FC4FFF6AC00
EFC4FFF6AF50
FFC4FFF6AF60
FFC4FFF6AF70
FFC4FFF6AF70
FFC4FFF5BF70
FFE31112EF70
FFFFFFFFFF60
DFFFFFFFFF40
5FFFFFFFFB00
05CFFFFD8100
ENDCHAR
STARTCHAR uhungarumlaut
ENCODING 369
SWIDTH 582 0
DWIDTH 10 0
BBX 11 18 0 0
BITMAP
000001313100
00003EFFF800
0000CFAF9E20
0005FAAAAF50
000DF7F7FB00
001FEFEEE200
05CFFFFFC100
6FC4FFF6AC00
EFC4FFF6AF50
FFC4FFF6AF60
FFC4FFF6AF70
FFC4FFF6AF70
FFC4FFF5BF70
FFE31112EF70
FFFFFFFFFF60
DFFFFFFFFF40
5FFFFFFFFB00
05CFFFFD8100
ENDCHAR
STARTCHAR Uogonek
ENCODING 370
SWIDTH 578 0
DWIDTH 10 0
BBX 11 13 0 0
BITMAP
000011100000
05CCFFFC7100
6FC4FFF6AC00
EFC4FFF6AF50
FFC4FFF6AF60
FFC4FFF6AF70
FFC4FFF6AF70
FFC4FFF5BF70
FFE31112EF70
FFFFE5BFFF60
DFFFC5FFFF40
5FFFE57FFB00
05CFFFFD8100
ENDCHAR
STARTCHAR uogonek
ENCODING 371
SWIDTH 578 0
DWIDTH 10 0
BBX 11 13 0 0
BITMAP
000011100000
05CCFFFC7100
6FC4FFF6AC00
EFC4FFF6AF50
FFC4FFF6AF60
FFC4FFF6AF70
FFC4FFF6AF70
FFC4FFF5BF70
FFE31112EF70
FFFFE5BFFF60
DFFFC5FFFF40
5FFFE57FFB00
05CFFFFD8100
ENDCHAR
STARTCHAR Wcircumflex
ENCODING 372
SWIDTH 578 0
DWIDTH 10 0
BBX 11 18 0 0
BITMAP
000046300000
0006FFF30000
000DE6FB0000
005F88BF2000
00AF5E6F7000
00CFDFDF9000
05FFFFFF9100
6F0FE1FD2C00
EF1EB0DC3F50
FF3C91AA5F60
FF5B65897F70
FF6939578F70
FF881D36AF70
FFC15F32DF70
FFFFFFFFFF60
DFFFFFFFFF40
5FFFFFFFFB00
05CFFFFD8100
ENDCHAR
STARTCHAR wcircumflex
ENCODING 373
SWIDTH 578 0
DWIDTH 10 0
BBX 11 18 0 0
BITMAP
000046300000
0006FFF30000
000DE6FB0000
005F88BF2000
00AF5E6F7000
00CFDFDF9000
05FFFFFF9100
6F0FE1FD2C00
EF1EB0DC3F50
FF3C91AA5F60
FF5B65897F70
FF6939578F70
FF881D36AF70
FFC15F32DF70
FFFFFFFFFF60
DFFFFFFFFF40
5FFFFFFFFB00
05CFFFFD8100
ENDCHAR
STARTCHAR Ycircumflex
ENCODING 374
SWIDTH 578 0
DWIDTH 10 0
BBX 11 18 0 0
BITMAP
000036400000
0003FFF60000
000BF6ED0000
002FB88F4000
007F6E5FA000
009FDFDFB000
05FFFFFFC100
6FF4AFD1EC00
EFFA4F77FF50
FFFF2D2DFF60
FFFF835FFF70
FFFFE0BFFF70
FFFFF2EFFF70
FFFFF2EFFF70
FFFFFFFFFF60
DFFFFFFFFF40
5FFFFFFFFB00
05CFFFFD8100
ENDCHAR
STARTCHAR ycircumflex
ENCODING 375
SWIDTH 578 0
DWIDTH 10 0
BBX 11 18 0 0
BITMAP
000036400000
0003FFF60000
000BF6ED0000
002FB88F4000
007F6E5FA000
009FDFDFB000
05FFFFFFC100
6FF4AFD1EC00
EFFA4F77FF50
FFFF2D2DFF60
FFFF835FFF70
FFFFE0BFFF70
FFFFF2EFFF70
FFFFF2EFFF70
FFFFFFFFFF60
DFFFFFFFFF40
5FFFFFFFFB00
05CFFFFD8100
ENDCHAR
STARTCHAR Ydieresis
ENCODING 376
SWIDTH 578 0
DWIDTH 10 0
BBX 11 17 0 0
BITMAP
000002100000
0019FFFB2000
009FFFFFD000
00DD1F2BF100
00AFDFDED000
05EFFFFFB100
6FF4AFD1EC00
EFFA4F77FF50
FFFF2D2DFF60
FFFF835FFF70
FFFFE0BFFF70
FFFFF2EFFF70
FFFFF2EFFF70
FFFFFFFFFF60
DFFFFFFFFF40
5FFFFFFFFB00
05CFFFFD8100
ENDCHAR
STARTCHAR Zacute
ENCODING 377
SWIDTH 578 0
DWIDTH 10 0
BBX 11 17 0 0
BITMAP
0002CFE80000
0008FADF4000
000CF2EF2000
002FC7F90000
003FDEF10000
05DFFFFD9100
6FF95528FC00
EFFFFE2EFF50
FFFFF68FFF60
FFFFD2FFFF70
FFFF4AFFFF70
FFFB3FFFFF70
FFF71225FF70
FFFFFFFFFF60
DFFFFFFFFF40
5FFFFFFFFB00
05CFFFFD8100
ENDCHAR
STARTCHAR zacute
ENCODING 378
SWIDTH 578 0
DWIDTH 10 0
BBX 11 17 0 0
BITMAP
0002CFE80000
0008FADF4000
000CF2EF2000
002FC7F90000
003FDEF10000
05DFFFFD9100
6FF95528FC00
EFFFFE2EFF50
FFFFF68FFF60
FFFFD2FFFF70
FFFF4AFFFF70
FFFB3FFFFF70
FFF71225FF70
FFFFFFFFFF60
DFFFFFFFFF40
5FFFFFFFFB00
05CFFFFD8100
ENDCHAR
STARTCHAR Zdotaccent
ENCODING 379
SWIDTH 578 0
DWIDTH 10 0
BBX 11 17 0 0
BITMAP
000023100000
007EFFFA1000
05FFFFFFC000
0AFFA6FFF100
08FFECFFE000
07FFFFFFF100
6FF95528FC00
EFFFFE2EFF50
FFFFF68FFF60
FFFFD2FFFF70
FFFF4AFFFF70
FFFB3FFFFF70
FFF71225FF70
FFFFFFFFFF60
DFFFFFFFFF40
5FFFFFFFFB00
05CFFFFD8100
ENDCHAR
STARTCHAR zdotaccent
ENCODING 380
SWIDTH 578 0
DWIDTH 10 0
BBX 11 17 0 0
BITMAP
000023100000
007EFFFA1000
05FFFFFFC000
0AFFA6FFF100
08FFECFFE000
07FFFFFFF100
6FF95528FC00
EFFFFE2EFF50
FFFFF68FFF60
FFFFD2FFFF70
FFFF4AFFFF70
FFFB3FFFFF70
FFF71225FF70
FFFFFFFFFF60
DFFFFFFFFF40
5FFFFFFFFB00
05CFFFFD8100
ENDCHAR
STARTCHAR Zcaron
ENCODING 381
SWIDTH 578 0
DWIDTH 10 0
BBX 11 17 0 0
BITMAP
004CC8DB2000
00DECFBF8000
00CF5D7F7000
008F87CF4000
004FE8FE0000
05DFFFFF9100
6FF95528FC00
EFFFFE2EFF50
FFFFF68FFF60
FFFFD2FFFF70
FFFF4AFFFF70
FFFB3FFFFF70
FFF71225FF70
FFFFFFFFFF60
DFFFFFFFFF40
5FFFFFFFFB00
05CFFFFD8100
ENDCHAR
STARTCHAR zcaron
ENCODING 382
SWIDTH 578 0
DWIDTH 10 0
BBX 11 17 0 0
BITMAP
004CC8DB2000
00DECFBF8000
00CF5D7F7000
008F87CF4000
004FE8FE0000
05DFFFFF9100
6FF95528FC00
EFFFFE2EFF50
FFFFF68FFF60
FFFFD2FFFF70
FFFF4AFFFF70
FFFB3FFFFF70
FFF71225FF70
FFFFFFFFFF60
DFFFFFFFFF40
5FFFFFFFFB00
05CFFFFD8100
ENDCHAR
STARTCHAR longs
ENCODING 383
SWIDTH 578 0
DWIDTH 10 0
BBX 11 13 0 0
BITMAP
000011100000
05DFFFFE9100
6FFE657EFC00
EFF4DFC5FF50
FFB9FFF7DF60
FFB9F6F8CF70
FFF4E5D5FF70
FFFDD5CEFF70
FFFFFBFFFF70
FFFFFFFFFF60
DFFFFFFFFF40
5FFFFFFFFB00
05CFFFFD8100
ENDCHAR
STARTCHAR florin
ENCODING 402
SWIDTH 578 0
DWIDTH 10 0
BBX 11 13 0 0
BITMAP
000011100000
05DFFCBE9100
6FFFA35FFC00
EFFF6AFFFF50
FFFF69FFFF60
FFFA239FFF70
FFFF6AFFFF70
FFFF6AFFFF70
FFFF6AFFFF70
FFFE6AFFFF60
DFF56FFFFF40
5FFFFFFFFB00
05CFFFFD8100
ENDCHAR
STARTCHAR uni01CD
ENCODING 461
SWIDTH 578 0
DWIDTH 10 0
BBX 11 17 0 0
BITMAP
003BD8CC3000
00AFBFBFA000
009F5F5FA000
006FA7AF6000
001FF7FF2000
05DFFFFF9100
6FF63536FC00
EFF3DFC3FF50
FFF1EFE2FF60
FFF08870FF70
FFD2AAA1DF70
FFB4FFF3CF70
FFA5FFF5AF70
FFFFFFFFFF60
DFFFFFFFFF40
5FFFFFFFFB00
05CFFFFD8100
ENDCHAR
STARTCHAR uni01CE
ENCODING 462
SWIDTH 578 0
DWIDTH 10 0
BBX 11 17 0 0
BITMAP
001AD9CD5000
008FBFCED000
007F7D5FC000
003FD77F9000
000EF8EF4000
05DFFFFF9100
6FF65537FC00
EFFFFFC5FF50
FFFFFFC5FF60
FFE53335FF70
FF95DDA5FF70
FF97FFC5FF70
FFD21116FF70
FFFFFFFFFF60
DFFFFFFFFF40
5FFFFFFFFB00
05CFFFFD8100
ENDCHAR
STARTCHAR uni01CF
ENCODING 463
SWIDTH 578 0
DWIDTH 10 0
BBX 11 17 0 0
BITMAP
001AD9BD6000
006FBFDEE000
005F8C6EE000
002FE77FA000
000DF9DF6000
05DFFFFF9100
6FF65145DC00
EFFFF3DFFF50
FFFFF3DFFF60
FFFFF3DFFF70
FFFFF3DFFF70
FFFFF3DFFF70
FFF31011CF70
FFFFFFFFFF60
DFFFFFFFFF40
5FFFFFFFFB00
05CFFFFD8100
ENDCHAR
STARTCHAR uni01D0
ENCODING 464
SWIDTH 578 0
DWIDTH 10 0
BBX 11 17 0 0
BITMAP
001AD9CD5000
007FBFCED000
006F7D5FD000
003FD77F9000
000EF8DF5000
05DFFFFF8100
6FF65145DC00
EFFFF3DFFF50
FFFFF3DFFF60
FFFFF3DFFF70
FFFFF3DFFF70
FFFFF3DFFF70
FFF31011CF70
FFFFFFFFFF60
DFFFFFFFFF40
5FFFFFFFFB00
05CFFFFD8100
ENDCHAR
STARTCHAR uni01D1
ENCODING 465
SWIDTH 578 0
DWIDTH 10 0
BBX 11 17 0 0
BITMAP
002BD8CC4000
008FBFCEC000
008F6E5FC000
004FC78F8000
000EF8EF4000
05DFFFFF9100
6FE24552CC00
EFD3FFF69F50
FFD3FFF79F60
FFD3FFF79F70
FFD3FFF79F70
FFD3FFF6AF70
FFF31112DF70
FFFFFFFFFF60
DFFFFFFFFF40
5FFFFFFFFB00
05CFFFFD8100
ENDCHAR
STARTCHAR uni01D3
ENCODING 467
SWIDTH 578 0
DWIDTH 10 0
BBX 11 17 0 0
BITMAP
001AD9CD5000
007FBFCED000
007F7D5FC000
003FD77F9000
000EF8EF5000
05CFFFFF8100
6FC4FFF6AC00
EFC4FFF6AF50
FFC4FFF6AF60
FFC4FFF6AF70
FFC4FFF6AF70
FFC4FFF5BF70
FFE31112EF70
FFFFFFFFFF60
DFFFFFFFFF40
5FFFFFFFFB00
05CFFFFD8100
ENDCHAR
STARTCHAR uni01D4
ENCODING 468
SWIDTH 578 0
DWIDTH 10 0
BBX 11 17 0 0
BITMAP
001AD9CD5000
007FBFCED000
006F7D5FD000
003FD77F9000
000EF8DF5000
05CFFFFF8100
6FC4FFF6AC00
EFC4FFF6AF50
FFC4FFF6AF60
FFC4FFF6AF70
FFC4FFF6AF70
FFC4FFF5BF70
FFE31112EF70
FFFFFFFFFF60
DFFFFFFFFF40
5FFFFFFFFB00
05CFFFFD8100
ENDCHAR
STARTCHAR uni0200
ENCODING 512
SWIDTH 578 0
DWIDTH 10 0
BBX 11 18 0 0
BITMAP
003232000000
04FFFF600000
0CBEBDE10000
1FD7D6F90000
07F9D9CF2000
00CFDFCF5000
05FFFFFFA100
6FF63536FC00
EFF3DFC3FF50
FFF1EFE2FF60
FFF08870FF70
FFD2AAA1DF70
FFB4FFF3CF70
FFA5FFF5AF70
FFFFFFFFFF60
DFFFFFFFFF40
5FFFFFFFFB00
05CFFFFD8100
ENDCHAR
STARTCHAR uni0201
ENCODING 513
SWIDTH 578 0
DWIDTH 10 0
BBX 11 18 0 0
BITMAP
003232000000
04FFFF600000
0CBEBDE10000
1FD7D6F90000
07F9D9CF2000
00CFDFCF5000
05FFFFFFA100
6FF65537FC00
EFFFFFC5FF50
FFFFFFC5FF60
FFE53335FF70
FF95DDA5FF70
FF97FFC5FF70
FFD21116FF70
FFFFFFFFFF60
DFFFFFFFFF40
5FFFFFFFFB00
05CFFFFD8100
ENDCHAR
STARTCHAR uni0202
ENCODING 514
SWIDTH 578 0
DWIDTH 10 0
BBX 11 17 0 0
BITMAP
00048A840000
00AFFFFF9000
04FFDBDFF400
05FF272FF500
01EFDFDFD100
05FFFFFFB100
6FF63536FC00
EFF3DFC3FF50
FFF1EFE2FF60
FFF08870FF70
FFD2AAA1DF70
FFB4FFF3CF70
FFA5FFF5AF70
FFFFFFFFFF60
DFFFFFFFFF40
5FFFFFFFFB00
05CFFFFD8100
ENDCHAR
STARTCHAR uni0203
ENCODING 515
SWIDTH 578 0
DWIDTH 10 0
BBX 11 17 0 0
BITMAP
00048A840000
00AFFFFF9000
04FFDBDFF400
05FF272FF500
01EFDFDFD100
05FFFFFFB100
6FF65537FC00
EFFFFFC5FF50
FFFFFFC5FF60
FFE53335FF70
FF95DDA5FF70
FF97FFC5FF70
FFD21116FF70
FFFFFFFFFF60
DFFFFFFFFF40
5FFFFFFFFB00
05CFFFFD8100
ENDCHAR
STARTCHAR uni0204
ENCODING 516
SWIDTH 578 0
DWIDTH 10 0
BBX 11 18 0 0
BITMAP
003232000000
04FFFF600000
0CBEBDE10000
1FD7D6F90000
07F9D9CF2000
00CFDFCF5000
05FFFFFFA100
6FF83556FC00
EFF88FFFFF50
FFF88EEFFF60
FFF8122AFF70
FFF88FFFFF70
FFF88FFFFF70
FFF81112FF70
FFFFFFFFFF60
DFFFFFFFFF40
5FFFFFFFFB00
05CFFFFD8100
ENDCHAR
STARTCHAR uni0205
ENCODING 517
SWIDTH 578 0
DWIDTH 10 0
BBX 11 18 0 0
BITMAP
003232000000
04FFFF600000
0CBEBDE10000
1FD7D6F90000
07F9D9CF2000
00CFDFCF5000
05FFFFFFA100
6FC25537FC00
EFA6FFB4FF50
FFA37754FF60
FFA4999BFF70
FFA6FFFFFF70
FFA4CCCEFF70
FFF6444BFF70
FFFFFFFFFF60
DFFFFFFFFF40
5FFFFFFFFB00
05CFFFFD8100
ENDCHAR
STARTCHAR uni0206
ENCODING 518
SWIDTH 578 0
DWIDTH 10 0
BBX 11 17 0 0
BITMAP
00048A840000
00AFFFFF9000
04FFDBDFF400
05FF272FF500
01EFDFDFD100
05FFFFFFB100
6FF83556FC00
EFF88FFFFF50
FFF88EEFFF60
FFF8122AFF70
FFF88FFFFF70
FFF88FFFFF70
FFF81112FF70
FFFFFFFFFF60
DFFFFFFFFF40
5FFFFFFFFB00
05CFFFFD8100
ENDCHAR
STARTCHAR uni0207
ENCODING 519
SWIDTH 578 0
DWIDTH 10 0
BBX 11 17 0 0
BITMAP
00048A840000
00AFFFFF9000
04FFDBDFF400
05FF272FF500
01EFDFDFD100
05FFFFFFB100
6FC25537FC00
EFA6FFB4FF50
FFA37754FF60
FFA4999BFF70
FFA6FFFFFF70
FFA4CCCEFF70
FFF6444BFF70
FFFFFFFFFF60
DFFFFFFFFF40
5FFFFFFFFB00
05CFFFFD8100
ENDCHAR
STARTCHAR uni0208
ENCODING 520
SWIDTH 578 0
DWIDTH 10 0
BBX 11 18 0 0
BITMAP
003232000000
04FFFF600000
0CBEBDE10000
1FD7D6F90000
07F9D9CF2000
00CFDFCF5000
05FFFFFF9100
6FF65145DC00
EFFFF3DFFF50
FFFFF3DFFF60
FFFFF3DFFF70
FFFFF3DFFF70
FFFFF3DFFF70
FFF31011CF70
FFFFFFFFFF60
DFFFFFFFFF40
5FFFFFFFFB00
05CFFFFD8100
ENDCHAR
STARTCHAR uni0209
ENCODING 521
SWIDTH 578 0
DWIDTH 10 0
BBX 11 18 0 0
BITMAP
003232000000
04FFFF600000
0CBEBDE10000
1FD7D6F90000
07F9D9CF2000
00CFDFCF5000
05FFFFFF9100
6FF65145DC00
EFFFF3DFFF50
FFFFF3DFFF60
FFFFF3DFFF70
FFFFF3DFFF70
FFFFF3DFFF70
FFF31011CF70
FFFFFFFFFF60
DFFFFFFFFF40
5FFFFFFFFB00
05CFFFFD8100
ENDCHAR
STARTCHAR uni020A
ENCODING 522
SWIDTH 578 0
DWIDTH 10 0
BBX 11 17 0 0
BITMAP
00048A840000
00AFFFFF9000
04FFDBDFF400
05FF272FF500
01EFDFDFD100
05FFFFFFA100
6FF65145DC00
EFFFF3DFFF50
FFFFF3DFFF60
FFFFF3DFFF70
FFFFF3DFFF70
FFFFF3DFFF70
FFF31011CF70
FFFFFFFFFF60
DFFFFFFFFF40
5FFFFFFFFB00
05CFFFFD8100
ENDCHAR
STARTCHAR uni020B
ENCODING 523
SWIDTH 578 0
DWIDTH 10 0
BBX 11 17 0 0
BITMAP
00048A840000
00AFFFFF9000
04FFDBDFF400
05FF272FF500
01EFDFDFD100
05FFFFFFA100
6FF65145DC00
EFFFF3DFFF50
FFFFF3DFFF60
FFFFF3DFFF70
FFFFF3DFFF70
FFFFF3DFFF70
FFF31011CF70
FFFFFFFFFF60
DFFFFFFFFF40
5FFFFFFFFB00
05CFFFFD8100
ENDCHAR
STARTCHAR uni020C
ENCODING 524
SWIDTH 578 0
DWIDTH 10 0
BBX 11 18 0 0
BITMAP
003232000000
04FFFF600000
0CBEBDE10000
1FD7D6F90000
07F9D9CF2000
00CFDFCF5000
05FFFFFFA100
6FE24552CC00
EFD3FFF69F50
FFD3FFF79F60
FFD3FFF79F70
FFD3FFF79F70
FFD3FFF6AF70
FFF31112DF70
FFFFFFFFFF60
DFFFFFFFFF40
5FFFFFFFFB00
05CFFFFD8100
ENDCHAR
STARTCHAR uni020D
ENCODING 525
SWIDTH 578 0
DWIDTH 10 0
BBX 11 18 0 0
BITMAP
003232000000
04FFFF600000
0CBEBDE10000
1FD7D6F90000
07F9D9CF2000
00CFDFCF5000
05FFFFFFA100
6FE24552CC00
EFD3FFF69F50
FFD3FFF79F60
FFD3FFF79F70
FFD3FFF79F70
FFD3FFF6AF70
FFF31112DF70
FFFFFFFFFF60
DFFFFFFFFF40
5FFFFFFFFB00
05CFFFFD8100
ENDCHAR
STARTCHAR uni020E
ENCODING 526
SWIDTH 578 0
DWIDTH 10 0
BBX 11 17 0 0
BITMAP
00048A840000
00AFFFFF9000
04FFDBDFF400
05FF272FF500
01EFDFDFD100
05FFFFFFB100
6FE24552CC00
EFD3FFF69F50
FFD3FFF79F60
FFD3FFF79F70
FFD3FFF79F70
FFD3FFF6AF70
FFF31112DF70
FFFFFFFFFF60
DFFFFFFFFF40
5FFFFFFFFB00
05CFFFFD8100
ENDCHAR
STARTCHAR uni020F
ENCODING 527
SWIDTH 578 0
DWIDTH 10 0
BBX 11 17 0 0
BITMAP
00048A840000
00AFFFFF9000
04FFDBDFF400
05FF272FF500
01EFDFDFD100
05FFFFFFB100
6FE24552CC00
EFD3FFF69F50
FFD3FFF79F60
FFD3FFF79F70
FFD3FFF79F70
FFD3FFF6AF70
FFF31112DF70
FFFFFFFFFF60
DFFFFFFFFF40
5FFFFFFFFB00
05CFFFFD8100
ENDCHAR
STARTCHAR uni0210
ENCODING 528
SWIDTH 578 0
DWIDTH 10 0
BBX 11 18 0 0
BITMAP
003232000000
04FFFF600000
0CBEBDE10000
1FD7D6F90000
07F9D9CF2000
00CFDFCF5000
05FFFFFFA100
6FF15536FC00
EFF1FFE2FF50
FFF1FFD3FF60
FFF1222BFF70
FFF1EEB3FF70
FFF1FFF1FF70
FFF1FFF1FF70
FFFFFFFFFF60
DFFFFFFFFF40
5FFFFFFFFB00
05CFFFFD8100
ENDCHAR
STARTCHAR uni0211
ENCODING 529
SWIDTH 578 0
DWIDTH 10 0
BBX 11 18 0 0
BITMAP
003232000000
04FFFF600000
0CBEBDE10000
1FD7D6F90000
07F9D9CF2000
00CFDFCF5000
05FFFFFFA100
6FF15536FC00
EFF1FFE2FF50
FFF1FFD3FF60
FFF1222BFF70
FFF1EEB3FF70
FFF1FFF1FF70
FFF1FFF1FF70
FFFFFFFFFF60
DFFFFFFFFF40
5FFFFFFFFB00
05CFFFFD8100
ENDCHAR
STARTCHAR uni0212
ENCODING 530
SWIDTH 578 0
DWIDTH 10 0
BBX 11 17 0 0
BITMAP
00048A840000
00AFFFFF9000
04FFDBDFF400
05FF272FF500
01EFDFDFD100
05FFFFFFB100
6FF15536FC00
EFF1FFE2FF50
FFF1FFD3FF60
FFF1222BFF70
FFF1EEB3FF70
FFF1FFF1FF70
FFF1FFF1FF70
FFFFFFFFFF60
DFFFFFFFFF40
5FFFFFFFFB00
05CFFFFD8100
ENDCHAR
STARTCHAR uni0213
ENCODING 531
SWIDTH 578 0
DWIDTH 10 0
BBX 11 17 0 0
BITMAP
00048A840000
00AFFFFF9000
04FFDBDFF400
05FF272FF500
01EFDFDFD100
05FFFFFFB100
6FF15536FC00
EFF1FFE2FF50
FFF1FFD3FF60
FFF1222BFF70
FFF1EEB3FF70
FFF1FFF1FF70
FFF1FFF1FF70
FFFFFFFFFF60
DFFFFFFFFF40
5FFFFFFFFB00
05CFFFFD8100
ENDCHAR
STARTCHAR uni0214
ENCODING 532
SWIDTH 578 0
DWIDTH 10 0
BBX 11 18 0 0
BITMAP
003232000000
04FFFF600000
0CBEBDE10000
1FD7D6F90000
07F9D9CF2000
00CFDFCF5000
05EFFFFF9100
6FC4FFF6AC00
EFC4FFF6AF50
FFC4FFF6AF60
FFC4FFF6AF70
FFC4FFF6AF70
FFC4FFF5BF70
FFE31112EF70
FFFFFFFFFF60
DFFFFFFFFF40
5FFFFFFFFB00
05CFFFFD8100
ENDCHAR
STARTCHAR uni0215
ENCODING 533
SWIDTH 578 0
DWIDTH 10 0
BBX 11 18 0 0
BITMAP
003232000000
04FFFF600000
0CBEBDE10000
1FD7D6F90000
07F9D9CF2000
00CFDFCF5000
05EFFFFF9100
6FC4FFF6AC00
EFC4FFF6AF50
FFC4FFF6AF60
FFC4FFF6AF70
FFC4FFF6AF70
FFC4FFF5BF70
FFE31112EF70
FFFFFFFFFF60
DFFFFFFFFF40
5FFFFFFFFB00
05CFFFFD8100
ENDCHAR
STARTCHAR uni0216
ENCODING 534
SWIDTH 578 0
DWIDTH 10 0
BBX 11 17 0 0
BITMAP
00048A840000
00AFFFFF9000
04FFDBDFF400
05FF272FF500
01EFDFDFD100
05EFFFFFA100
6FC4FFF6AC00
EFC4FFF6AF50
FFC4FFF6AF60
FFC4FFF6AF70
FFC4FFF6AF70
FFC4FFF5BF70
FFE31112EF70
FFFFFFFFFF60
DFFFFFFFFF40
5FFFFFFFFB00
05CFFFFD8100
ENDCHAR
STARTCHAR uni0217
ENCODING 535
SWIDTH 578 0
DWIDTH 10 0
BBX 11 17 0 0
BITMAP
00048A840000
00AFFFFF9000
04FFDBDFF400
05FF272FF500
01EFDFDFD100
05EFFFFFA100
6FC4FFF6AC00
EFC4FFF6AF50
FFC4FFF6AF60
FFC4FFF6AF70
FFC4FFF6AF70
FFC4FFF5BF70
FFE31112EF70
FFFFFFFFFF60
DFFFFFFFFF40
5FFFFFFFFB00
05CFFFFD8100
ENDCHAR
STARTCHAR uni0218
ENCODING 536
SWIDTH 578 0
DWIDTH 10 0
BBX 11 13 0 0
BITMAP
000011100000
05DECBBC9100
6FF44555FC00
EFF1FFFFFF50
FFF1CDDEFF60
FFF94332EF70
FFFFFFF4CF70
FFFFFFF4CF70
FFF71113EF70
FFFFF9DFFF60
DFFFE2BFFF40
5FFFF7FFFB00
05CFFFFD8100
ENDCHAR
STARTCHAR uni0219
ENCODING 537
SWIDTH 578 0
DWIDTH 10 0
BBX 11 13 0 0
BITMAP
000011100000
05DECBBC9100
6FF44555FC00
EFF1FFFFFF50
FFF1CDDEFF60
FFF94332EF70
FFFFFFF4CF70
FFFFFFF4CF70
FFF71113EF70
FFFFF9DFFF60
DFFFE2BFFF40
5FFFF7FFFB00
05CFFFFD8100
ENDCHAR
STARTCHAR uni021A
ENCODING 538
SWIDTH 578 0
DWIDTH 10 0
BBX 11 13 0 0
BITMAP
000011100000
05DCBBBA8100
6FF65145DC00
EFFFF3DFFF50
FFFFF3DFFF60
FFFFF3DFFF70
FFFFF3DFFF70
FFFFF3DFFF70
FFFFF3DFFF70
FFFFFADFFF60
DFFFF29FFF40
5FFFF8EFFB00
05CFFFFD8100
ENDCHAR
STARTCHAR uni021B
ENCODING 539
SWIDTH 578 0
DWIDTH 10 0
BBX 11 13 0 0
BITMAP
000011100000
05DCBBBA8100
6FF65145DC00
EFFFF3DFFF50
FFFFF3DFFF60
FFFFF3DFFF70
FFFFF3DFFF70
FFFFF3DFFF70
FFFFF3DFFF70
FFFFFADFFF60
DFFFF29FFF40
5FFFF8EFFB00
05CFFFFD8100
ENDCHAR
STARTCHAR circumflex
ENCODING 710
SWIDTH 355 0
DWIDTH 6 0
BBX 7 7 0 0
BITMAP
00562000
09FFE100
2FC8F800
8F67EE00
DE6C8F40
FEDFCF60
7AAAA910
ENDCHAR
STARTCHAR caron
ENCODING 711
SWIDTH 355 0
DWIDTH 6 0
BBX 7 6 0 0
BITMAP
5CC9DA10
FEDFCF60
EE6B9F50
AF67EF20
6FC8FC00
1AAAA500
ENDCHAR
STARTCHAR breve
ENCODING 728
SWIDTH 428 0
DWIDTH 8 0
BBX 8 6 0 0
BITMAP
00132000
1AFFFE70
BFFFFFF6
FF8ECBFB
CFA33DF8
3EFFFFC1
ENDCHAR
STARTCHAR dotaccent
ENCODING 729
SWIDTH 428 0
DWIDTH 8 0
BBX 8 6 0 0
BITMAP
00132000
1AFFFE70
BFFFFFF6
FFF6AFFB
DFFBDFF9
6DDDDDD2
ENDCHAR
STARTCHAR ring
ENCODING 730
SWIDTH 368 0
DWIDTH 7 0
BBX 7 6 0 0
BITMAP
02785000
3EFFFB00
BE447F60
FC7F4F90
EE549F80
8FFFFF30
ENDCHAR
STARTCHAR ogonek
ENCODING 731
SWIDTH 101 0
DWIDTH 2 0
BBX 2 3 0 -3
BITMAP
95
C1
79
ENDCHAR
STARTCHAR tilde
ENCODING 732
SWIDTH 428 0
DWIDTH 8 0
BBX 8 6 0 0
BITMAP
029CB700
3EFFFFD1
CFFFFFF8
FFACDAFB
DC4738F9
5FFFFFD1
ENDCHAR
STARTCHAR hungarumlaut
ENCODING 733
SWIDTH 419 0
DWIDTH 8 0
BBX 8 7 0 0
BITMAP
00131310
02EFFF90
0AF9F9F2
4FB9B9F6
CF7F7FC0
FEDEDF30
8AAAA600
ENDCHAR
STARTCHAR uni030F
ENCODING 783
SWIDTH 419 0
DWIDTH 8 0
BBX 8 7 0 0
BITMAP
02222000
1EFFF900
9CCDCF40
DF5F5FC0
4FCAC9F5
09FCFCF8
019AAAA4
ENDCHAR
STARTCHAR mu
ENCODING 956
SWIDTH 578 0
DWIDTH 10 0
BBX 11 13 0 0
BITMAP
000011100000
05CCFFFC7100
6FC4FFF6AC00
EFC4FFF6AF50
FFC4FFF6AF60
FFC4FFF6AF70
FFC4FFF6AF70
FFC4FFF5BF70
FFC11112EF70
FFD8FFFFFF60
DFFFFFFFFF40
5FFFFFFFFB00
05CFFFFD8100
ENDCHAR
STARTCHAR pi
ENCODING 960
SWIDTH 578 0
DWIDTH 10 0
BBX 11 13 0 0
BITMAP
000011100000
05DFDBDE9100
6FD58A86EC00
EE5D455D5F50
F8CB9F5FAA60
F6F96A4DE770
F6F89B6CE770
F9A6DFAA8C70
FF5BFFE97F70
FFF86669FF60
DFFFFFFFFF40
5FFFFFFFFB00
05CFFFFD8100
ENDCHAR
STARTCHAR uni1E60
ENCODING 7776
SWIDTH 578 0
DWIDTH 10 0
BBX 11 17 0 0
BITMAP
000013200000
002BFFFE6000
00CFFFFFF500
02FFF5CFF900
00EFFBEFF700
05FFFFFFF200
6FF44555FC00
EFF1FFFFFF50
FFF1CDDEFF60
FFF94332EF70
FFFFFFF4CF70
FFFFFFF4CF70
FFF71113EF70
FFFFFFFFFF60
DFFFFFFFFF40
5FFFFFFFFB00
05CFFFFD8100
ENDCHAR
STARTCHAR uni1E8E
ENCODING 7822
SWIDTH 578 0
DWIDTH 10 0
BBX 11 17 0 0
BITMAP
000013200000
003CFFFD5000
01EFFFFFF300
04FFF3DFF700
02FFFBFFF500
05FFFFFFF100
6FF4AFD1EC00
EFFA4F77FF50
FFFF2D2DFF60
FFFF835FFF70
FFFFE0BFFF70
FFFFF2EFFF70
FFFFF2EFFF70
FFFFFFFFFF60
DFFFFFFFFF40
5FFFFFFFFB00
05CFFFFD8100
ENDCHAR
STARTCHAR uni1E8F
ENCODING 7823
SWIDTH 578 0
DWIDTH 10 0
BBX 11 17 0 0
BITMAP
000013200000
003CFFFD5000
01EFFFFFF300
04FFF3DFF700
02FFFBFFF500
05FFFFFFF100
6FF4AFD1EC00
EFFA4F77FF50
FFFF2D2DFF60
FFFF835FFF70
FFFFE0BFFF70
FFFFF2EFFF70
FFFFF2EFFF70
FFFFFFFFFF60
DFFFFFFFFF40
5FFFFFFFFB00
05CFFFFD8100
ENDCHAR
STARTCHAR uni1EBC
ENCODING 7868
SWIDTH 578 0
DWIDTH 10 0
BBX 11 18 0 0
BITMAP
0003ACB60000
006FFFFFA000
01EFFFFFF500
03FEADCCF800
01FA652BF600
008FFFFFB000
05DDBBBB9100
6FF83556FC00
EFF88FFFFF50
FFF88EEFFF60
FFF8122AFF70
FFF88FFFFF70
FFF88FFFFF70
FFF81112FF70
FFFFFFFFFF60
DFFFFFFFFF40
5FFFFFFFFB00
05CFFFFD8100
ENDCHAR
STARTCHAR uni1EF8
ENCODING 7928
SWIDTH 578 0
DWIDTH 10 0
BBX 11 18 0 0
BITMAP
0004ACB50000
006FFFFFA000
01FFFFFFF400
04FEADCCF700
02F9652BF500
008FFFFFB000
05DBFFFB8100
6FF4AFD1EC00
EFFA4F77FF50
FFFF2D2DFF60
FFFF835FFF70
FFFFE0BFFF70
FFFFF2EFFF70
FFFFF2EFFF70
FFFFFFFFFF60
DFFFFFFFFF40
5FFFFFFFFB00
05CFFFFD8100
ENDCHAR
STARTCHAR uni1EF9
ENCODING 7929
SWIDTH 578 0
DWIDTH 10 0
BBX 11 18 0 0
BITMAP
0004ACB50000
006FFFFFA000
01FFFFFFF400
04FEADCCF700
02F9652BF500
008FFFFFB000
05DBFFFB8100
6FF4AFD1EC00
EFFA4F77FF50
FFFF2D2DFF60
FFFF835FFF70
FFFFE0BFFF70
FFFFF2EFFF70
FFFFF2EFFF70
FFFFFFFFFF60
DFFFFFFFFF40
5FFFFFFFFB00
05CFFFFD8100
ENDCHAR
STARTCHAR endash
ENCODING 8211
SWIDTH 428 0
DWIDTH 8 0
BBX 8 12 0 0
BITMAP
05DFFB30
6FFFFFE2
EFFFFFF9
FF4118FB
FFFFFFFB
FFFFFFFB
FFFFFFFB
FFFFFFFB
FFFFFFFB
DFFFFFF9
5FFFFFE2
05CFEA20
ENDCHAR
STARTCHAR emdash
ENCODING 8212
SWIDTH 428 0
DWIDTH 8 0
BBX 8 12 0 0
BITMAP
05CFEB30
6FFFFFE2
DFFFFFF8
11111111
FFFFFFFB
FFFFFFFB
FFFFFFFB
FFFFFFFB
FFFFFFFB
DFFFFFF9
5FFFFFE2
05CFEA20
ENDCHAR
STARTCHAR quoteleft
ENCODING 8216
SWIDTH 428 0
DWIDTH 8 0
BBX 8 12 0 0
BITMAP
05DEEB30
6FF7BFE2
EFF46FF9
FFFFFFFB
FFFFFFFB
FFFFFFFB
FFFFFFFB
FFFFFFFB
FFFFFFFB
DFFFFFF9
5FFFFFE2
05CFEA20
ENDCHAR
STARTCHAR quoteright
ENCODING 8217
SWIDTH 428 0
DWIDTH 8 0
BBX 8 12 0 0
BITMAP
05DCCB30
6FF56FE2
EFFAAFF9
FFFFFFFB
FFFFFFFB
FFFFFFFB
FFFFFFFB
FFFFFFFB
FFFFFFFB
DFFFFFF9
5FFFFFE2
05CFEA20
ENDCHAR
STARTCHAR quotesinglbase
ENCODING 8218
SWIDTH 428 0
DWIDTH 8 0
BBX 8 12 0 0
BITMAP
05DFFB30
6FFFFFE2
EFFFFFF9
FFFFFFFB
FFFFFFFB
FFFFFFFB
FFFEEFFB
FFF46FFB
FFFA9FFB
DFFFFFF9
5FFFFFE2
05CFEA20
ENDCHAR
STARTCHAR quotedblleft
ENCODING 8220
SWIDTH 428 0
DWIDTH 8 0
BBX 8 12 0 0
BITMAP
05CEDB30
6F994EE2
EF640AF9
FFFFFFFB
FFFFFFFB
FFFFFFFB
FFFFFFFB
FFFFFFFB
FFFFFFFB
DFFFFFF9
5FFFFFE2
05CFEA20
ENDCHAR
STARTCHAR quotedblright
ENCODING 8221
SWIDTH 428 0
DWIDTH 8 0
BBX 8 12 0 0
BITMAP
05BCC930
6F9247E2
EFE69CF9
FFFFFFFB
FFFFFFFB
FFFFFFFB
FFFFFFFB
FFFFFFFB
FFFFFFFB
DFFFFFF9
5FFFFFE2
05CFEA20
ENDCHAR
STARTCHAR quotedblbase
ENCODING 8222
SWIDTH 428 0
DWIDTH 8 0
BBX 8 12 0 0
BITMAP
05DFFB30
6FFFFFE2
EFFFFFF9
FFFFFFFB
FFFFFFFB
FFFFFFFB
FFEEEEFB
FF9137FB
FFE59BFB
DFFFFFF9
5FFFFFE2
05CFEA20
ENDCHAR
STARTCHAR dagger
ENCODING 8224
SWIDTH 578 0
DWIDTH 10 0
BBX 11 13 0 0
BITMAP
000011100000
05DFFCEE9100
6FFFF3DFFC00
EFFF312BFF50
FFFFD3BEFF60
FFFFF3DFFF70
FFFFF3DFFF70
FFFFF3DFFF70
FFFFF3DFFF70
FFFFFFFFFF60
DFFFFFFFFF40
5FFFFFFFFB00
05CFFFFD8100
ENDCHAR
STARTCHAR daggerdbl
ENCODING 8225
SWIDTH 578 0
DWIDTH 10 0
BBX 11 13 0 0
BITMAP
000011100000
05DFFCEE9100
6FFFF3DFFC00
EFFF312BFF50
FFFFD3BEFF60
FFFFF3DFFF70
FFFFD3AEFF70
FFFF413BFF70
FFFFF3DFFF70
FFFFFFFFFF60
DFFFFFFFFF40
5FFFFFFFFB00
05CFFFFD8100
ENDCHAR
STARTCHAR bullet
ENCODING 8226
SWIDTH 578 0
DWIDTH 10 0
BBX 11 13 0 0
BITMAP
000011100000
05DFFFFE9100
6FFE989EFC00
EFF20002EF50
FFD00000CF60
FFD00000CF70
FFD00000CF70
FFE10000EF70
FFFC656BFF70
FFFFFFFFFF60
DFFFFFFFFF40
5FFFFFFFFB00
05CFFFFD8100
ENDCHAR
STARTCHAR ellipsis
ENCODING 8230
SWIDTH 578 0
DWIDTH 10 0
BBX 11 13 0 0
BITMAP
000011100000
05DFFFFE9100
6FFFFFFFFC00
EFFFFFFFFF50
FFFFFFFFFF60
FFFFFFFFFF70
FFFFFFFFFF70
FFEEEEFEFF70
FF4885B2FF70
FFFFFFFFFF60
DFFFFFFFFF40
5FFFFFFFFB00
05CFFFFD8100
ENDCHAR
STARTCHAR perthousand
ENCODING 8240
SWIDTH 640 0
DWIDTH 12 0
BBX 12 13 0 0
BITMAP
000011110000
05DFFFFFEA10
554CAAFFFFD1
95964BFFFFF6
C1281FFFFFF8
FEDA5DBFEBD8
FFF681455427
FFF2C2934926
FFE8F85BC688
FFFFFFFFFFF8
DFFFFFFFFFF6
5FFFFFFFFFD1
05CFFFFFE910
ENDCHAR
STARTCHAR guilsinglleft
ENCODING 8249
SWIDTH 578 0
DWIDTH 10 0
BBX 11 13 0 0
BITMAP
000011100000
05DFFFFE9100
6FFFFFBFFC00
EFFFFB5FFF50
FFFFD3EFFF60
FFFF4CFFFF70
FFFF4CFFFF70
FFFFE3EFFF70
FFFFFB5FFF70
FFFFFFBFFF60
DFFFFFFFFF40
5FFFFFFFFB00
05CFFFFD8100
ENDCHAR
STARTCHAR guilsinglright
ENCODING 8250
SWIDTH 578 0
DWIDTH 10 0
BBX 11 13 0 0
BITMAP
000011100000
05DFFFFE9100
6FFFBFFFFC00
EFFF6AFFFF50
FFFFE3DFFF60
FFFFFC4FFF70
FFFFFC4FFF70
FFFFE3DFFF70
FFFF6AFFFF70
FFFFBFFFFF60
DFFFFFFFFF40
5FFFFFFFFB00
05CFFFFD8100
ENDCHAR
STARTCHAR fraction
ENCODING 8260
SWIDTH 428 0
DWIDTH 8 0
BBX 8 12 0 0
BITMAP
05DFBB30
6FFD3FE2
EFFA5FF9
FFF88FFB
FFF5AFFB
FFF3DFFB
FFF1FFFB
FFD3FFFB
FFFFFFFB
DFFFFFF9
5FFFFFE2
05CFEA20
ENDCHAR
STARTCHAR Euro
ENCODING 8364
SWIDTH 578 0
DWIDTH 10 0
BBX 11 13 0 0
BITMAP
000011100000
05DDBBCD8100
6FD2555BFB00
EFB5FFFFFF50
FC2135FFFF60
FE83BBFFFF70
FD5279FFFF70
FFB4FFFFFF70
FFE2111AFF70
FFFFFFFFFF60
DFFFFFFFFF40
5FFFFFFFFB00
05CFFFFD8100
ENDCHAR
STARTCHAR trademark
ENCODING 8482
SWIDTH 578 0
DWIDTH 10 0
BBX 11 13 0 0
BITMAP
000011100000
05DFFFFE9100
6FFFFFFFFC00
EFFFFFFFFF50
FFCACDFCFF60
FFC4A266FF70
FFF5C336FF70
FFFCEDDCFF70
FFFFFFFFFF70
FFFFFFFFFF60
DFFFFFFFFF40
5FFFFFFFFB00
05CFFFFD8100
ENDCHAR
STARTCHAR product
ENCODING 8719
SWIDTH 578 0
DWIDTH 10 0
BBX 11 13 0 0
BITMAP
000011100000
05DFDBDE9100
6FD58A86EC00
EE5E777C5F50
F8CF5EA9AA60
F6FF5FB9E770
F6FF255DE770
F9AF5FFF8C70
FF5CAFFA7F70
FFF86669FF60
DFFFFFFFFF40
5FFFFFFFFB00
05CFFFFD8100
ENDCHAR
STARTCHAR minus
ENCODING 8722
SWIDTH 428 0
DWIDTH 8 0
BBX 8 12 0 0
BITMAP
05DFFB30
6FFFFFE2
EFFFFFF9
FF4118FB
FFFFFFFB
FFFFFFFB
FFFFFFFB
FFFFFFFB
FFFFFFFB
DFFFFFF9
5FFFFFE2
05CFEA20
ENDCHAR
STARTCHAR notequal
ENCODING 8800
SWIDTH 578 0
DWIDTH 10 0
BBX 11 13 0 0
BITMAP
000011100000
05DFFFFE9100
6FFFFD9FFC00
EFD8844BFF50
FFD8628BFF60
FFC42248FF70
FFEB1CCDFF70
FFFEDFFFFF70
FFFFFFFFFF70
FFFFFFFFFF60
DFFFFFFFFF40
5FFFFFFFFB00
05CFFFFD8100
ENDCHAR
STARTCHAR uni2706
ENCODING 9990
SWIDTH 578 0
DWIDTH 10 0
BBX 11 13 0 0
BITMAP
000011100000
05DFFBFE9100
6FFFE88FFC00
EFFEC88BFF50
FFF66A99FF60
FFF17FFEFF70
FFF38FFFFF70
FFF91DEFFF70
FFFF614BFF70
FFFFFA7AFF60
DFFFFFFFFF40
5FFFFFFFFB00
05CFFFFD8100
ENDCHAR
STARTCHAR uni2708
ENCODING 9992
SWIDTH 578 0
DWIDTH 10 0
BBX 11 13 0 0
BITMAP
000011100000
046665666100
52008C500600
600009000250
505929392050
5004EED20050
50003D100050
50000B000050
500008000050
500001000050
60004B100240
52005C200700
046655666100
ENDCHAR
STARTCHAR uniF6D6
ENCODING 63190
SWIDTH 419 0
DWIDTH 8 0
BBX 8 7 0 0
BITMAP
02222000
1EFFF900
9CCDCF40
DF5F5FC0
4FCAC9F5
09FCFCF8
019AAAA4
ENDCHAR
STARTCHAR uFFFF2
ENCODING 1048562
SWIDTH 578 0
DWIDTH 10 0
BBX 11 13 0 0
BITMAP
000011100000
046655566100
520008000600
60000B000250
50003D100050
5004EED20050
505929393050
500009000050
50008B500050
500010100050
60004B100240
52005C200700
046655666100
ENDCHAR
STARTCHAR uFFFF3
ENCODING 1048563
SWIDTH 578 0
DWIDTH 10 0
BBX 11 13 0 0
BITMAP
000011100000
046655566100
52000A200600
60021CB20250
5005BC870050
50005F800050
50008FA00050
50078C890050
50010CC20050
500008100050
600000000240
520000000700
046655666100
ENDCHAR
STARTCHAR uFFFF4
ENCODING 1048564
SWIDTH 578 0
DWIDTH 10 0
BBX 11 13 0 0
BITMAP
000011100000
05DFFFFE9100
6FFFFAFFFC00
EFFCC5BDFF50
FFE4E5E4FF60
FFB9F6F8CF70
FFB8FFF7DF70
FFF4BFA5FF70
FFFE858FFF70
FFFFFFFFFF60
DFFFFFFFFF40
5FFFFFFFFB00
05CFFFFD8100
ENDCHAR
STARTCHAR uFFFF5
ENCODING 1048565
SWIDTH 578 0
DWIDTH 10 0
BBX 11 13 0 0
BITMAP
000011100000
05DFEFEE9100
6FFF73AFFC00
EFFFF6FFFF50
FFA6D6C6DF60
FFFB112DFF70
FFFFC2EFFF70
FFFFF4FFFF70
FFFFF7FFFF70
FFFFFFFFFF60
DFFFB4EFFF40
5FFFA3DFFB00
05CFFFFD8100
ENDCHAR
STARTCHAR uFFFF6
ENCODING 1048566
SWIDTH 578 0
DWIDTH 10 0
BBX 11 13 0 0
BITMAP
000011100000
05DFFEFE9100
6FFFF7FFFC00
EFFFF4FFFF50
FFFFC2EFFF60
FFFB112DFF70
FFA7E6B6DF70
FFFFF6FFFF70
FFFF74AFFF70
FFFFEFEFFF60
DFFFB4EFFF40
5FFFA3DFFB00
05CFFFFD8100
ENDCHAR
STARTCHAR uFFFF8
ENCODING 1048568
SWIDTH 578 0
DWIDTH 10 0
BBX 11 13 0 0
BITMAP
000011100000
05DFFFFE9100
6FFFB8EFFC00
EFFE567FFF50
FFFA254EFF60
FFF67299FF70
FFC481A4FF70
FFD00003FF70
FFF30009FF70
FFFE86AFFF60
DFFFA4EFFF40
5FFF92EFFB00
05CFFFFD8100
ENDCHAR
STARTCHAR uFFFF9
ENCODING 1048569
SWIDTH 578 0
DWIDTH 10 0
BBX 11 13 0 0
BITMAP
000011100000
046655566100
520005000600
60033A420250
501B1A1B0050
504609073050
504700082050
500B405A0050
50017A700050
500000000050
600000000240
520000000700
046655666100
ENDCHAR
STARTCHAR uFFFFB
ENCODING 1048571
SWIDTH 578 0
DWIDTH 10 0
BBX 11 13 0 0
BITMAP
000011100000
05DFEDFE9100
6FFFD2DFFC00
EFF7D44DFF50
FFF9334EFF60
FFFF71EFFF70
FFFB215FFF70
FFF6C53CFF70
FFFFD1BFFF70
FFFFECFFFF60
DFFFFFFFFF40
5FFFFFFFFB00
05CFFFFD8100
ENDCHAR
STARTCHAR uFFFFC
ENCODING 1048572
SWIDTH 578 0
DWIDTH 10 0
BBX 11 13 0 0
BITMAP
000011100000
05DFFFFE9100
6FE73249FC00
EC39AAA83E50
FEB37964CF60
FFDA444BEF70
FFFCD9DDFF70
FFFFC2EFFF70
FFFFFFFFFF70
FFFFFFFFFF60
DFFFFFFFFF40
5FFFFFFFFB00
05CFFFFD8100
ENDCHAR
STARTCHAR uFFFFD
ENCODING 1048573
SWIDTH 578 0
DWIDTH 10 0
BBX 11 13 0 0
BITMAP
000011100000
05DFFFFE9100
6FFE759FFC00
EFF30008FF50
FFC00003FF60
FFC491B4FF70
FFF66389FF70
FFFB244EFF70
FFFE578FFF70
FFFFC9EFFF60
DFFFA4EFFF40
5FFF92EFFB00
05CFFFFD8100
ENDCHAR
STARTCHAR uFFFFE
ENCODING 1048574
SWIDTH 578 0
DWIDTH 10 0
BBX 11 13 0 0
BITMAP
000011100000
05DFFFFE9100
6F878E77AC00
EB7D569D4F50
FC6A57BF4F60
FD5957BF4F70
FB8F76BF4F70
FE545C447F70
FFFFFFFFFF70
FFFFFFFFFF60
DFFFFFFFFF40
5FFFFFFFFB00
05CFFFFD8100
ENDCHAR
STARTCHAR uFFFFF
ENCODING 1048575
SWIDTH 578 0
DWIDTH 10 0
BBX 11 13 0 0
BITMAP
000011100000
046655566100
52018A600600
600CFFF70250
503FFFFC0050
503B6E4B0050
50099C760050
5004DBB10050
5001A8800050
500036100050
60005B100240
52006D100700
046655666100
ENDCHAR
STARTCHAR .notdef
ENCODING -1
SWIDTH 1000 0
DWIDTH 18 0
BBX 1 1 0 0
BITMAP
00
ENDCHAR
STARTCHAR glyph1
ENCODING -1
SWIDTH 0 0
DWIDTH 0 0
BBX 1 1 0 0
BITMAP
00
ENDCHAR
ENDFONT
